%TF.GenerationSoftware,KiCad,Pcbnew,10.0.3*%
%TF.CreationDate,2026-05-28T11:12:26+03:00*%
%TF.ProjectId,mentaldsp,6d656e74-616c-4647-9370-2e6b69636164,rev?*%
%TF.SameCoordinates,Original*%
%TF.FileFunction,Plated,1,2,PTH,Mixed*%
%TF.FilePolarity,Positive*%
%FSLAX46Y46*%
G04 Gerber Fmt 4.6, Leading zero omitted, Abs format (unit mm)*
G04 Created by KiCad (PCBNEW 10.0.3) date 2026-05-28 11:12:26*
%MOMM*%
%LPD*%
G01*
G04 APERTURE LIST*
G04 aperture for slot hole*
%TA.AperFunction,ComponentDrill*%
%ADD10C,0.850000*%
%TD*%
%TA.AperFunction,ComponentDrill*%
%ADD11C,1.000000*%
%TD*%
%TA.AperFunction,ComponentDrill*%
%ADD12C,3.100000*%
%TD*%
G04 APERTURE END LIST*
%TO.C,J9*%
D10*
X108012500Y-118561000D02*
X108012500Y-116411000D01*
X112337500Y-112836000D02*
X110687500Y-112836000D01*
X114012500Y-118561000D02*
X114012500Y-116411000D01*
D11*
%TO.C,U7*%
X119110000Y-111150000D03*
X119110000Y-113690000D03*
X119110000Y-116230000D03*
X119110000Y-123850000D03*
X120750000Y-115000000D03*
X121650000Y-111150000D03*
X121650000Y-123850000D03*
X124190000Y-111150000D03*
X124190000Y-123850000D03*
%TO.C,J5*%
X124200000Y-129100000D03*
%TO.C,U7*%
X126730000Y-111150000D03*
X126730000Y-123850000D03*
%TO.C,J5*%
X126740000Y-129100000D03*
%TO.C,U7*%
X129270000Y-111150000D03*
X129270000Y-123850000D03*
%TO.C,J5*%
X129280000Y-129100000D03*
%TO.C,U7*%
X131810000Y-111150000D03*
X131810000Y-123850000D03*
%TO.C,J5*%
X131820000Y-129100000D03*
%TO.C,U7*%
X134350000Y-111150000D03*
X134350000Y-123850000D03*
X136890000Y-111150000D03*
X136890000Y-123850000D03*
%TO.C,U8*%
X146110000Y-111150000D03*
X146110000Y-113690000D03*
X146110000Y-116230000D03*
X146110000Y-123850000D03*
X147750000Y-115000000D03*
X148650000Y-111150000D03*
X148650000Y-123850000D03*
X151190000Y-111150000D03*
X151190000Y-123850000D03*
%TO.C,J8*%
X151200000Y-129100000D03*
%TO.C,U8*%
X153730000Y-111150000D03*
X153730000Y-123850000D03*
%TO.C,J8*%
X153740000Y-129100000D03*
%TO.C,U8*%
X156270000Y-111150000D03*
X156270000Y-123850000D03*
%TO.C,J8*%
X156280000Y-129100000D03*
%TO.C,U8*%
X158810000Y-111150000D03*
X158810000Y-123850000D03*
%TO.C,J8*%
X158820000Y-129100000D03*
%TO.C,U8*%
X161350000Y-111150000D03*
X161350000Y-123850000D03*
X163890000Y-111150000D03*
X163890000Y-123850000D03*
%TO.C,U9*%
X173110000Y-111150000D03*
X173110000Y-113690000D03*
X173110000Y-116230000D03*
X173110000Y-123850000D03*
X174750000Y-115000000D03*
X175650000Y-111150000D03*
X175650000Y-123850000D03*
X178190000Y-111150000D03*
X178190000Y-123850000D03*
%TO.C,J7*%
X178300000Y-129100000D03*
%TO.C,U9*%
X180730000Y-111150000D03*
X180730000Y-123850000D03*
%TO.C,J7*%
X180840000Y-129100000D03*
%TO.C,U9*%
X183270000Y-111150000D03*
X183270000Y-123850000D03*
%TO.C,J7*%
X183380000Y-129100000D03*
%TO.C,U9*%
X185810000Y-111150000D03*
X185810000Y-123850000D03*
%TO.C,J7*%
X185920000Y-129100000D03*
%TO.C,U9*%
X188350000Y-111150000D03*
X188350000Y-123850000D03*
X190890000Y-111150000D03*
X190890000Y-123850000D03*
%TO.C,U6*%
X201840000Y-109880000D03*
X201840000Y-125120000D03*
X204380000Y-109880000D03*
X204380000Y-125120000D03*
X206920000Y-109880000D03*
X206920000Y-125120000D03*
X209460000Y-109880000D03*
X209460000Y-125120000D03*
X212000000Y-109880000D03*
X212000000Y-125120000D03*
X214500000Y-109880000D03*
X214540000Y-125120000D03*
X217080000Y-109880000D03*
X217080000Y-125120000D03*
X219620000Y-109880000D03*
X219620000Y-125120000D03*
X222160000Y-109880000D03*
X222160000Y-125120000D03*
D12*
%TO.C,H4*%
X103000000Y-103000000D03*
%TO.C,H3*%
X103000000Y-132000000D03*
%TO.C,H2*%
X222000000Y-103000000D03*
%TO.C,H1*%
X222000000Y-132000000D03*
M02*
