%TF.GenerationSoftware,KiCad,Pcbnew,10.0.3*%
%TF.CreationDate,2026-05-28T10:55:41+03:00*%
%TF.ProjectId,mentaldsp,6d656e74-616c-4647-9370-2e6b69636164,rev?*%
%TF.SameCoordinates,Original*%
%TF.FileFunction,Copper,L1,Top*%
%TF.FilePolarity,Positive*%
%FSLAX46Y46*%
G04 Gerber Fmt 4.6, Leading zero omitted, Abs format (unit mm)*
G04 Created by KiCad (PCBNEW 10.0.3) date 2026-05-28 10:55:41*
%MOMM*%
%LPD*%
G01*
G04 APERTURE LIST*
G04 Aperture macros list*
%AMRoundRect*
0 Rectangle with rounded corners*
0 $1 Rounding radius*
0 $2 $3 $4 $5 $6 $7 $8 $9 X,Y pos of 4 corners*
0 Add a 4 corners polygon primitive as box body*
4,1,4,$2,$3,$4,$5,$6,$7,$8,$9,$2,$3,0*
0 Add four circle primitives for the rounded corners*
1,1,$1+$1,$2,$3*
1,1,$1+$1,$4,$5*
1,1,$1+$1,$6,$7*
1,1,$1+$1,$8,$9*
0 Add four rect primitives between the rounded corners*
20,1,$1+$1,$2,$3,$4,$5,0*
20,1,$1+$1,$4,$5,$6,$7,0*
20,1,$1+$1,$6,$7,$8,$9,0*
20,1,$1+$1,$8,$9,$2,$3,0*%
G04 Aperture macros list end*
%TA.AperFunction,SMDPad,CuDef*%
%ADD10RoundRect,0.250000X0.325000X0.650000X-0.325000X0.650000X-0.325000X-0.650000X0.325000X-0.650000X0*%
%TD*%
%TA.AperFunction,ComponentPad*%
%ADD11C,3.300000*%
%TD*%
%TA.AperFunction,SMDPad,CuDef*%
%ADD12RoundRect,0.250000X0.625000X-0.312500X0.625000X0.312500X-0.625000X0.312500X-0.625000X-0.312500X0*%
%TD*%
%TA.AperFunction,SMDPad,CuDef*%
%ADD13RoundRect,0.250000X-0.650000X0.325000X-0.650000X-0.325000X0.650000X-0.325000X0.650000X0.325000X0*%
%TD*%
%TA.AperFunction,SMDPad,CuDef*%
%ADD14RoundRect,0.250000X0.650000X-0.325000X0.650000X0.325000X-0.650000X0.325000X-0.650000X-0.325000X0*%
%TD*%
%TA.AperFunction,SMDPad,CuDef*%
%ADD15R,1.000000X3.000000*%
%TD*%
%TA.AperFunction,SMDPad,CuDef*%
%ADD16RoundRect,0.250000X0.220971X-0.662913X0.662913X-0.220971X-0.220971X0.662913X-0.662913X0.220971X0*%
%TD*%
%TA.AperFunction,SMDPad,CuDef*%
%ADD17RoundRect,0.250000X0.312500X0.625000X-0.312500X0.625000X-0.312500X-0.625000X0.312500X-0.625000X0*%
%TD*%
%TA.AperFunction,ComponentPad*%
%ADD18R,1.700000X1.700000*%
%TD*%
%TA.AperFunction,ComponentPad*%
%ADD19C,1.700000*%
%TD*%
%TA.AperFunction,ComponentPad*%
%ADD20C,1.508000*%
%TD*%
%TA.AperFunction,ComponentPad*%
%ADD21R,1.508000X1.508000*%
%TD*%
%TA.AperFunction,ComponentPad*%
%ADD22O,2.300000X4.500000*%
%TD*%
%TA.AperFunction,ComponentPad*%
%ADD23O,4.000000X2.300000*%
%TD*%
%TA.AperFunction,Conductor*%
%ADD24C,1.000000*%
%TD*%
%TA.AperFunction,Conductor*%
%ADD25C,0.400000*%
%TD*%
%TA.AperFunction,Profile*%
%ADD26C,0.050000*%
%TD*%
G04 APERTURE END LIST*
D10*
X190975000Y-126500000D03*
X188025000Y-126500000D03*
X148475000Y-129000000D03*
X145525000Y-129000000D03*
D11*
X103000000Y-132000000D03*
D12*
X178000000Y-108962500D03*
X178000000Y-106037500D03*
X148500000Y-108962500D03*
X148500000Y-106037500D03*
D13*
X219500000Y-112825000D03*
X219500000Y-115775000D03*
D14*
X109000000Y-109975000D03*
X109000000Y-107025000D03*
D10*
X175475000Y-126500000D03*
X172525000Y-126500000D03*
X136975000Y-126500000D03*
X134025000Y-126500000D03*
D13*
X217000000Y-112825000D03*
X217000000Y-115775000D03*
D10*
X163975000Y-126500000D03*
X161025000Y-126500000D03*
D15*
X104260000Y-112875000D03*
X104260000Y-107675000D03*
D16*
X210665856Y-118534144D03*
X212734144Y-116465856D03*
D10*
X121475000Y-129000000D03*
X118525000Y-129000000D03*
D11*
X222000000Y-132000000D03*
D16*
X206465856Y-118534144D03*
X208534144Y-116465856D03*
D11*
X222000000Y-103000000D03*
D10*
X121475000Y-126500000D03*
X118525000Y-126500000D03*
X148475000Y-126500000D03*
X145525000Y-126500000D03*
X175475000Y-129000000D03*
X172525000Y-129000000D03*
D11*
X103000000Y-103000000D03*
D17*
X217262500Y-120300000D03*
X214337500Y-120300000D03*
D18*
X131820000Y-129100000D03*
D19*
X129280000Y-129100000D03*
X126740000Y-129100000D03*
X124200000Y-129100000D03*
D20*
X119110000Y-113690000D03*
D21*
X136890000Y-123850000D03*
D20*
X134350000Y-123850000D03*
X131810000Y-123850000D03*
X129270000Y-123850000D03*
X126730000Y-123850000D03*
X124190000Y-123850000D03*
X121650000Y-123850000D03*
X119110000Y-123850000D03*
X136890000Y-111150000D03*
X134350000Y-111150000D03*
X131810000Y-111150000D03*
X129270000Y-111150000D03*
X126730000Y-111150000D03*
X124190000Y-111150000D03*
X121650000Y-111150000D03*
X119110000Y-111150000D03*
X120750000Y-115000000D03*
X119110000Y-116230000D03*
D18*
X158820000Y-129100000D03*
D19*
X156280000Y-129100000D03*
X153740000Y-129100000D03*
X151200000Y-129100000D03*
D18*
X185920000Y-129100000D03*
D19*
X183380000Y-129100000D03*
X180840000Y-129100000D03*
X178300000Y-129100000D03*
D22*
X114012500Y-117486000D03*
X108012500Y-117486000D03*
D23*
X111512500Y-112836000D03*
D20*
X217080000Y-125120000D03*
X214540000Y-125120000D03*
X212000000Y-125120000D03*
X217080000Y-109880000D03*
X209460000Y-125120000D03*
X206920000Y-125120000D03*
D21*
X222160000Y-109880000D03*
D20*
X204380000Y-125120000D03*
X201840000Y-125120000D03*
X201840000Y-109880000D03*
X204380000Y-109880000D03*
X206920000Y-109880000D03*
X209460000Y-109880000D03*
X212000000Y-109880000D03*
X214500000Y-109880000D03*
X219620000Y-109880000D03*
X219620000Y-125120000D03*
X222160000Y-125120000D03*
X173110000Y-113690000D03*
D21*
X190890000Y-123850000D03*
D20*
X188350000Y-123850000D03*
X185810000Y-123850000D03*
X183270000Y-123850000D03*
X180730000Y-123850000D03*
X178190000Y-123850000D03*
X175650000Y-123850000D03*
X173110000Y-123850000D03*
X190890000Y-111150000D03*
X188350000Y-111150000D03*
X185810000Y-111150000D03*
X183270000Y-111150000D03*
X180730000Y-111150000D03*
X178190000Y-111150000D03*
X175650000Y-111150000D03*
X173110000Y-111150000D03*
X174750000Y-115000000D03*
X173110000Y-116230000D03*
X146110000Y-113690000D03*
D21*
X163890000Y-123850000D03*
D20*
X161350000Y-123850000D03*
X158810000Y-123850000D03*
X156270000Y-123850000D03*
X153730000Y-123850000D03*
X151190000Y-123850000D03*
X148650000Y-123850000D03*
X146110000Y-123850000D03*
X163890000Y-111150000D03*
X161350000Y-111150000D03*
X158810000Y-111150000D03*
X156270000Y-111150000D03*
X153730000Y-111150000D03*
X151190000Y-111150000D03*
X148650000Y-111150000D03*
X146110000Y-111150000D03*
X147750000Y-115000000D03*
X146110000Y-116230000D03*
D24*
X160464000Y-112804000D02*
X166140366Y-112804000D01*
X124190000Y-109686000D02*
X124000000Y-109496000D01*
X136890000Y-123850000D02*
X136890000Y-127565000D01*
X121500000Y-129000000D02*
X121500000Y-126500000D01*
X121500000Y-126500000D02*
X121500000Y-124000000D01*
X137575110Y-112804000D02*
X144379110Y-106000000D01*
X111512500Y-112836000D02*
X111512500Y-109512500D01*
X216996000Y-112804000D02*
X217000000Y-112800000D01*
X166140366Y-112804000D02*
X172944366Y-106000000D01*
X175500000Y-129000000D02*
X175500000Y-129644874D01*
X114852500Y-109496000D02*
X122000000Y-109496000D01*
X190890000Y-128360000D02*
X190890000Y-123850000D01*
X219620000Y-109880000D02*
X219620000Y-112680000D01*
X111512500Y-112836000D02*
X114852500Y-109496000D01*
X148500000Y-129000000D02*
X148500000Y-129247374D01*
X124000000Y-109496000D02*
X130156000Y-109496000D01*
X138544000Y-122196000D02*
X146996000Y-122196000D01*
X104935000Y-107000000D02*
X104260000Y-107675000D01*
X178000000Y-110960000D02*
X178190000Y-111150000D01*
X123350000Y-130850000D02*
X121500000Y-129000000D01*
X175500000Y-129644874D02*
X176855126Y-131000000D01*
X146996000Y-122196000D02*
X148650000Y-123850000D01*
X109000000Y-107000000D02*
X104935000Y-107000000D01*
X148650000Y-109150000D02*
X148500000Y-109000000D01*
X148500000Y-129000000D02*
X148500000Y-126500000D01*
X133605000Y-130850000D02*
X123350000Y-130850000D01*
X111512500Y-109512500D02*
X109000000Y-107000000D01*
X121650000Y-109846000D02*
X122000000Y-109496000D01*
X131810000Y-111150000D02*
X133464000Y-112804000D01*
X136890000Y-123850000D02*
X138544000Y-122196000D01*
X148500000Y-129247374D02*
X150252626Y-131000000D01*
X178000000Y-109000000D02*
X178000000Y-110960000D01*
X153660000Y-106000000D02*
X158810000Y-111150000D01*
X111512500Y-114986000D02*
X114012500Y-117486000D01*
X121500000Y-124000000D02*
X121650000Y-123850000D01*
X175500000Y-124000000D02*
X175650000Y-123850000D01*
X130156000Y-109496000D02*
X131810000Y-111150000D01*
X122000000Y-109496000D02*
X124000000Y-109496000D01*
X175500000Y-129000000D02*
X175500000Y-126500000D01*
X136890000Y-127565000D02*
X133605000Y-130850000D01*
X175500000Y-126500000D02*
X175500000Y-124000000D01*
X121650000Y-111150000D02*
X121650000Y-109846000D01*
X163890000Y-127962500D02*
X163890000Y-123850000D01*
X150252626Y-131000000D02*
X160852500Y-131000000D01*
X148500000Y-124000000D02*
X148650000Y-123850000D01*
X217000000Y-112800000D02*
X219500000Y-112800000D01*
X111512500Y-112836000D02*
X111512500Y-114986000D01*
X148500000Y-126500000D02*
X148500000Y-124000000D01*
X175650000Y-123850000D02*
X173996000Y-122196000D01*
X188250000Y-131000000D02*
X190890000Y-128360000D01*
X219620000Y-112680000D02*
X219500000Y-112800000D01*
X173996000Y-122196000D02*
X165544000Y-122196000D01*
X180660000Y-106000000D02*
X185810000Y-111150000D01*
X160852500Y-131000000D02*
X163890000Y-127962500D01*
X144379110Y-106000000D02*
X153660000Y-106000000D01*
X148500000Y-109000000D02*
X148500000Y-111000000D01*
X176855126Y-131000000D02*
X188250000Y-131000000D01*
X187464000Y-112804000D02*
X216996000Y-112804000D01*
X133464000Y-112804000D02*
X137575110Y-112804000D01*
X165544000Y-122196000D02*
X163890000Y-123850000D01*
X158810000Y-111150000D02*
X160464000Y-112804000D01*
X185810000Y-111150000D02*
X187464000Y-112804000D01*
X124190000Y-111150000D02*
X124190000Y-109686000D01*
X148500000Y-111000000D02*
X148650000Y-111150000D01*
X172944366Y-106000000D02*
X180660000Y-106000000D01*
D25*
X188000000Y-124200000D02*
X188350000Y-123850000D01*
X181744000Y-114704000D02*
X206782680Y-114704000D01*
X213400000Y-115800000D02*
X212760660Y-116439340D01*
X189704000Y-122496000D02*
X197301154Y-122496000D01*
X188350000Y-123850000D02*
X188350000Y-126150000D01*
X219500000Y-117630680D02*
X219500000Y-115800000D01*
X181740000Y-114700000D02*
X181744000Y-114704000D01*
X158000000Y-120500000D02*
X161350000Y-123850000D01*
X166845154Y-115500000D02*
X172549154Y-109796000D01*
X218434000Y-108526000D02*
X223514000Y-108526000D01*
X134350000Y-123850000D02*
X134350000Y-126150000D01*
X155540000Y-115500000D02*
X166845154Y-115500000D01*
X217000000Y-115800000D02*
X219500000Y-115800000D01*
X175650000Y-111150000D02*
X179200000Y-114700000D01*
X161350000Y-123850000D02*
X161350000Y-126150000D01*
X210939340Y-118560660D02*
X210939340Y-118760660D01*
X185000000Y-120500000D02*
X188350000Y-123850000D01*
X161350000Y-123850000D02*
X164700000Y-120500000D01*
X223514000Y-108526000D02*
X223514000Y-111786000D01*
X222720846Y-126474000D02*
X223514000Y-125680846D01*
X174296000Y-109796000D02*
X172549154Y-109796000D01*
X175650000Y-111150000D02*
X174296000Y-109796000D01*
X217000000Y-115800000D02*
X213400000Y-115800000D01*
X217080000Y-109880000D02*
X218434000Y-108526000D01*
X134350000Y-123850000D02*
X137700000Y-120500000D01*
X188350000Y-123850000D02*
X189704000Y-122496000D01*
X223514000Y-121644680D02*
X219500000Y-117630680D01*
X206782680Y-114704000D02*
X210639340Y-118560660D01*
X223514000Y-125680846D02*
X223514000Y-121644680D01*
X161350000Y-126150000D02*
X161000000Y-126500000D01*
X201279154Y-126474000D02*
X222720846Y-126474000D01*
X188350000Y-126150000D02*
X188000000Y-126500000D01*
X151190000Y-111150000D02*
X155540000Y-115500000D01*
X197301154Y-122496000D02*
X201279154Y-126474000D01*
X134350000Y-126150000D02*
X134000000Y-126500000D01*
X137700000Y-120500000D02*
X158000000Y-120500000D01*
X164700000Y-120500000D02*
X185000000Y-120500000D01*
X179200000Y-114700000D02*
X181740000Y-114700000D01*
X213060660Y-116439340D02*
X213060660Y-116639340D01*
X223514000Y-111786000D02*
X219500000Y-115800000D01*
D24*
X104260000Y-113733500D02*
X108012500Y-117486000D01*
X145500000Y-129000000D02*
X145500000Y-126500000D01*
X118500000Y-124460000D02*
X119110000Y-123850000D01*
X118500000Y-126500000D02*
X118500000Y-124460000D01*
X172500000Y-129000000D02*
X169000000Y-132500000D01*
X143152500Y-132500000D02*
X122000000Y-132500000D01*
X145500000Y-130152500D02*
X147847500Y-132500000D01*
X104260000Y-112875000D02*
X104260000Y-113733500D01*
X172500000Y-124460000D02*
X173110000Y-123850000D01*
X145500000Y-124460000D02*
X146110000Y-123850000D01*
X122000000Y-132500000D02*
X118500000Y-129000000D01*
X147847500Y-132500000D02*
X169000000Y-132500000D01*
X114376500Y-123850000D02*
X119110000Y-123850000D01*
X104260000Y-112875000D02*
X106125000Y-112875000D01*
X145500000Y-130152500D02*
X143152500Y-132500000D01*
X106125000Y-112875000D02*
X109000000Y-110000000D01*
X172500000Y-126500000D02*
X172500000Y-124460000D01*
X118500000Y-129000000D02*
X118500000Y-126500000D01*
X145500000Y-126500000D02*
X145500000Y-124460000D01*
X145500000Y-129000000D02*
X145500000Y-130152500D01*
X108012500Y-117486000D02*
X114376500Y-123850000D01*
X172500000Y-129000000D02*
X172500000Y-126500000D01*
D25*
X181408629Y-115500000D02*
X177460000Y-115500000D01*
X151460000Y-116500000D02*
X167760000Y-116500000D01*
X209460000Y-121581320D02*
X206439340Y-118560660D01*
X209460000Y-125120000D02*
X209460000Y-121581320D01*
X146110000Y-111150000D02*
X151460000Y-116500000D01*
X203382680Y-115504000D02*
X181412630Y-115504000D01*
X119110000Y-111150000D02*
X123460000Y-115500000D01*
X206439340Y-118560660D02*
X203382680Y-115504000D01*
X141760000Y-115500000D02*
X146110000Y-111150000D01*
X123460000Y-115500000D02*
X141760000Y-115500000D01*
X177460000Y-115500000D02*
X173110000Y-111150000D01*
X181412630Y-115504000D02*
X181408629Y-115500000D01*
X206439340Y-118560660D02*
X206439340Y-118439340D01*
X167760000Y-116500000D02*
X173110000Y-111150000D01*
X217080000Y-125120000D02*
X217080000Y-120520000D01*
X217500000Y-120450000D02*
X217550000Y-120500000D01*
X217080000Y-120520000D02*
X217300000Y-120300000D01*
X183484000Y-113904000D02*
X180730000Y-111150000D01*
X214450000Y-120150000D02*
X214300000Y-120300000D01*
X173000000Y-107500000D02*
X179100000Y-107500000D01*
X214540000Y-125120000D02*
X214300000Y-124880000D01*
X150080000Y-107500000D02*
X144434745Y-107500000D01*
X214540000Y-120540000D02*
X214300000Y-120300000D01*
X179100000Y-107500000D02*
X180730000Y-109130000D01*
X144434745Y-107500000D02*
X138030745Y-113904000D01*
X153730000Y-111150000D02*
X157080000Y-114500000D01*
X214300000Y-120100000D02*
X208104000Y-113904000D01*
X166000000Y-114500000D02*
X173000000Y-107500000D01*
X138030745Y-113904000D02*
X129484000Y-113904000D01*
X214540000Y-125120000D02*
X214540000Y-120540000D01*
X129484000Y-113904000D02*
X126730000Y-111150000D01*
X157080000Y-114500000D02*
X166000000Y-114500000D01*
X214300000Y-120300000D02*
X214300000Y-120100000D01*
X214450000Y-119950000D02*
X214450000Y-120150000D01*
X180730000Y-109130000D02*
X180730000Y-111150000D01*
X208104000Y-113904000D02*
X183484000Y-113904000D01*
X153730000Y-111150000D02*
X150080000Y-107500000D01*
X131850000Y-123890000D02*
X131810000Y-123850000D01*
D24*
X131810000Y-129090000D02*
X131820000Y-129100000D01*
X131810000Y-123850000D02*
X131810000Y-129090000D01*
X129270000Y-129090000D02*
X129280000Y-129100000D01*
X129270000Y-123850000D02*
X129270000Y-129090000D01*
D25*
X129310000Y-123890000D02*
X129270000Y-123850000D01*
D24*
X126730000Y-129090000D02*
X126740000Y-129100000D01*
D25*
X126770000Y-123890000D02*
X126730000Y-123850000D01*
D24*
X126730000Y-123850000D02*
X126730000Y-129090000D01*
X124190000Y-129090000D02*
X124200000Y-129100000D01*
X124190000Y-123850000D02*
X124190000Y-129090000D01*
D25*
X124230000Y-123890000D02*
X124190000Y-123850000D01*
X212000000Y-109880000D02*
X205220000Y-103100000D01*
X144940000Y-103100000D02*
X136890000Y-111150000D01*
X205220000Y-103100000D02*
X144940000Y-103100000D01*
X134350000Y-111150000D02*
X143200000Y-102300000D01*
X206920000Y-102300000D02*
X214500000Y-109880000D01*
X143200000Y-102300000D02*
X206920000Y-102300000D01*
X121380000Y-118500000D02*
X195220000Y-118500000D01*
X119110000Y-116230000D02*
X121380000Y-118500000D01*
X195220000Y-118500000D02*
X201840000Y-125120000D01*
X158850000Y-123890000D02*
X158810000Y-123850000D01*
D24*
X158810000Y-129090000D02*
X158820000Y-129100000D01*
X158810000Y-123850000D02*
X158810000Y-129090000D01*
X156270000Y-123850000D02*
X156270000Y-129090000D01*
X156270000Y-129090000D02*
X156280000Y-129100000D01*
D25*
X153770000Y-123890000D02*
X153730000Y-123850000D01*
D24*
X153730000Y-129090000D02*
X153740000Y-129100000D01*
X153730000Y-123850000D02*
X153730000Y-129090000D01*
X151190000Y-123850000D02*
X151190000Y-129090000D01*
D25*
X151230000Y-123890000D02*
X151190000Y-123850000D01*
D24*
X151190000Y-129090000D02*
X151200000Y-129100000D01*
X185810000Y-128990000D02*
X185920000Y-129100000D01*
D25*
X185850000Y-123890000D02*
X185810000Y-123850000D01*
D24*
X185810000Y-123850000D02*
X185810000Y-128990000D01*
X183270000Y-123850000D02*
X183270000Y-128990000D01*
D25*
X183310000Y-123890000D02*
X183270000Y-123850000D01*
D24*
X183270000Y-128990000D02*
X183380000Y-129100000D01*
D25*
X180770000Y-123890000D02*
X180730000Y-123850000D01*
D24*
X180730000Y-123850000D02*
X180730000Y-128990000D01*
X180730000Y-128990000D02*
X180840000Y-129100000D01*
X178190000Y-128990000D02*
X178300000Y-129100000D01*
X178190000Y-123850000D02*
X178190000Y-128990000D01*
D25*
X178230000Y-129170000D02*
X178300000Y-129100000D01*
X178300000Y-123960000D02*
X178190000Y-123850000D01*
X206920000Y-125120000D02*
X198300000Y-116500000D01*
X173380000Y-116500000D02*
X173110000Y-116230000D01*
X198300000Y-116500000D02*
X173380000Y-116500000D01*
X204380000Y-125120000D02*
X196844000Y-117584000D01*
X196844000Y-117584000D02*
X147464000Y-117584000D01*
X147464000Y-117584000D02*
X146110000Y-116230000D01*
X190890000Y-111150000D02*
X192160000Y-109880000D01*
X192160000Y-109880000D02*
X201840000Y-109880000D01*
X191000000Y-108500000D02*
X188350000Y-111150000D01*
X204380000Y-109880000D02*
X203000000Y-108500000D01*
X203000000Y-108500000D02*
X191000000Y-108500000D01*
X163890000Y-111150000D02*
X170340000Y-104700000D01*
X201740000Y-104700000D02*
X206920000Y-109880000D01*
X170340000Y-104700000D02*
X201740000Y-104700000D01*
X168600000Y-103900000D02*
X161350000Y-111150000D01*
X203480000Y-103900000D02*
X168600000Y-103900000D01*
X209460000Y-109880000D02*
X203480000Y-103900000D01*
%TA.AperFunction,Conductor*%
G36*
X157725520Y-121220185D02*
G01*
X157746162Y-121236819D01*
X158893162Y-122383819D01*
X158926647Y-122445142D01*
X158921663Y-122514834D01*
X158879791Y-122570767D01*
X158814327Y-122595184D01*
X158805481Y-122595500D01*
X158711264Y-122595500D01*
X158516236Y-122626389D01*
X158328441Y-122687408D01*
X158152495Y-122777058D01*
X157992753Y-122893115D01*
X157853115Y-123032753D01*
X157737058Y-123192495D01*
X157737056Y-123192499D01*
X157656805Y-123350000D01*
X157650485Y-123362403D01*
X157602510Y-123413199D01*
X157534689Y-123429994D01*
X157468554Y-123407456D01*
X157429515Y-123362403D01*
X157342944Y-123192499D01*
X157317159Y-123157009D01*
X157226884Y-123032753D01*
X157087246Y-122893115D01*
X156927504Y-122777058D01*
X156927503Y-122777057D01*
X156927501Y-122777056D01*
X156751561Y-122687409D01*
X156751558Y-122687408D01*
X156563763Y-122626389D01*
X156368736Y-122595500D01*
X156368731Y-122595500D01*
X156171269Y-122595500D01*
X156171264Y-122595500D01*
X155976236Y-122626389D01*
X155788441Y-122687408D01*
X155612495Y-122777058D01*
X155452753Y-122893115D01*
X155313115Y-123032753D01*
X155197058Y-123192495D01*
X155197056Y-123192499D01*
X155116805Y-123350000D01*
X155110485Y-123362403D01*
X155062510Y-123413199D01*
X154994689Y-123429994D01*
X154928554Y-123407456D01*
X154889515Y-123362403D01*
X154802944Y-123192499D01*
X154777159Y-123157009D01*
X154686884Y-123032753D01*
X154547246Y-122893115D01*
X154387504Y-122777058D01*
X154387503Y-122777057D01*
X154387501Y-122777056D01*
X154211561Y-122687409D01*
X154211558Y-122687408D01*
X154023763Y-122626389D01*
X153828736Y-122595500D01*
X153828731Y-122595500D01*
X153631269Y-122595500D01*
X153631264Y-122595500D01*
X153436236Y-122626389D01*
X153248441Y-122687408D01*
X153072495Y-122777058D01*
X152912753Y-122893115D01*
X152773115Y-123032753D01*
X152657058Y-123192495D01*
X152657056Y-123192499D01*
X152576805Y-123350000D01*
X152570485Y-123362403D01*
X152522510Y-123413199D01*
X152454689Y-123429994D01*
X152388554Y-123407456D01*
X152349515Y-123362403D01*
X152262944Y-123192499D01*
X152237159Y-123157009D01*
X152146884Y-123032753D01*
X152007246Y-122893115D01*
X151847504Y-122777058D01*
X151847503Y-122777057D01*
X151847501Y-122777056D01*
X151671561Y-122687409D01*
X151671558Y-122687408D01*
X151483763Y-122626389D01*
X151288736Y-122595500D01*
X151288731Y-122595500D01*
X151091269Y-122595500D01*
X151091264Y-122595500D01*
X150896236Y-122626389D01*
X150708441Y-122687408D01*
X150532495Y-122777058D01*
X150372753Y-122893115D01*
X150233115Y-123032753D01*
X150117058Y-123192495D01*
X150117056Y-123192499D01*
X150030203Y-123362954D01*
X149982230Y-123413749D01*
X149914409Y-123430544D01*
X149848274Y-123408006D01*
X149809235Y-123362953D01*
X149722520Y-123192768D01*
X149722512Y-123192755D01*
X149696542Y-123157010D01*
X149696541Y-123157009D01*
X149132962Y-123720589D01*
X149115925Y-123657007D01*
X149050099Y-123542993D01*
X148957007Y-123449901D01*
X148842993Y-123384075D01*
X148779409Y-123367037D01*
X149342989Y-122803457D01*
X149307239Y-122777483D01*
X149131373Y-122687873D01*
X148943646Y-122626876D01*
X148748697Y-122596000D01*
X148551303Y-122596000D01*
X148356353Y-122626876D01*
X148168626Y-122687873D01*
X147992762Y-122777482D01*
X147992760Y-122777483D01*
X147957010Y-122803456D01*
X147957010Y-122803457D01*
X148520591Y-123367037D01*
X148457007Y-123384075D01*
X148342993Y-123449901D01*
X148249901Y-123542993D01*
X148184075Y-123657007D01*
X148167037Y-123720590D01*
X147603457Y-123157010D01*
X147603456Y-123157010D01*
X147577483Y-123192760D01*
X147577479Y-123192767D01*
X147490763Y-123362954D01*
X147442788Y-123413749D01*
X147374967Y-123430544D01*
X147308833Y-123408006D01*
X147269798Y-123362957D01*
X147182944Y-123192499D01*
X147182942Y-123192496D01*
X147182941Y-123192494D01*
X147066884Y-123032753D01*
X146927246Y-122893115D01*
X146767504Y-122777058D01*
X146767503Y-122777057D01*
X146767501Y-122777056D01*
X146591561Y-122687409D01*
X146591558Y-122687408D01*
X146403763Y-122626389D01*
X146208736Y-122595500D01*
X146208731Y-122595500D01*
X146011269Y-122595500D01*
X146011264Y-122595500D01*
X145816236Y-122626389D01*
X145628441Y-122687408D01*
X145452495Y-122777058D01*
X145292753Y-122893115D01*
X145153115Y-123032753D01*
X145037058Y-123192495D01*
X144947408Y-123368441D01*
X144886390Y-123556232D01*
X144886390Y-123556234D01*
X144873411Y-123638177D01*
X144843481Y-123701312D01*
X144838619Y-123706459D01*
X144722863Y-123822214D01*
X144722860Y-123822217D01*
X144613371Y-123986080D01*
X144613364Y-123986093D01*
X144570494Y-124089592D01*
X144570490Y-124089603D01*
X144568533Y-124094329D01*
X144537949Y-124168164D01*
X144527278Y-124221812D01*
X144525901Y-124228732D01*
X144525899Y-124228740D01*
X144499500Y-124361456D01*
X144499500Y-125358561D01*
X144479815Y-125425600D01*
X144474767Y-125432872D01*
X144456204Y-125457668D01*
X144456202Y-125457671D01*
X144405908Y-125592517D01*
X144399501Y-125652116D01*
X144399501Y-125652123D01*
X144399500Y-125652135D01*
X144399500Y-127347870D01*
X144399501Y-127347876D01*
X144405908Y-127407483D01*
X144456203Y-127542329D01*
X144474766Y-127567126D01*
X144482504Y-127587874D01*
X144494477Y-127606503D01*
X144497628Y-127628418D01*
X144499184Y-127632590D01*
X144499500Y-127641438D01*
X144499500Y-127858561D01*
X144479815Y-127925600D01*
X144474767Y-127932872D01*
X144456204Y-127957668D01*
X144456202Y-127957671D01*
X144405908Y-128092517D01*
X144401960Y-128129242D01*
X144399501Y-128152123D01*
X144399500Y-128152135D01*
X144399500Y-129786716D01*
X144379815Y-129853755D01*
X144363181Y-129874397D01*
X142774399Y-131463181D01*
X142713076Y-131496666D01*
X142686718Y-131499500D01*
X122465783Y-131499500D01*
X122398744Y-131479815D01*
X122378102Y-131463181D01*
X121286319Y-130371398D01*
X121252834Y-130310075D01*
X121251751Y-130300000D01*
X121750000Y-130300000D01*
X122147828Y-130300000D01*
X122147844Y-130299999D01*
X122207372Y-130293598D01*
X122207379Y-130293596D01*
X122342086Y-130243354D01*
X122342093Y-130243350D01*
X122457187Y-130157190D01*
X122457190Y-130157187D01*
X122543350Y-130042093D01*
X122543354Y-130042086D01*
X122593596Y-129907379D01*
X122593598Y-129907372D01*
X122599999Y-129847844D01*
X122600000Y-129847827D01*
X122600000Y-129250000D01*
X121750000Y-129250000D01*
X121750000Y-130300000D01*
X121251751Y-130300000D01*
X121250000Y-130283717D01*
X121250000Y-129250000D01*
X120400000Y-129250000D01*
X120370141Y-129279859D01*
X120308817Y-129313343D01*
X120239126Y-129308358D01*
X120194779Y-129279858D01*
X119636818Y-128721897D01*
X119603333Y-128660574D01*
X119600499Y-128634216D01*
X119600499Y-128152129D01*
X119600498Y-128152123D01*
X119600497Y-128152116D01*
X119594091Y-128092517D01*
X119562444Y-128007668D01*
X119543797Y-127957671D01*
X119543795Y-127957668D01*
X119525233Y-127932872D01*
X119517494Y-127912123D01*
X119505523Y-127893496D01*
X119502371Y-127871579D01*
X119500816Y-127867408D01*
X119500500Y-127858561D01*
X119500500Y-127641438D01*
X119520185Y-127574399D01*
X119525234Y-127567126D01*
X119543796Y-127542331D01*
X119543888Y-127542086D01*
X119594091Y-127407482D01*
X119594103Y-127407372D01*
X119600500Y-127347873D01*
X119600500Y-127347844D01*
X120400000Y-127347844D01*
X120406401Y-127407372D01*
X120406403Y-127407379D01*
X120456645Y-127542086D01*
X120456649Y-127542093D01*
X120542809Y-127657187D01*
X120547941Y-127662319D01*
X120581426Y-127723642D01*
X120576442Y-127793334D01*
X120547941Y-127837681D01*
X120542809Y-127842812D01*
X120456649Y-127957906D01*
X120456645Y-127957913D01*
X120406403Y-128092620D01*
X120406401Y-128092627D01*
X120400000Y-128152155D01*
X120400000Y-128750000D01*
X121250000Y-128750000D01*
X121750000Y-128750000D01*
X122600000Y-128750000D01*
X122600000Y-128152172D01*
X122599999Y-128152155D01*
X122593598Y-128092627D01*
X122593596Y-128092620D01*
X122543354Y-127957913D01*
X122543350Y-127957906D01*
X122457190Y-127842812D01*
X122452059Y-127837681D01*
X122418574Y-127776358D01*
X122423558Y-127706666D01*
X122452059Y-127662319D01*
X122457190Y-127657187D01*
X122543350Y-127542093D01*
X122543354Y-127542086D01*
X122593596Y-127407379D01*
X122593598Y-127407372D01*
X122599999Y-127347844D01*
X122600000Y-127347827D01*
X122600000Y-126750000D01*
X121750000Y-126750000D01*
X121750000Y-128750000D01*
X121250000Y-128750000D01*
X121250000Y-126750000D01*
X120400000Y-126750000D01*
X120400000Y-127347844D01*
X119600500Y-127347844D01*
X119600499Y-126250000D01*
X119600499Y-125652129D01*
X119600498Y-125652123D01*
X119600497Y-125652116D01*
X119594091Y-125592517D01*
X119543884Y-125457906D01*
X119543797Y-125457671D01*
X119543795Y-125457668D01*
X119540503Y-125453271D01*
X119525233Y-125432872D01*
X119517494Y-125412123D01*
X119505523Y-125393496D01*
X119502371Y-125371579D01*
X119500816Y-125367408D01*
X119500500Y-125358561D01*
X119500500Y-125132270D01*
X119520185Y-125065231D01*
X119572989Y-125019476D01*
X119586183Y-125014339D01*
X119591555Y-125012593D01*
X119591555Y-125012592D01*
X119591561Y-125012591D01*
X119767501Y-124922944D01*
X119861615Y-124854567D01*
X119927246Y-124806884D01*
X119927248Y-124806881D01*
X119927252Y-124806879D01*
X120066879Y-124667252D01*
X120066881Y-124667248D01*
X120066884Y-124667246D01*
X120182943Y-124507502D01*
X120183079Y-124507236D01*
X120269797Y-124337043D01*
X120317768Y-124286250D01*
X120385589Y-124269455D01*
X120451724Y-124291992D01*
X120490763Y-124337045D01*
X120577481Y-124507236D01*
X120603457Y-124542988D01*
X120603457Y-124542989D01*
X121167037Y-123979409D01*
X121184075Y-124042993D01*
X121249901Y-124157007D01*
X121342993Y-124250099D01*
X121457007Y-124315925D01*
X121520590Y-124332962D01*
X120957009Y-124896541D01*
X120957010Y-124896542D01*
X120992755Y-124922512D01*
X120992768Y-124922520D01*
X121077149Y-124965515D01*
X121127945Y-125013490D01*
X121144740Y-125081311D01*
X121122202Y-125147446D01*
X121067487Y-125190897D01*
X121020854Y-125200000D01*
X120852155Y-125200000D01*
X120792627Y-125206401D01*
X120792620Y-125206403D01*
X120657913Y-125256645D01*
X120657906Y-125256649D01*
X120542812Y-125342809D01*
X120542809Y-125342812D01*
X120456649Y-125457906D01*
X120456645Y-125457913D01*
X120406403Y-125592620D01*
X120406401Y-125592627D01*
X120400000Y-125652155D01*
X120400000Y-126250000D01*
X122600000Y-126250000D01*
X122600000Y-125652172D01*
X122599999Y-125652155D01*
X122593598Y-125592627D01*
X122593596Y-125592620D01*
X122543354Y-125457913D01*
X122543350Y-125457906D01*
X122457190Y-125342812D01*
X122457187Y-125342809D01*
X122342093Y-125256649D01*
X122342088Y-125256646D01*
X122207681Y-125206515D01*
X122151748Y-125164643D01*
X122127331Y-125099179D01*
X122142183Y-125030906D01*
X122191588Y-124981501D01*
X122194721Y-124979848D01*
X122307237Y-124922518D01*
X122307240Y-124922516D01*
X122342988Y-124896543D01*
X122342988Y-124896541D01*
X121779410Y-124332962D01*
X121842993Y-124315925D01*
X121957007Y-124250099D01*
X122050099Y-124157007D01*
X122115925Y-124042993D01*
X122132962Y-123979409D01*
X122696541Y-124542988D01*
X122696543Y-124542988D01*
X122722516Y-124507241D01*
X122809235Y-124337046D01*
X122857210Y-124286250D01*
X122925031Y-124269455D01*
X122991165Y-124291992D01*
X123030202Y-124337042D01*
X123117056Y-124507501D01*
X123165818Y-124574617D01*
X123189298Y-124640421D01*
X123189500Y-124647501D01*
X123189500Y-128152934D01*
X123169815Y-128219973D01*
X123165819Y-128225819D01*
X123044948Y-128392184D01*
X122948444Y-128581585D01*
X122882753Y-128783760D01*
X122849500Y-128993713D01*
X122849500Y-129206286D01*
X122882753Y-129416239D01*
X122948444Y-129618414D01*
X123044951Y-129807820D01*
X123169890Y-129979786D01*
X123320213Y-130130109D01*
X123492179Y-130255048D01*
X123492181Y-130255049D01*
X123492184Y-130255051D01*
X123681588Y-130351557D01*
X123883757Y-130417246D01*
X124093713Y-130450500D01*
X124093714Y-130450500D01*
X124306286Y-130450500D01*
X124306287Y-130450500D01*
X124516243Y-130417246D01*
X124718412Y-130351557D01*
X124907816Y-130255051D01*
X124972454Y-130208089D01*
X125079786Y-130130109D01*
X125079788Y-130130106D01*
X125079792Y-130130104D01*
X125230104Y-129979792D01*
X125230106Y-129979788D01*
X125230109Y-129979786D01*
X125355048Y-129807820D01*
X125355047Y-129807820D01*
X125355051Y-129807816D01*
X125359514Y-129799054D01*
X125407488Y-129748259D01*
X125475308Y-129731463D01*
X125541444Y-129753999D01*
X125580486Y-129799056D01*
X125584951Y-129807820D01*
X125709890Y-129979786D01*
X125860213Y-130130109D01*
X126032179Y-130255048D01*
X126032181Y-130255049D01*
X126032184Y-130255051D01*
X126221588Y-130351557D01*
X126423757Y-130417246D01*
X126633713Y-130450500D01*
X126633714Y-130450500D01*
X126846286Y-130450500D01*
X126846287Y-130450500D01*
X127056243Y-130417246D01*
X127258412Y-130351557D01*
X127447816Y-130255051D01*
X127512454Y-130208089D01*
X127619786Y-130130109D01*
X127619788Y-130130106D01*
X127619792Y-130130104D01*
X127770104Y-129979792D01*
X127770106Y-129979788D01*
X127770109Y-129979786D01*
X127895048Y-129807820D01*
X127895047Y-129807820D01*
X127895051Y-129807816D01*
X127899514Y-129799054D01*
X127947488Y-129748259D01*
X128015308Y-129731463D01*
X128081444Y-129753999D01*
X128120486Y-129799056D01*
X128124951Y-129807820D01*
X128249890Y-129979786D01*
X128400213Y-130130109D01*
X128572179Y-130255048D01*
X128572181Y-130255049D01*
X128572184Y-130255051D01*
X128761588Y-130351557D01*
X128963757Y-130417246D01*
X129173713Y-130450500D01*
X129173714Y-130450500D01*
X129386286Y-130450500D01*
X129386287Y-130450500D01*
X129596243Y-130417246D01*
X129798412Y-130351557D01*
X129987816Y-130255051D01*
X130159792Y-130130104D01*
X130273329Y-130016566D01*
X130334648Y-129983084D01*
X130404340Y-129988068D01*
X130460274Y-130029939D01*
X130477189Y-130060917D01*
X130526202Y-130192328D01*
X130526206Y-130192335D01*
X130612452Y-130307544D01*
X130612455Y-130307547D01*
X130727664Y-130393793D01*
X130727671Y-130393797D01*
X130862517Y-130444091D01*
X130862516Y-130444091D01*
X130869444Y-130444835D01*
X130922127Y-130450500D01*
X132717872Y-130450499D01*
X132777483Y-130444091D01*
X132912331Y-130393796D01*
X133027546Y-130307546D01*
X133113796Y-130192331D01*
X133164091Y-130057483D01*
X133170500Y-129997873D01*
X133170499Y-128202128D01*
X133164091Y-128142517D01*
X133162810Y-128139083D01*
X133113797Y-128007671D01*
X133113795Y-128007668D01*
X133076548Y-127957913D01*
X133075828Y-127956951D01*
X133051411Y-127891487D01*
X133066262Y-127823214D01*
X133115667Y-127773808D01*
X133183940Y-127758956D01*
X133218428Y-127766458D01*
X133292517Y-127794091D01*
X133292516Y-127794091D01*
X133299444Y-127794835D01*
X133352127Y-127800500D01*
X134647872Y-127800499D01*
X134707483Y-127794091D01*
X134842331Y-127743796D01*
X134957546Y-127657546D01*
X135043796Y-127542331D01*
X135094091Y-127407483D01*
X135100500Y-127347873D01*
X135100500Y-127347844D01*
X135900000Y-127347844D01*
X135906401Y-127407372D01*
X135906403Y-127407379D01*
X135956645Y-127542086D01*
X135956649Y-127542093D01*
X136042809Y-127657187D01*
X136042812Y-127657190D01*
X136157906Y-127743350D01*
X136157913Y-127743354D01*
X136292620Y-127793596D01*
X136292627Y-127793598D01*
X136352155Y-127799999D01*
X136352172Y-127800000D01*
X136750000Y-127800000D01*
X137250000Y-127800000D01*
X137647828Y-127800000D01*
X137647844Y-127799999D01*
X137707372Y-127793598D01*
X137707379Y-127793596D01*
X137842086Y-127743354D01*
X137842093Y-127743350D01*
X137957187Y-127657190D01*
X137957190Y-127657187D01*
X138043350Y-127542093D01*
X138043354Y-127542086D01*
X138093596Y-127407379D01*
X138093598Y-127407372D01*
X138099999Y-127347844D01*
X138100000Y-127347827D01*
X138100000Y-126750000D01*
X137250000Y-126750000D01*
X137250000Y-127800000D01*
X136750000Y-127800000D01*
X136750000Y-126750000D01*
X135900000Y-126750000D01*
X135900000Y-127347844D01*
X135100500Y-127347844D01*
X135100499Y-126250000D01*
X135100499Y-125652129D01*
X135100498Y-125652123D01*
X135100497Y-125652116D01*
X135094091Y-125592517D01*
X135058318Y-125496604D01*
X135050500Y-125453271D01*
X135050500Y-124954885D01*
X135070185Y-124887846D01*
X135101615Y-124854567D01*
X135167248Y-124806882D01*
X135167248Y-124806881D01*
X135167252Y-124806879D01*
X135306879Y-124667252D01*
X135411683Y-124523000D01*
X135467011Y-124480336D01*
X135536624Y-124474357D01*
X135598420Y-124506962D01*
X135632777Y-124567800D01*
X135636000Y-124595887D01*
X135636000Y-124651844D01*
X135642401Y-124711372D01*
X135642403Y-124711379D01*
X135692645Y-124846086D01*
X135692649Y-124846093D01*
X135778809Y-124961187D01*
X135778812Y-124961190D01*
X135893906Y-125047350D01*
X135893913Y-125047354D01*
X136028621Y-125097597D01*
X136030250Y-125097982D01*
X136031383Y-125098627D01*
X136035892Y-125100309D01*
X136035619Y-125101039D01*
X136090968Y-125132553D01*
X136123356Y-125194462D01*
X136117132Y-125264054D01*
X136076053Y-125317925D01*
X136042811Y-125342810D01*
X136042809Y-125342812D01*
X135956649Y-125457906D01*
X135956645Y-125457913D01*
X135906403Y-125592620D01*
X135906401Y-125592627D01*
X135900000Y-125652155D01*
X135900000Y-126250000D01*
X136750000Y-126250000D01*
X136750000Y-125234000D01*
X136744180Y-125228180D01*
X136696961Y-125214315D01*
X136651206Y-125161511D01*
X136640000Y-125110000D01*
X136640000Y-124283012D01*
X136697007Y-124315925D01*
X136824174Y-124350000D01*
X136955826Y-124350000D01*
X137082993Y-124315925D01*
X137140000Y-124283012D01*
X137140000Y-125070000D01*
X137145819Y-125075819D01*
X137193039Y-125089685D01*
X137238794Y-125142489D01*
X137250000Y-125194000D01*
X137250000Y-126250000D01*
X138100000Y-126250000D01*
X138100000Y-125652172D01*
X138099999Y-125652155D01*
X138093598Y-125592627D01*
X138093596Y-125592620D01*
X138043354Y-125457913D01*
X138043350Y-125457906D01*
X137957190Y-125342812D01*
X137957187Y-125342809D01*
X137851907Y-125263996D01*
X137810036Y-125208062D01*
X137805052Y-125138371D01*
X137838538Y-125077048D01*
X137882889Y-125048547D01*
X137886085Y-125047354D01*
X137886093Y-125047350D01*
X138001187Y-124961190D01*
X138001190Y-124961187D01*
X138087350Y-124846093D01*
X138087354Y-124846086D01*
X138137596Y-124711379D01*
X138137598Y-124711372D01*
X138143999Y-124651844D01*
X138144000Y-124651827D01*
X138144000Y-124100000D01*
X137323012Y-124100000D01*
X137355925Y-124042993D01*
X137390000Y-123915826D01*
X137390000Y-123784174D01*
X137355925Y-123657007D01*
X137323012Y-123600000D01*
X138144000Y-123600000D01*
X138144000Y-123048172D01*
X138143999Y-123048155D01*
X138137598Y-122988627D01*
X138137596Y-122988620D01*
X138087354Y-122853913D01*
X138087350Y-122853906D01*
X138001190Y-122738812D01*
X138001187Y-122738809D01*
X137886093Y-122652649D01*
X137886086Y-122652645D01*
X137751379Y-122602403D01*
X137751372Y-122602401D01*
X137691844Y-122596000D01*
X137140000Y-122596000D01*
X137140000Y-123416988D01*
X137082993Y-123384075D01*
X136955826Y-123350000D01*
X136824174Y-123350000D01*
X136697007Y-123384075D01*
X136640000Y-123416988D01*
X136640000Y-122602018D01*
X136648644Y-122572577D01*
X136655168Y-122542591D01*
X136658922Y-122537575D01*
X136659685Y-122534979D01*
X136676319Y-122514337D01*
X137953837Y-121236819D01*
X138015160Y-121203334D01*
X138041518Y-121200500D01*
X157658481Y-121200500D01*
X157725520Y-121220185D01*
G37*
%TD.AperFunction*%
%TA.AperFunction,Conductor*%
G36*
X184725520Y-121220185D02*
G01*
X184746162Y-121236819D01*
X185893162Y-122383819D01*
X185926647Y-122445142D01*
X185921663Y-122514834D01*
X185879791Y-122570767D01*
X185814327Y-122595184D01*
X185805481Y-122595500D01*
X185711264Y-122595500D01*
X185516236Y-122626389D01*
X185328441Y-122687408D01*
X185152495Y-122777058D01*
X184992753Y-122893115D01*
X184853115Y-123032753D01*
X184737058Y-123192495D01*
X184737056Y-123192499D01*
X184656805Y-123350000D01*
X184650485Y-123362403D01*
X184602510Y-123413199D01*
X184534689Y-123429994D01*
X184468554Y-123407456D01*
X184429515Y-123362403D01*
X184342944Y-123192499D01*
X184317159Y-123157009D01*
X184226884Y-123032753D01*
X184087246Y-122893115D01*
X183927504Y-122777058D01*
X183927503Y-122777057D01*
X183927501Y-122777056D01*
X183751561Y-122687409D01*
X183751558Y-122687408D01*
X183563763Y-122626389D01*
X183368736Y-122595500D01*
X183368731Y-122595500D01*
X183171269Y-122595500D01*
X183171264Y-122595500D01*
X182976236Y-122626389D01*
X182788441Y-122687408D01*
X182612495Y-122777058D01*
X182452753Y-122893115D01*
X182313115Y-123032753D01*
X182197058Y-123192495D01*
X182197056Y-123192499D01*
X182116805Y-123350000D01*
X182110485Y-123362403D01*
X182062510Y-123413199D01*
X181994689Y-123429994D01*
X181928554Y-123407456D01*
X181889515Y-123362403D01*
X181802944Y-123192499D01*
X181777159Y-123157009D01*
X181686884Y-123032753D01*
X181547246Y-122893115D01*
X181387504Y-122777058D01*
X181387503Y-122777057D01*
X181387501Y-122777056D01*
X181211561Y-122687409D01*
X181211558Y-122687408D01*
X181023763Y-122626389D01*
X180828736Y-122595500D01*
X180828731Y-122595500D01*
X180631269Y-122595500D01*
X180631264Y-122595500D01*
X180436236Y-122626389D01*
X180248441Y-122687408D01*
X180072495Y-122777058D01*
X179912753Y-122893115D01*
X179773115Y-123032753D01*
X179657058Y-123192495D01*
X179657056Y-123192499D01*
X179576805Y-123350000D01*
X179570485Y-123362403D01*
X179522510Y-123413199D01*
X179454689Y-123429994D01*
X179388554Y-123407456D01*
X179349515Y-123362403D01*
X179262944Y-123192499D01*
X179237159Y-123157009D01*
X179146884Y-123032753D01*
X179007246Y-122893115D01*
X178847504Y-122777058D01*
X178847503Y-122777057D01*
X178847501Y-122777056D01*
X178671561Y-122687409D01*
X178671558Y-122687408D01*
X178483763Y-122626389D01*
X178288736Y-122595500D01*
X178288731Y-122595500D01*
X178091269Y-122595500D01*
X178091264Y-122595500D01*
X177896236Y-122626389D01*
X177708441Y-122687408D01*
X177532495Y-122777058D01*
X177372753Y-122893115D01*
X177233115Y-123032753D01*
X177117058Y-123192495D01*
X177117056Y-123192499D01*
X177030203Y-123362954D01*
X176982230Y-123413749D01*
X176914409Y-123430544D01*
X176848274Y-123408006D01*
X176809235Y-123362953D01*
X176722520Y-123192768D01*
X176722512Y-123192755D01*
X176696542Y-123157010D01*
X176696541Y-123157009D01*
X176132962Y-123720589D01*
X176115925Y-123657007D01*
X176050099Y-123542993D01*
X175957007Y-123449901D01*
X175842993Y-123384075D01*
X175779409Y-123367037D01*
X176342989Y-122803457D01*
X176307239Y-122777483D01*
X176131373Y-122687873D01*
X175943646Y-122626876D01*
X175748697Y-122596000D01*
X175551303Y-122596000D01*
X175356353Y-122626876D01*
X175168626Y-122687873D01*
X174992762Y-122777482D01*
X174992760Y-122777483D01*
X174957010Y-122803456D01*
X174957010Y-122803457D01*
X175520591Y-123367037D01*
X175457007Y-123384075D01*
X175342993Y-123449901D01*
X175249901Y-123542993D01*
X175184075Y-123657007D01*
X175167037Y-123720590D01*
X174603457Y-123157010D01*
X174603456Y-123157010D01*
X174577483Y-123192760D01*
X174577479Y-123192767D01*
X174490763Y-123362954D01*
X174442788Y-123413749D01*
X174374967Y-123430544D01*
X174308833Y-123408006D01*
X174269798Y-123362957D01*
X174182944Y-123192499D01*
X174182942Y-123192496D01*
X174182941Y-123192494D01*
X174066884Y-123032753D01*
X173927246Y-122893115D01*
X173767504Y-122777058D01*
X173767503Y-122777057D01*
X173767501Y-122777056D01*
X173591561Y-122687409D01*
X173591558Y-122687408D01*
X173403763Y-122626389D01*
X173208736Y-122595500D01*
X173208731Y-122595500D01*
X173011269Y-122595500D01*
X173011264Y-122595500D01*
X172816236Y-122626389D01*
X172628441Y-122687408D01*
X172452495Y-122777058D01*
X172292753Y-122893115D01*
X172153115Y-123032753D01*
X172037058Y-123192495D01*
X171947408Y-123368441D01*
X171886390Y-123556232D01*
X171886390Y-123556234D01*
X171873411Y-123638177D01*
X171843481Y-123701312D01*
X171838619Y-123706459D01*
X171722863Y-123822214D01*
X171722860Y-123822217D01*
X171613371Y-123986080D01*
X171613364Y-123986093D01*
X171570494Y-124089592D01*
X171570490Y-124089603D01*
X171568533Y-124094329D01*
X171537949Y-124168164D01*
X171527278Y-124221812D01*
X171525901Y-124228732D01*
X171525899Y-124228740D01*
X171499500Y-124361456D01*
X171499500Y-125358561D01*
X171479815Y-125425600D01*
X171474767Y-125432872D01*
X171456204Y-125457668D01*
X171456202Y-125457671D01*
X171405908Y-125592517D01*
X171399501Y-125652116D01*
X171399501Y-125652123D01*
X171399500Y-125652135D01*
X171399500Y-127347870D01*
X171399501Y-127347876D01*
X171405908Y-127407483D01*
X171456203Y-127542329D01*
X171474766Y-127567126D01*
X171482504Y-127587874D01*
X171494477Y-127606503D01*
X171497628Y-127628418D01*
X171499184Y-127632590D01*
X171499500Y-127641438D01*
X171499500Y-127858561D01*
X171479815Y-127925600D01*
X171474767Y-127932872D01*
X171456204Y-127957668D01*
X171456202Y-127957671D01*
X171405908Y-128092517D01*
X171401960Y-128129242D01*
X171399501Y-128152123D01*
X171399500Y-128152135D01*
X171399500Y-128634216D01*
X171379815Y-128701255D01*
X171363181Y-128721897D01*
X168621899Y-131463181D01*
X168560576Y-131496666D01*
X168534218Y-131499500D01*
X148313283Y-131499500D01*
X148246244Y-131479815D01*
X148225602Y-131463181D01*
X146636818Y-129874397D01*
X146622319Y-129847844D01*
X147400000Y-129847844D01*
X147406401Y-129907372D01*
X147406403Y-129907379D01*
X147456645Y-130042086D01*
X147456649Y-130042093D01*
X147542809Y-130157187D01*
X147542812Y-130157190D01*
X147657906Y-130243350D01*
X147657913Y-130243354D01*
X147792620Y-130293596D01*
X147792627Y-130293598D01*
X147852155Y-130299999D01*
X147852172Y-130300000D01*
X148250000Y-130300000D01*
X148750000Y-130300000D01*
X149147828Y-130300000D01*
X149147844Y-130299999D01*
X149207372Y-130293598D01*
X149207379Y-130293596D01*
X149342086Y-130243354D01*
X149342093Y-130243350D01*
X149457187Y-130157190D01*
X149457190Y-130157187D01*
X149543350Y-130042093D01*
X149543354Y-130042086D01*
X149593596Y-129907379D01*
X149593598Y-129907372D01*
X149599999Y-129847844D01*
X149600000Y-129847827D01*
X149600000Y-129250000D01*
X148750000Y-129250000D01*
X148750000Y-130300000D01*
X148250000Y-130300000D01*
X148250000Y-129250000D01*
X147400000Y-129250000D01*
X147400000Y-129847844D01*
X146622319Y-129847844D01*
X146603333Y-129813074D01*
X146600499Y-129786716D01*
X146600499Y-128152129D01*
X146600498Y-128152123D01*
X146600497Y-128152116D01*
X146594091Y-128092517D01*
X146562444Y-128007668D01*
X146543797Y-127957671D01*
X146543795Y-127957668D01*
X146525233Y-127932872D01*
X146517494Y-127912123D01*
X146505523Y-127893496D01*
X146502371Y-127871579D01*
X146500816Y-127867408D01*
X146500500Y-127858561D01*
X146500500Y-127641438D01*
X146520185Y-127574399D01*
X146525234Y-127567126D01*
X146543796Y-127542331D01*
X146543888Y-127542086D01*
X146594091Y-127407482D01*
X146594103Y-127407372D01*
X146600500Y-127347873D01*
X146600500Y-127347844D01*
X147400000Y-127347844D01*
X147406401Y-127407372D01*
X147406403Y-127407379D01*
X147456645Y-127542086D01*
X147456649Y-127542093D01*
X147542809Y-127657187D01*
X147547941Y-127662319D01*
X147581426Y-127723642D01*
X147576442Y-127793334D01*
X147547941Y-127837681D01*
X147542809Y-127842812D01*
X147456649Y-127957906D01*
X147456645Y-127957913D01*
X147406403Y-128092620D01*
X147406401Y-128092627D01*
X147400000Y-128152155D01*
X147400000Y-128750000D01*
X148250000Y-128750000D01*
X148750000Y-128750000D01*
X149600000Y-128750000D01*
X149600000Y-128152172D01*
X149599999Y-128152155D01*
X149593598Y-128092627D01*
X149593596Y-128092620D01*
X149543354Y-127957913D01*
X149543350Y-127957906D01*
X149457190Y-127842812D01*
X149452059Y-127837681D01*
X149418574Y-127776358D01*
X149423558Y-127706666D01*
X149452059Y-127662319D01*
X149457190Y-127657187D01*
X149543350Y-127542093D01*
X149543354Y-127542086D01*
X149593596Y-127407379D01*
X149593598Y-127407372D01*
X149599999Y-127347844D01*
X149600000Y-127347827D01*
X149600000Y-126750000D01*
X148750000Y-126750000D01*
X148750000Y-128750000D01*
X148250000Y-128750000D01*
X148250000Y-126750000D01*
X147400000Y-126750000D01*
X147400000Y-127347844D01*
X146600500Y-127347844D01*
X146600499Y-126250000D01*
X146600499Y-125652129D01*
X146600498Y-125652123D01*
X146600497Y-125652116D01*
X146594091Y-125592517D01*
X146543884Y-125457906D01*
X146543797Y-125457671D01*
X146543795Y-125457668D01*
X146540503Y-125453271D01*
X146525233Y-125432872D01*
X146517494Y-125412123D01*
X146505523Y-125393496D01*
X146502371Y-125371579D01*
X146500816Y-125367408D01*
X146500500Y-125358561D01*
X146500500Y-125132270D01*
X146520185Y-125065231D01*
X146572989Y-125019476D01*
X146586183Y-125014339D01*
X146591555Y-125012593D01*
X146591555Y-125012592D01*
X146591561Y-125012591D01*
X146767501Y-124922944D01*
X146861615Y-124854567D01*
X146927246Y-124806884D01*
X146927248Y-124806881D01*
X146927252Y-124806879D01*
X147066879Y-124667252D01*
X147066881Y-124667248D01*
X147066884Y-124667246D01*
X147182943Y-124507502D01*
X147183079Y-124507236D01*
X147269797Y-124337043D01*
X147317768Y-124286250D01*
X147385589Y-124269455D01*
X147451724Y-124291992D01*
X147490763Y-124337045D01*
X147577481Y-124507236D01*
X147603457Y-124542988D01*
X147603457Y-124542989D01*
X148167037Y-123979409D01*
X148184075Y-124042993D01*
X148249901Y-124157007D01*
X148342993Y-124250099D01*
X148457007Y-124315925D01*
X148520590Y-124332962D01*
X147957009Y-124896541D01*
X147957010Y-124896542D01*
X147992755Y-124922512D01*
X147992768Y-124922520D01*
X148077149Y-124965515D01*
X148127945Y-125013490D01*
X148144740Y-125081311D01*
X148122202Y-125147446D01*
X148067487Y-125190897D01*
X148020854Y-125200000D01*
X147852155Y-125200000D01*
X147792627Y-125206401D01*
X147792620Y-125206403D01*
X147657913Y-125256645D01*
X147657906Y-125256649D01*
X147542812Y-125342809D01*
X147542809Y-125342812D01*
X147456649Y-125457906D01*
X147456645Y-125457913D01*
X147406403Y-125592620D01*
X147406401Y-125592627D01*
X147400000Y-125652155D01*
X147400000Y-126250000D01*
X149600000Y-126250000D01*
X149600000Y-125652172D01*
X149599999Y-125652155D01*
X149593598Y-125592627D01*
X149593596Y-125592620D01*
X149543354Y-125457913D01*
X149543350Y-125457906D01*
X149457190Y-125342812D01*
X149457187Y-125342809D01*
X149342093Y-125256649D01*
X149342088Y-125256646D01*
X149207681Y-125206515D01*
X149151748Y-125164643D01*
X149127331Y-125099179D01*
X149142183Y-125030906D01*
X149191588Y-124981501D01*
X149194721Y-124979848D01*
X149307237Y-124922518D01*
X149307240Y-124922516D01*
X149342988Y-124896543D01*
X149342988Y-124896541D01*
X148779410Y-124332962D01*
X148842993Y-124315925D01*
X148957007Y-124250099D01*
X149050099Y-124157007D01*
X149115925Y-124042993D01*
X149132962Y-123979409D01*
X149696541Y-124542988D01*
X149696543Y-124542988D01*
X149722516Y-124507241D01*
X149809235Y-124337046D01*
X149857210Y-124286250D01*
X149925031Y-124269455D01*
X149991165Y-124291992D01*
X150030202Y-124337042D01*
X150117056Y-124507501D01*
X150165818Y-124574617D01*
X150189298Y-124640421D01*
X150189500Y-124647501D01*
X150189500Y-128152934D01*
X150169815Y-128219973D01*
X150165819Y-128225819D01*
X150044948Y-128392184D01*
X149948444Y-128581585D01*
X149882753Y-128783760D01*
X149849500Y-128993713D01*
X149849500Y-129206286D01*
X149882753Y-129416239D01*
X149948444Y-129618414D01*
X150044951Y-129807820D01*
X150169890Y-129979786D01*
X150320213Y-130130109D01*
X150492179Y-130255048D01*
X150492181Y-130255049D01*
X150492184Y-130255051D01*
X150681588Y-130351557D01*
X150883757Y-130417246D01*
X151093713Y-130450500D01*
X151093714Y-130450500D01*
X151306286Y-130450500D01*
X151306287Y-130450500D01*
X151516243Y-130417246D01*
X151718412Y-130351557D01*
X151907816Y-130255051D01*
X151972454Y-130208089D01*
X152079786Y-130130109D01*
X152079788Y-130130106D01*
X152079792Y-130130104D01*
X152230104Y-129979792D01*
X152230106Y-129979788D01*
X152230109Y-129979786D01*
X152355048Y-129807820D01*
X152355047Y-129807820D01*
X152355051Y-129807816D01*
X152359514Y-129799054D01*
X152407488Y-129748259D01*
X152475308Y-129731463D01*
X152541444Y-129753999D01*
X152580486Y-129799056D01*
X152584951Y-129807820D01*
X152709890Y-129979786D01*
X152860213Y-130130109D01*
X153032179Y-130255048D01*
X153032181Y-130255049D01*
X153032184Y-130255051D01*
X153221588Y-130351557D01*
X153423757Y-130417246D01*
X153633713Y-130450500D01*
X153633714Y-130450500D01*
X153846286Y-130450500D01*
X153846287Y-130450500D01*
X154056243Y-130417246D01*
X154258412Y-130351557D01*
X154447816Y-130255051D01*
X154512454Y-130208089D01*
X154619786Y-130130109D01*
X154619788Y-130130106D01*
X154619792Y-130130104D01*
X154770104Y-129979792D01*
X154770106Y-129979788D01*
X154770109Y-129979786D01*
X154895048Y-129807820D01*
X154895047Y-129807820D01*
X154895051Y-129807816D01*
X154899514Y-129799054D01*
X154947488Y-129748259D01*
X155015308Y-129731463D01*
X155081444Y-129753999D01*
X155120486Y-129799056D01*
X155124951Y-129807820D01*
X155249890Y-129979786D01*
X155400213Y-130130109D01*
X155572179Y-130255048D01*
X155572181Y-130255049D01*
X155572184Y-130255051D01*
X155761588Y-130351557D01*
X155963757Y-130417246D01*
X156173713Y-130450500D01*
X156173714Y-130450500D01*
X156386286Y-130450500D01*
X156386287Y-130450500D01*
X156596243Y-130417246D01*
X156798412Y-130351557D01*
X156987816Y-130255051D01*
X157159792Y-130130104D01*
X157273329Y-130016566D01*
X157334648Y-129983084D01*
X157404340Y-129988068D01*
X157460274Y-130029939D01*
X157477189Y-130060917D01*
X157526202Y-130192328D01*
X157526206Y-130192335D01*
X157612452Y-130307544D01*
X157612455Y-130307547D01*
X157727664Y-130393793D01*
X157727671Y-130393797D01*
X157862517Y-130444091D01*
X157862516Y-130444091D01*
X157869444Y-130444835D01*
X157922127Y-130450500D01*
X159717872Y-130450499D01*
X159777483Y-130444091D01*
X159912331Y-130393796D01*
X160027546Y-130307546D01*
X160113796Y-130192331D01*
X160164091Y-130057483D01*
X160170500Y-129997873D01*
X160170499Y-128202128D01*
X160164091Y-128142517D01*
X160162810Y-128139083D01*
X160113797Y-128007671D01*
X160113795Y-128007668D01*
X160076548Y-127957913D01*
X160075828Y-127956951D01*
X160051411Y-127891487D01*
X160066262Y-127823214D01*
X160115667Y-127773808D01*
X160183940Y-127758956D01*
X160218428Y-127766458D01*
X160292517Y-127794091D01*
X160292516Y-127794091D01*
X160299444Y-127794835D01*
X160352127Y-127800500D01*
X161647872Y-127800499D01*
X161707483Y-127794091D01*
X161842331Y-127743796D01*
X161957546Y-127657546D01*
X162043796Y-127542331D01*
X162094091Y-127407483D01*
X162100500Y-127347873D01*
X162100500Y-127347844D01*
X162900000Y-127347844D01*
X162906401Y-127407372D01*
X162906403Y-127407379D01*
X162956645Y-127542086D01*
X162956649Y-127542093D01*
X163042809Y-127657187D01*
X163042812Y-127657190D01*
X163157906Y-127743350D01*
X163157913Y-127743354D01*
X163292620Y-127793596D01*
X163292627Y-127793598D01*
X163352155Y-127799999D01*
X163352172Y-127800000D01*
X163750000Y-127800000D01*
X164250000Y-127800000D01*
X164647828Y-127800000D01*
X164647844Y-127799999D01*
X164707372Y-127793598D01*
X164707379Y-127793596D01*
X164842086Y-127743354D01*
X164842093Y-127743350D01*
X164957187Y-127657190D01*
X164957190Y-127657187D01*
X165043350Y-127542093D01*
X165043354Y-127542086D01*
X165093596Y-127407379D01*
X165093598Y-127407372D01*
X165099999Y-127347844D01*
X165100000Y-127347827D01*
X165100000Y-126750000D01*
X164250000Y-126750000D01*
X164250000Y-127800000D01*
X163750000Y-127800000D01*
X163750000Y-126750000D01*
X162900000Y-126750000D01*
X162900000Y-127347844D01*
X162100500Y-127347844D01*
X162100499Y-126250000D01*
X162100499Y-125652129D01*
X162100498Y-125652123D01*
X162100497Y-125652116D01*
X162094091Y-125592517D01*
X162058318Y-125496604D01*
X162050500Y-125453271D01*
X162050500Y-124954885D01*
X162070185Y-124887846D01*
X162101615Y-124854567D01*
X162167248Y-124806882D01*
X162167248Y-124806881D01*
X162167252Y-124806879D01*
X162306879Y-124667252D01*
X162411683Y-124523000D01*
X162467011Y-124480336D01*
X162536624Y-124474357D01*
X162598420Y-124506962D01*
X162632777Y-124567800D01*
X162636000Y-124595887D01*
X162636000Y-124651844D01*
X162642401Y-124711372D01*
X162642403Y-124711379D01*
X162692645Y-124846086D01*
X162692649Y-124846093D01*
X162778809Y-124961187D01*
X162778812Y-124961190D01*
X162893906Y-125047350D01*
X162893913Y-125047354D01*
X163028621Y-125097597D01*
X163030250Y-125097982D01*
X163031383Y-125098627D01*
X163035892Y-125100309D01*
X163035619Y-125101039D01*
X163090968Y-125132553D01*
X163123356Y-125194462D01*
X163117132Y-125264054D01*
X163076053Y-125317925D01*
X163042811Y-125342810D01*
X163042809Y-125342812D01*
X162956649Y-125457906D01*
X162956645Y-125457913D01*
X162906403Y-125592620D01*
X162906401Y-125592627D01*
X162900000Y-125652155D01*
X162900000Y-126250000D01*
X163750000Y-126250000D01*
X163750000Y-125234000D01*
X163744180Y-125228180D01*
X163696961Y-125214315D01*
X163651206Y-125161511D01*
X163640000Y-125110000D01*
X163640000Y-124283012D01*
X163697007Y-124315925D01*
X163824174Y-124350000D01*
X163955826Y-124350000D01*
X164082993Y-124315925D01*
X164140000Y-124283012D01*
X164140000Y-125070000D01*
X164145819Y-125075819D01*
X164193039Y-125089685D01*
X164238794Y-125142489D01*
X164250000Y-125194000D01*
X164250000Y-126250000D01*
X165100000Y-126250000D01*
X165100000Y-125652172D01*
X165099999Y-125652155D01*
X165093598Y-125592627D01*
X165093596Y-125592620D01*
X165043354Y-125457913D01*
X165043350Y-125457906D01*
X164957190Y-125342812D01*
X164957187Y-125342809D01*
X164851907Y-125263996D01*
X164810036Y-125208062D01*
X164805052Y-125138371D01*
X164838538Y-125077048D01*
X164882889Y-125048547D01*
X164886085Y-125047354D01*
X164886093Y-125047350D01*
X165001187Y-124961190D01*
X165001190Y-124961187D01*
X165087350Y-124846093D01*
X165087354Y-124846086D01*
X165137596Y-124711379D01*
X165137598Y-124711372D01*
X165143999Y-124651844D01*
X165144000Y-124651827D01*
X165144000Y-124100000D01*
X164323012Y-124100000D01*
X164355925Y-124042993D01*
X164390000Y-123915826D01*
X164390000Y-123784174D01*
X164355925Y-123657007D01*
X164323012Y-123600000D01*
X165144000Y-123600000D01*
X165144000Y-123048172D01*
X165143999Y-123048155D01*
X165137598Y-122988627D01*
X165137596Y-122988620D01*
X165087354Y-122853913D01*
X165087350Y-122853906D01*
X165001190Y-122738812D01*
X165001187Y-122738809D01*
X164886093Y-122652649D01*
X164886086Y-122652645D01*
X164751379Y-122602403D01*
X164751372Y-122602401D01*
X164691844Y-122596000D01*
X164140000Y-122596000D01*
X164140000Y-123416988D01*
X164082993Y-123384075D01*
X163955826Y-123350000D01*
X163824174Y-123350000D01*
X163697007Y-123384075D01*
X163640000Y-123416988D01*
X163640000Y-122602018D01*
X163648644Y-122572577D01*
X163655168Y-122542591D01*
X163658922Y-122537575D01*
X163659685Y-122534979D01*
X163676319Y-122514337D01*
X164953837Y-121236819D01*
X165015160Y-121203334D01*
X165041518Y-121200500D01*
X184658481Y-121200500D01*
X184725520Y-121220185D01*
G37*
%TD.AperFunction*%
%TA.AperFunction,Conductor*%
G36*
X219154075Y-110072993D02*
G01*
X219219901Y-110187007D01*
X219312993Y-110280099D01*
X219427007Y-110345925D01*
X219490590Y-110362962D01*
X218927009Y-110926541D01*
X218927010Y-110926542D01*
X218962755Y-110952512D01*
X218962768Y-110952520D01*
X219138626Y-111042126D01*
X219326353Y-111103123D01*
X219521303Y-111134000D01*
X219718697Y-111134000D01*
X219913646Y-111103123D01*
X220101373Y-111042126D01*
X220277241Y-110952516D01*
X220312988Y-110926543D01*
X220312988Y-110926541D01*
X219749410Y-110362962D01*
X219812993Y-110345925D01*
X219927007Y-110280099D01*
X220020099Y-110187007D01*
X220085925Y-110072993D01*
X220102962Y-110009409D01*
X220666541Y-110572988D01*
X220666542Y-110572988D01*
X220681183Y-110552838D01*
X220736513Y-110510172D01*
X220806126Y-110504194D01*
X220867921Y-110536801D01*
X220902278Y-110597640D01*
X220905500Y-110625722D01*
X220905500Y-110681869D01*
X220905501Y-110681876D01*
X220911908Y-110741483D01*
X220962202Y-110876328D01*
X220962206Y-110876335D01*
X221048452Y-110991544D01*
X221048455Y-110991547D01*
X221163664Y-111077793D01*
X221163671Y-111077797D01*
X221298517Y-111128091D01*
X221298516Y-111128091D01*
X221305444Y-111128835D01*
X221358127Y-111134500D01*
X222689500Y-111134499D01*
X222698185Y-111137049D01*
X222707147Y-111135761D01*
X222731187Y-111146739D01*
X222756539Y-111154184D01*
X222762466Y-111161024D01*
X222770703Y-111164786D01*
X222784990Y-111187018D01*
X222802294Y-111206987D01*
X222804581Y-111217502D01*
X222808477Y-111223564D01*
X222813500Y-111258499D01*
X222813500Y-111444480D01*
X222793815Y-111511519D01*
X222777181Y-111532161D01*
X221011681Y-113297661D01*
X220950358Y-113331146D01*
X220880666Y-113326162D01*
X220824733Y-113284290D01*
X220800316Y-113218826D01*
X220800000Y-113209980D01*
X220800000Y-113050000D01*
X219750000Y-113050000D01*
X219750000Y-113900000D01*
X220109980Y-113900000D01*
X220177019Y-113919685D01*
X220222774Y-113972489D01*
X220232718Y-114041647D01*
X220203693Y-114105203D01*
X220197661Y-114111681D01*
X219646160Y-114663181D01*
X219584837Y-114696666D01*
X219558479Y-114699500D01*
X218652129Y-114699500D01*
X218652123Y-114699501D01*
X218592516Y-114705908D01*
X218457671Y-114756202D01*
X218457664Y-114756206D01*
X218342455Y-114842452D01*
X218337681Y-114847227D01*
X218276358Y-114880712D01*
X218206666Y-114875728D01*
X218162319Y-114847227D01*
X218157544Y-114842452D01*
X218042335Y-114756206D01*
X218042328Y-114756202D01*
X217907482Y-114705908D01*
X217907483Y-114705908D01*
X217847883Y-114699501D01*
X217847881Y-114699500D01*
X217847873Y-114699500D01*
X217847864Y-114699500D01*
X216152129Y-114699500D01*
X216152123Y-114699501D01*
X216092516Y-114705908D01*
X215957671Y-114756202D01*
X215957664Y-114756206D01*
X215842455Y-114842452D01*
X215842452Y-114842455D01*
X215756206Y-114957664D01*
X215756202Y-114957671D01*
X215733391Y-115018833D01*
X215691520Y-115074767D01*
X215626056Y-115099184D01*
X215617209Y-115099500D01*
X213331005Y-115099500D01*
X213230769Y-115119438D01*
X213230763Y-115119439D01*
X213224056Y-115120774D01*
X213195671Y-115126420D01*
X213158332Y-115141886D01*
X213153401Y-115143928D01*
X213153393Y-115143931D01*
X213136741Y-115150829D01*
X213067271Y-115158296D01*
X213004793Y-115127020D01*
X213001609Y-115123948D01*
X212939303Y-115061642D01*
X212939291Y-115061631D01*
X212892613Y-115024013D01*
X212761698Y-114964225D01*
X212761694Y-114964224D01*
X212619239Y-114943744D01*
X212476781Y-114964224D01*
X212345868Y-115024011D01*
X212299173Y-115061640D01*
X211382957Y-115977859D01*
X211382948Y-115977869D01*
X211373878Y-115989124D01*
X211316483Y-116028969D01*
X211246658Y-116031458D01*
X211189650Y-115998993D01*
X208638502Y-113447844D01*
X215700000Y-113447844D01*
X215706401Y-113507372D01*
X215706403Y-113507379D01*
X215756645Y-113642086D01*
X215756649Y-113642093D01*
X215842809Y-113757187D01*
X215842812Y-113757190D01*
X215957906Y-113843350D01*
X215957913Y-113843354D01*
X216092620Y-113893596D01*
X216092627Y-113893598D01*
X216152155Y-113899999D01*
X216152172Y-113900000D01*
X216750000Y-113900000D01*
X217250000Y-113900000D01*
X217847828Y-113900000D01*
X217847844Y-113899999D01*
X217907372Y-113893598D01*
X217907379Y-113893596D01*
X218042086Y-113843354D01*
X218042093Y-113843350D01*
X218157187Y-113757190D01*
X218162319Y-113752059D01*
X218223642Y-113718574D01*
X218293334Y-113723558D01*
X218337681Y-113752059D01*
X218342812Y-113757190D01*
X218457906Y-113843350D01*
X218457913Y-113843354D01*
X218592620Y-113893596D01*
X218592627Y-113893598D01*
X218652155Y-113899999D01*
X218652172Y-113900000D01*
X219250000Y-113900000D01*
X219250000Y-113050000D01*
X217250000Y-113050000D01*
X217250000Y-113900000D01*
X216750000Y-113900000D01*
X216750000Y-113050000D01*
X215700000Y-113050000D01*
X215700000Y-113447844D01*
X208638502Y-113447844D01*
X208550546Y-113359888D01*
X208550545Y-113359887D01*
X208435807Y-113283222D01*
X208308332Y-113230421D01*
X208308322Y-113230418D01*
X208172996Y-113203500D01*
X208172994Y-113203500D01*
X208172993Y-113203500D01*
X183825519Y-113203500D01*
X183796078Y-113194855D01*
X183766092Y-113188332D01*
X183761076Y-113184577D01*
X183758480Y-113183815D01*
X183737838Y-113167181D01*
X183186838Y-112616181D01*
X183153353Y-112554858D01*
X183158337Y-112485166D01*
X183200209Y-112429233D01*
X183265673Y-112404816D01*
X183274519Y-112404500D01*
X183368736Y-112404500D01*
X183563763Y-112373610D01*
X183565262Y-112373123D01*
X183751561Y-112312591D01*
X183927501Y-112222944D01*
X184024911Y-112152172D01*
X184087246Y-112106884D01*
X184087248Y-112106881D01*
X184087252Y-112106879D01*
X184226879Y-111967252D01*
X184226881Y-111967248D01*
X184226884Y-111967246D01*
X184342943Y-111807502D01*
X184345741Y-111802011D01*
X184429797Y-111637043D01*
X184477768Y-111586250D01*
X184545589Y-111569455D01*
X184611724Y-111591992D01*
X184650763Y-111637045D01*
X184737481Y-111807236D01*
X184763457Y-111842988D01*
X184763457Y-111842989D01*
X185327037Y-111279409D01*
X185344075Y-111342993D01*
X185409901Y-111457007D01*
X185502993Y-111550099D01*
X185617007Y-111615925D01*
X185680590Y-111632962D01*
X185117009Y-112196541D01*
X185117010Y-112196542D01*
X185152755Y-112222512D01*
X185152768Y-112222520D01*
X185328626Y-112312126D01*
X185516353Y-112373123D01*
X185711303Y-112404000D01*
X185908697Y-112404000D01*
X186103646Y-112373123D01*
X186291373Y-112312126D01*
X186467241Y-112222516D01*
X186502988Y-112196543D01*
X186502988Y-112196541D01*
X185939410Y-111632962D01*
X186002993Y-111615925D01*
X186117007Y-111550099D01*
X186210099Y-111457007D01*
X186275925Y-111342993D01*
X186292962Y-111279409D01*
X186856541Y-111842988D01*
X186856543Y-111842988D01*
X186882516Y-111807241D01*
X186969235Y-111637046D01*
X187017210Y-111586250D01*
X187085031Y-111569455D01*
X187151165Y-111591992D01*
X187190202Y-111637042D01*
X187253415Y-111761103D01*
X187277058Y-111807505D01*
X187393115Y-111967246D01*
X187532753Y-112106884D01*
X187656158Y-112196541D01*
X187692499Y-112222944D01*
X187868439Y-112312591D01*
X187993637Y-112353270D01*
X188056236Y-112373610D01*
X188251264Y-112404500D01*
X188251269Y-112404500D01*
X188448736Y-112404500D01*
X188643763Y-112373610D01*
X188645262Y-112373123D01*
X188831561Y-112312591D01*
X189007501Y-112222944D01*
X189104911Y-112152172D01*
X189167246Y-112106884D01*
X189167248Y-112106881D01*
X189167252Y-112106879D01*
X189306879Y-111967252D01*
X189306881Y-111967248D01*
X189306884Y-111967246D01*
X189422941Y-111807505D01*
X189422943Y-111807502D01*
X189422944Y-111807501D01*
X189509517Y-111637593D01*
X189557490Y-111586800D01*
X189625311Y-111570005D01*
X189691446Y-111592542D01*
X189730482Y-111637593D01*
X189793412Y-111761098D01*
X189817058Y-111807505D01*
X189933115Y-111967246D01*
X190072753Y-112106884D01*
X190196158Y-112196541D01*
X190232499Y-112222944D01*
X190408439Y-112312591D01*
X190533637Y-112353270D01*
X190596236Y-112373610D01*
X190791264Y-112404500D01*
X190791269Y-112404500D01*
X190988736Y-112404500D01*
X191183763Y-112373610D01*
X191185262Y-112373123D01*
X191371561Y-112312591D01*
X191547501Y-112222944D01*
X191644911Y-112152172D01*
X191644934Y-112152155D01*
X215700000Y-112152155D01*
X215700000Y-112550000D01*
X216750000Y-112550000D01*
X217250000Y-112550000D01*
X219250000Y-112550000D01*
X219750000Y-112550000D01*
X220800000Y-112550000D01*
X220800000Y-112152172D01*
X220799999Y-112152155D01*
X220793598Y-112092627D01*
X220793596Y-112092620D01*
X220743354Y-111957913D01*
X220743350Y-111957906D01*
X220657190Y-111842812D01*
X220657187Y-111842809D01*
X220542093Y-111756649D01*
X220542086Y-111756645D01*
X220407379Y-111706403D01*
X220407372Y-111706401D01*
X220347844Y-111700000D01*
X219750000Y-111700000D01*
X219750000Y-112550000D01*
X219250000Y-112550000D01*
X219250000Y-111700000D01*
X218652155Y-111700000D01*
X218592627Y-111706401D01*
X218592620Y-111706403D01*
X218457913Y-111756645D01*
X218457906Y-111756649D01*
X218342812Y-111842809D01*
X218337681Y-111847941D01*
X218276358Y-111881426D01*
X218206666Y-111876442D01*
X218162319Y-111847941D01*
X218157187Y-111842809D01*
X218042093Y-111756649D01*
X218042086Y-111756645D01*
X217907379Y-111706403D01*
X217907372Y-111706401D01*
X217847844Y-111700000D01*
X217250000Y-111700000D01*
X217250000Y-112550000D01*
X216750000Y-112550000D01*
X216750000Y-111700000D01*
X216152155Y-111700000D01*
X216092627Y-111706401D01*
X216092620Y-111706403D01*
X215957913Y-111756645D01*
X215957906Y-111756649D01*
X215842812Y-111842809D01*
X215842809Y-111842812D01*
X215756649Y-111957906D01*
X215756645Y-111957913D01*
X215706403Y-112092620D01*
X215706401Y-112092627D01*
X215700000Y-112152155D01*
X191644934Y-112152155D01*
X191707246Y-112106884D01*
X191707248Y-112106881D01*
X191707252Y-112106879D01*
X191846879Y-111967252D01*
X191846881Y-111967248D01*
X191846884Y-111967246D01*
X191916326Y-111871666D01*
X191962944Y-111807501D01*
X192052591Y-111631561D01*
X192113610Y-111443763D01*
X192116614Y-111424796D01*
X192144500Y-111248736D01*
X192144500Y-111051271D01*
X192143316Y-111043796D01*
X192131807Y-110971132D01*
X192140761Y-110901843D01*
X192166594Y-110864061D01*
X192413839Y-110616816D01*
X192475161Y-110583334D01*
X192501519Y-110580500D01*
X200735115Y-110580500D01*
X200802154Y-110600185D01*
X200835434Y-110631616D01*
X200883117Y-110697248D01*
X201022753Y-110836884D01*
X201146158Y-110926541D01*
X201182499Y-110952944D01*
X201358439Y-111042591D01*
X201483637Y-111083270D01*
X201546236Y-111103610D01*
X201741264Y-111134500D01*
X201741269Y-111134500D01*
X201938736Y-111134500D01*
X202133763Y-111103610D01*
X202143341Y-111100498D01*
X202321561Y-111042591D01*
X202497501Y-110952944D01*
X202587192Y-110887779D01*
X202657246Y-110836884D01*
X202657248Y-110836881D01*
X202657252Y-110836879D01*
X202796879Y-110697252D01*
X202796881Y-110697248D01*
X202796884Y-110697246D01*
X202912941Y-110537505D01*
X202912943Y-110537502D01*
X202912944Y-110537501D01*
X202999517Y-110367593D01*
X203047490Y-110316800D01*
X203115311Y-110300005D01*
X203181446Y-110322542D01*
X203220482Y-110367593D01*
X203284259Y-110492760D01*
X203307058Y-110537505D01*
X203423115Y-110697246D01*
X203562753Y-110836884D01*
X203686158Y-110926541D01*
X203722499Y-110952944D01*
X203898439Y-111042591D01*
X204023637Y-111083270D01*
X204086236Y-111103610D01*
X204281264Y-111134500D01*
X204281269Y-111134500D01*
X204478736Y-111134500D01*
X204673763Y-111103610D01*
X204683341Y-111100498D01*
X204861561Y-111042591D01*
X205037501Y-110952944D01*
X205127192Y-110887779D01*
X205197246Y-110836884D01*
X205197248Y-110836881D01*
X205197252Y-110836879D01*
X205336879Y-110697252D01*
X205336881Y-110697248D01*
X205336884Y-110697246D01*
X205452941Y-110537505D01*
X205452943Y-110537502D01*
X205452944Y-110537501D01*
X205539517Y-110367593D01*
X205587490Y-110316800D01*
X205655311Y-110300005D01*
X205721446Y-110322542D01*
X205760482Y-110367593D01*
X205824259Y-110492760D01*
X205847058Y-110537505D01*
X205963115Y-110697246D01*
X206102753Y-110836884D01*
X206226158Y-110926541D01*
X206262499Y-110952944D01*
X206438439Y-111042591D01*
X206563637Y-111083270D01*
X206626236Y-111103610D01*
X206821264Y-111134500D01*
X206821269Y-111134500D01*
X207018736Y-111134500D01*
X207213763Y-111103610D01*
X207223341Y-111100498D01*
X207401561Y-111042591D01*
X207577501Y-110952944D01*
X207667192Y-110887779D01*
X207737246Y-110836884D01*
X207737248Y-110836881D01*
X207737252Y-110836879D01*
X207876879Y-110697252D01*
X207876881Y-110697248D01*
X207876884Y-110697246D01*
X207992941Y-110537505D01*
X207992943Y-110537502D01*
X207992944Y-110537501D01*
X208079517Y-110367593D01*
X208127490Y-110316800D01*
X208195311Y-110300005D01*
X208261446Y-110322542D01*
X208300482Y-110367593D01*
X208364259Y-110492760D01*
X208387058Y-110537505D01*
X208503115Y-110697246D01*
X208642753Y-110836884D01*
X208766158Y-110926541D01*
X208802499Y-110952944D01*
X208978439Y-111042591D01*
X209103637Y-111083270D01*
X209166236Y-111103610D01*
X209361264Y-111134500D01*
X209361269Y-111134500D01*
X209558736Y-111134500D01*
X209753763Y-111103610D01*
X209763341Y-111100498D01*
X209941561Y-111042591D01*
X210117501Y-110952944D01*
X210207192Y-110887779D01*
X210277246Y-110836884D01*
X210277248Y-110836881D01*
X210277252Y-110836879D01*
X210416879Y-110697252D01*
X210416881Y-110697248D01*
X210416884Y-110697246D01*
X210532941Y-110537505D01*
X210532943Y-110537502D01*
X210532944Y-110537501D01*
X210619517Y-110367593D01*
X210667490Y-110316800D01*
X210735311Y-110300005D01*
X210801446Y-110322542D01*
X210840482Y-110367593D01*
X210904259Y-110492760D01*
X210927058Y-110537505D01*
X211043115Y-110697246D01*
X211182753Y-110836884D01*
X211306158Y-110926541D01*
X211342499Y-110952944D01*
X211518439Y-111042591D01*
X211643637Y-111083270D01*
X211706236Y-111103610D01*
X211901264Y-111134500D01*
X211901269Y-111134500D01*
X212098736Y-111134500D01*
X212293763Y-111103610D01*
X212303341Y-111100498D01*
X212481561Y-111042591D01*
X212657501Y-110952944D01*
X212747192Y-110887779D01*
X212817246Y-110836884D01*
X212817248Y-110836881D01*
X212817252Y-110836879D01*
X212956879Y-110697252D01*
X212956881Y-110697248D01*
X212956884Y-110697246D01*
X213072941Y-110537505D01*
X213072943Y-110537502D01*
X213072944Y-110537501D01*
X213139516Y-110406846D01*
X213187490Y-110356052D01*
X213255311Y-110339257D01*
X213321446Y-110361794D01*
X213360482Y-110406845D01*
X213404259Y-110492760D01*
X213427058Y-110537505D01*
X213543115Y-110697246D01*
X213682753Y-110836884D01*
X213806158Y-110926541D01*
X213842499Y-110952944D01*
X214018439Y-111042591D01*
X214143637Y-111083270D01*
X214206236Y-111103610D01*
X214401264Y-111134500D01*
X214401269Y-111134500D01*
X214598736Y-111134500D01*
X214793763Y-111103610D01*
X214803341Y-111100498D01*
X214981561Y-111042591D01*
X215157501Y-110952944D01*
X215247192Y-110887779D01*
X215317246Y-110836884D01*
X215317248Y-110836881D01*
X215317252Y-110836879D01*
X215456879Y-110697252D01*
X215456881Y-110697248D01*
X215456884Y-110697246D01*
X215529251Y-110597640D01*
X215572944Y-110537501D01*
X215662591Y-110361561D01*
X215672069Y-110332389D01*
X215711506Y-110274714D01*
X215775864Y-110247515D01*
X215844711Y-110259429D01*
X215896187Y-110306673D01*
X215907930Y-110332388D01*
X215917409Y-110361561D01*
X216006921Y-110537236D01*
X216007058Y-110537504D01*
X216123115Y-110697246D01*
X216262753Y-110836884D01*
X216386158Y-110926541D01*
X216422499Y-110952944D01*
X216598439Y-111042591D01*
X216723637Y-111083270D01*
X216786236Y-111103610D01*
X216981264Y-111134500D01*
X216981269Y-111134500D01*
X217178736Y-111134500D01*
X217373763Y-111103610D01*
X217383341Y-111100498D01*
X217561561Y-111042591D01*
X217737501Y-110952944D01*
X217827192Y-110887779D01*
X217897246Y-110836884D01*
X217897248Y-110836881D01*
X217897252Y-110836879D01*
X218036879Y-110697252D01*
X218036881Y-110697248D01*
X218036884Y-110697246D01*
X218152943Y-110537502D01*
X218153079Y-110537236D01*
X218239797Y-110367043D01*
X218287768Y-110316250D01*
X218355589Y-110299455D01*
X218421724Y-110321992D01*
X218460763Y-110367045D01*
X218547481Y-110537236D01*
X218573457Y-110572988D01*
X218573457Y-110572989D01*
X219137037Y-110009408D01*
X219154075Y-110072993D01*
G37*
%TD.AperFunction*%
%TA.AperFunction,Conductor*%
G36*
X149696541Y-111842988D02*
G01*
X149696543Y-111842988D01*
X149722516Y-111807241D01*
X149809235Y-111637046D01*
X149857210Y-111586250D01*
X149925031Y-111569455D01*
X149991165Y-111591992D01*
X150030202Y-111637042D01*
X150093415Y-111761103D01*
X150117058Y-111807505D01*
X150233115Y-111967246D01*
X150372753Y-112106884D01*
X150496158Y-112196541D01*
X150532499Y-112222944D01*
X150708439Y-112312591D01*
X150833637Y-112353270D01*
X150896236Y-112373610D01*
X151091264Y-112404500D01*
X151091269Y-112404500D01*
X151288728Y-112404500D01*
X151288731Y-112404500D01*
X151368865Y-112391807D01*
X151438155Y-112400761D01*
X151475942Y-112426599D01*
X154637162Y-115587819D01*
X154670647Y-115649142D01*
X154665663Y-115718834D01*
X154623791Y-115774767D01*
X154558327Y-115799184D01*
X154549481Y-115799500D01*
X151801519Y-115799500D01*
X151734480Y-115779815D01*
X151713838Y-115763181D01*
X148566338Y-112615681D01*
X148532853Y-112554358D01*
X148537837Y-112484666D01*
X148579709Y-112428733D01*
X148645173Y-112404316D01*
X148654019Y-112404000D01*
X148748697Y-112404000D01*
X148943646Y-112373123D01*
X149131373Y-112312126D01*
X149307241Y-112222516D01*
X149342988Y-112196543D01*
X149342988Y-112196541D01*
X148779408Y-111632962D01*
X148842993Y-111615925D01*
X148957007Y-111550099D01*
X149050099Y-111457007D01*
X149115925Y-111342993D01*
X149132962Y-111279409D01*
X149696541Y-111842988D01*
G37*
%TD.AperFunction*%
%TA.AperFunction,Conductor*%
G36*
X125236541Y-111842988D02*
G01*
X125236543Y-111842988D01*
X125262516Y-111807241D01*
X125349235Y-111637046D01*
X125397210Y-111586250D01*
X125465031Y-111569455D01*
X125531165Y-111591992D01*
X125570202Y-111637042D01*
X125633415Y-111761103D01*
X125657058Y-111807505D01*
X125773115Y-111967246D01*
X125912753Y-112106884D01*
X126036158Y-112196541D01*
X126072499Y-112222944D01*
X126248439Y-112312591D01*
X126373637Y-112353270D01*
X126436236Y-112373610D01*
X126631264Y-112404500D01*
X126631269Y-112404500D01*
X126828728Y-112404500D01*
X126828731Y-112404500D01*
X126908865Y-112391807D01*
X126978155Y-112400761D01*
X127015942Y-112426599D01*
X129037453Y-114448111D01*
X129037454Y-114448112D01*
X129037457Y-114448114D01*
X129152189Y-114524775D01*
X129152190Y-114524775D01*
X129152191Y-114524776D01*
X129239495Y-114560939D01*
X129293898Y-114604780D01*
X129315963Y-114671075D01*
X129298683Y-114738774D01*
X129247546Y-114786384D01*
X129192042Y-114799500D01*
X123801519Y-114799500D01*
X123734480Y-114779815D01*
X123713838Y-114763181D01*
X121566338Y-112615681D01*
X121532853Y-112554358D01*
X121537837Y-112484666D01*
X121579709Y-112428733D01*
X121645173Y-112404316D01*
X121654019Y-112404000D01*
X121748697Y-112404000D01*
X121943646Y-112373123D01*
X122131373Y-112312126D01*
X122307241Y-112222516D01*
X122342988Y-112196543D01*
X122342988Y-112196541D01*
X121779408Y-111632962D01*
X121842993Y-111615925D01*
X121957007Y-111550099D01*
X122050099Y-111457007D01*
X122115925Y-111342993D01*
X122132962Y-111279409D01*
X122696541Y-111842988D01*
X122696543Y-111842988D01*
X122722516Y-111807241D01*
X122809515Y-111636497D01*
X122857490Y-111585701D01*
X122925311Y-111568906D01*
X122991446Y-111591443D01*
X123030485Y-111636497D01*
X123117483Y-111807239D01*
X123143457Y-111842988D01*
X123143457Y-111842989D01*
X123707037Y-111279409D01*
X123724075Y-111342993D01*
X123789901Y-111457007D01*
X123882993Y-111550099D01*
X123997007Y-111615925D01*
X124060590Y-111632962D01*
X123497009Y-112196541D01*
X123497010Y-112196542D01*
X123532755Y-112222512D01*
X123532768Y-112222520D01*
X123708626Y-112312126D01*
X123896353Y-112373123D01*
X124091303Y-112404000D01*
X124288697Y-112404000D01*
X124483646Y-112373123D01*
X124671373Y-112312126D01*
X124847241Y-112222516D01*
X124882988Y-112196543D01*
X124882988Y-112196541D01*
X124319410Y-111632962D01*
X124382993Y-111615925D01*
X124497007Y-111550099D01*
X124590099Y-111457007D01*
X124655925Y-111342993D01*
X124672962Y-111279409D01*
X125236541Y-111842988D01*
G37*
%TD.AperFunction*%
%TA.AperFunction,Conductor*%
G36*
X147145299Y-108220185D02*
G01*
X147191054Y-108272989D01*
X147201550Y-108337755D01*
X147200000Y-108352171D01*
X147200000Y-108750000D01*
X149800000Y-108750000D01*
X149800000Y-108510019D01*
X149819685Y-108442980D01*
X149872489Y-108397225D01*
X149941647Y-108387281D01*
X150005203Y-108416306D01*
X150011681Y-108422338D01*
X151273162Y-109683819D01*
X151306647Y-109745142D01*
X151301663Y-109814834D01*
X151259791Y-109870767D01*
X151194327Y-109895184D01*
X151185481Y-109895500D01*
X151091264Y-109895500D01*
X150896236Y-109926389D01*
X150708441Y-109987408D01*
X150532495Y-110077058D01*
X150372753Y-110193115D01*
X150233115Y-110332753D01*
X150117058Y-110492495D01*
X150117056Y-110492499D01*
X150030203Y-110662954D01*
X149982230Y-110713749D01*
X149914409Y-110730544D01*
X149848274Y-110708006D01*
X149809235Y-110662953D01*
X149722520Y-110492768D01*
X149722512Y-110492755D01*
X149696542Y-110457010D01*
X149696541Y-110457009D01*
X149132962Y-111020589D01*
X149115925Y-110957007D01*
X149050099Y-110842993D01*
X148957007Y-110749901D01*
X148842993Y-110684075D01*
X148779409Y-110667037D01*
X149329004Y-110117441D01*
X149329005Y-110117440D01*
X149365403Y-110081043D01*
X149392013Y-110066512D01*
X149426723Y-110047559D01*
X149426725Y-110047559D01*
X149426727Y-110047558D01*
X149426741Y-110047559D01*
X149479442Y-110047559D01*
X149511887Y-110054617D01*
X149542090Y-110043352D01*
X149542091Y-110043351D01*
X149657187Y-109957190D01*
X149657190Y-109957187D01*
X149743350Y-109842093D01*
X149743354Y-109842086D01*
X149793596Y-109707379D01*
X149793598Y-109707372D01*
X149799999Y-109647844D01*
X149800000Y-109647827D01*
X149800000Y-109250000D01*
X147200000Y-109250000D01*
X147200000Y-109647844D01*
X147206401Y-109707372D01*
X147206403Y-109707379D01*
X147256645Y-109842086D01*
X147256649Y-109842093D01*
X147342809Y-109957187D01*
X147342812Y-109957190D01*
X147457906Y-110043350D01*
X147457913Y-110043354D01*
X147592620Y-110093596D01*
X147592627Y-110093598D01*
X147652155Y-110099999D01*
X147652172Y-110100000D01*
X147742728Y-110100000D01*
X147742727Y-110099999D01*
X147760458Y-110082269D01*
X147821780Y-110048783D01*
X147891472Y-110053767D01*
X147935821Y-110082268D01*
X148520591Y-110667037D01*
X148457007Y-110684075D01*
X148342993Y-110749901D01*
X148249901Y-110842993D01*
X148184075Y-110957007D01*
X148167037Y-111020591D01*
X147603456Y-110457010D01*
X147577483Y-110492760D01*
X147577479Y-110492767D01*
X147490763Y-110662954D01*
X147442788Y-110713749D01*
X147374967Y-110730544D01*
X147308833Y-110708006D01*
X147269798Y-110662957D01*
X147182944Y-110492499D01*
X147182942Y-110492496D01*
X147182941Y-110492494D01*
X147066884Y-110332753D01*
X146927246Y-110193115D01*
X146767504Y-110077058D01*
X146767503Y-110077057D01*
X146767501Y-110077056D01*
X146591561Y-109987409D01*
X146564853Y-109978731D01*
X146403763Y-109926389D01*
X146208736Y-109895500D01*
X146208731Y-109895500D01*
X146011269Y-109895500D01*
X146011264Y-109895500D01*
X145816236Y-109926389D01*
X145628441Y-109987408D01*
X145452495Y-110077058D01*
X145292753Y-110193115D01*
X145153115Y-110332753D01*
X145037058Y-110492495D01*
X144947408Y-110668441D01*
X144886389Y-110856236D01*
X144855500Y-111051263D01*
X144855500Y-111248736D01*
X144868191Y-111328863D01*
X144859237Y-111398156D01*
X144833399Y-111435942D01*
X141506162Y-114763181D01*
X141444839Y-114796666D01*
X141418481Y-114799500D01*
X138322701Y-114799500D01*
X138255662Y-114779815D01*
X138209907Y-114727011D01*
X138199963Y-114657853D01*
X138228988Y-114594297D01*
X138275249Y-114560939D01*
X138362552Y-114524777D01*
X138362553Y-114524776D01*
X138362556Y-114524775D01*
X138477288Y-114448114D01*
X144688583Y-108236819D01*
X144749906Y-108203334D01*
X144776264Y-108200500D01*
X147078260Y-108200500D01*
X147145299Y-108220185D01*
G37*
%TD.AperFunction*%
%TA.AperFunction,Conductor*%
G36*
X179236541Y-111842988D02*
G01*
X179236543Y-111842988D01*
X179262516Y-111807241D01*
X179349235Y-111637046D01*
X179397210Y-111586250D01*
X179465031Y-111569455D01*
X179531165Y-111591992D01*
X179570202Y-111637042D01*
X179633415Y-111761103D01*
X179657058Y-111807505D01*
X179773115Y-111967246D01*
X179912753Y-112106884D01*
X180036158Y-112196541D01*
X180072499Y-112222944D01*
X180248439Y-112312591D01*
X180373637Y-112353270D01*
X180436236Y-112373610D01*
X180631264Y-112404500D01*
X180631269Y-112404500D01*
X180828728Y-112404500D01*
X180828731Y-112404500D01*
X180908865Y-112391807D01*
X180978155Y-112400761D01*
X181015942Y-112426599D01*
X182381162Y-113791819D01*
X182414647Y-113853142D01*
X182409663Y-113922834D01*
X182367791Y-113978767D01*
X182302327Y-114003184D01*
X182293481Y-114003500D01*
X181841316Y-114003500D01*
X181817124Y-114001117D01*
X181808994Y-113999500D01*
X179541519Y-113999500D01*
X179474480Y-113979815D01*
X179453838Y-113963181D01*
X178106338Y-112615681D01*
X178072853Y-112554358D01*
X178077837Y-112484666D01*
X178119709Y-112428733D01*
X178185173Y-112404316D01*
X178194019Y-112404000D01*
X178288697Y-112404000D01*
X178483646Y-112373123D01*
X178671373Y-112312126D01*
X178847241Y-112222516D01*
X178882988Y-112196543D01*
X178882988Y-112196541D01*
X178319408Y-111632962D01*
X178382993Y-111615925D01*
X178497007Y-111550099D01*
X178590099Y-111457007D01*
X178655925Y-111342993D01*
X178672962Y-111279409D01*
X179236541Y-111842988D01*
G37*
%TD.AperFunction*%
%TA.AperFunction,Conductor*%
G36*
X176643039Y-105420185D02*
G01*
X176688794Y-105472989D01*
X176700000Y-105524500D01*
X176700000Y-105750000D01*
X179300000Y-105750000D01*
X179300000Y-105524500D01*
X179319685Y-105457461D01*
X179372489Y-105411706D01*
X179424000Y-105400500D01*
X201398481Y-105400500D01*
X201465520Y-105420185D01*
X201486162Y-105436819D01*
X204463162Y-108413819D01*
X204471651Y-108429365D01*
X204484203Y-108441871D01*
X204488049Y-108459396D01*
X204496647Y-108475142D01*
X204495383Y-108492812D01*
X204499181Y-108510117D01*
X204492942Y-108526937D01*
X204491663Y-108544834D01*
X204481045Y-108559016D01*
X204474886Y-108575626D01*
X204460542Y-108586404D01*
X204449791Y-108600767D01*
X204433146Y-108606992D01*
X204419030Y-108617601D01*
X204391371Y-108622617D01*
X204384556Y-108625167D01*
X204380018Y-108625500D01*
X204281269Y-108625500D01*
X204196007Y-108639003D01*
X204190812Y-108639385D01*
X204161539Y-108633074D01*
X204131841Y-108629236D01*
X204126363Y-108625490D01*
X204122512Y-108624660D01*
X204116742Y-108618911D01*
X204094056Y-108603399D01*
X203446546Y-107955888D01*
X203446545Y-107955887D01*
X203331807Y-107879222D01*
X203204332Y-107826421D01*
X203204322Y-107826418D01*
X203068996Y-107799500D01*
X203068994Y-107799500D01*
X203068993Y-107799500D01*
X191068994Y-107799500D01*
X190931006Y-107799500D01*
X190931004Y-107799500D01*
X190795677Y-107826418D01*
X190795667Y-107826421D01*
X190668192Y-107879222D01*
X190553454Y-107955887D01*
X188635942Y-109873399D01*
X188574619Y-109906884D01*
X188528863Y-109908191D01*
X188448736Y-109895500D01*
X188448731Y-109895500D01*
X188251269Y-109895500D01*
X188251264Y-109895500D01*
X188056236Y-109926389D01*
X187868441Y-109987408D01*
X187692495Y-110077058D01*
X187532753Y-110193115D01*
X187393115Y-110332753D01*
X187277058Y-110492495D01*
X187277056Y-110492499D01*
X187190203Y-110662954D01*
X187142230Y-110713749D01*
X187074409Y-110730544D01*
X187008274Y-110708006D01*
X186969235Y-110662953D01*
X186882520Y-110492768D01*
X186882512Y-110492755D01*
X186856542Y-110457010D01*
X186856541Y-110457009D01*
X186292962Y-111020589D01*
X186275925Y-110957007D01*
X186210099Y-110842993D01*
X186117007Y-110749901D01*
X186002993Y-110684075D01*
X185939409Y-110667037D01*
X186502989Y-110103457D01*
X186467239Y-110077483D01*
X186291373Y-109987873D01*
X186103646Y-109926876D01*
X185908697Y-109896000D01*
X185711303Y-109896000D01*
X185516353Y-109926876D01*
X185328626Y-109987873D01*
X185152762Y-110077482D01*
X185152760Y-110077483D01*
X185117010Y-110103456D01*
X185117010Y-110103457D01*
X185680591Y-110667037D01*
X185617007Y-110684075D01*
X185502993Y-110749901D01*
X185409901Y-110842993D01*
X185344075Y-110957007D01*
X185327037Y-111020590D01*
X184763457Y-110457010D01*
X184763456Y-110457010D01*
X184737483Y-110492760D01*
X184737479Y-110492767D01*
X184650763Y-110662954D01*
X184602788Y-110713749D01*
X184534967Y-110730544D01*
X184468833Y-110708006D01*
X184429798Y-110662957D01*
X184342944Y-110492499D01*
X184342942Y-110492496D01*
X184342941Y-110492494D01*
X184226884Y-110332753D01*
X184087246Y-110193115D01*
X183927504Y-110077058D01*
X183927503Y-110077057D01*
X183927501Y-110077056D01*
X183751561Y-109987409D01*
X183724853Y-109978731D01*
X183563763Y-109926389D01*
X183368736Y-109895500D01*
X183368731Y-109895500D01*
X183171269Y-109895500D01*
X183171264Y-109895500D01*
X182976236Y-109926389D01*
X182788441Y-109987408D01*
X182612495Y-110077058D01*
X182452753Y-110193115D01*
X182313115Y-110332753D01*
X182197058Y-110492495D01*
X182197056Y-110492499D01*
X182116805Y-110650000D01*
X182110485Y-110662403D01*
X182062510Y-110713199D01*
X181994689Y-110729994D01*
X181928554Y-110707456D01*
X181889515Y-110662403D01*
X181802944Y-110492499D01*
X181777159Y-110457009D01*
X181686884Y-110332753D01*
X181547250Y-110193119D01*
X181547245Y-110193115D01*
X181481615Y-110145432D01*
X181438949Y-110090102D01*
X181430500Y-110045114D01*
X181430500Y-109061004D01*
X181403581Y-108925677D01*
X181403580Y-108925676D01*
X181403580Y-108925672D01*
X181350775Y-108798189D01*
X181330907Y-108768454D01*
X181274114Y-108683456D01*
X179546545Y-106955887D01*
X179431807Y-106879222D01*
X179366423Y-106852140D01*
X179312019Y-106808299D01*
X179289954Y-106742005D01*
X179293201Y-106709054D01*
X179293598Y-106707371D01*
X179299999Y-106647844D01*
X179300000Y-106647827D01*
X179300000Y-106250000D01*
X176700000Y-106250000D01*
X176700000Y-106647828D01*
X176701550Y-106662245D01*
X176689144Y-106731004D01*
X176641534Y-106782142D01*
X176578260Y-106799500D01*
X172931004Y-106799500D01*
X172795677Y-106826418D01*
X172795667Y-106826421D01*
X172668192Y-106879222D01*
X172553454Y-106955887D01*
X172553453Y-106955888D01*
X165746162Y-113763181D01*
X165684839Y-113796666D01*
X165658481Y-113799500D01*
X157421518Y-113799500D01*
X157354479Y-113779815D01*
X157333837Y-113763181D01*
X156186838Y-112616181D01*
X156153353Y-112554858D01*
X156158337Y-112485166D01*
X156200209Y-112429233D01*
X156265673Y-112404816D01*
X156274519Y-112404500D01*
X156368736Y-112404500D01*
X156563763Y-112373610D01*
X156565262Y-112373123D01*
X156751561Y-112312591D01*
X156927501Y-112222944D01*
X157024911Y-112152172D01*
X157087246Y-112106884D01*
X157087248Y-112106881D01*
X157087252Y-112106879D01*
X157226879Y-111967252D01*
X157226881Y-111967248D01*
X157226884Y-111967246D01*
X157342943Y-111807502D01*
X157345741Y-111802011D01*
X157429797Y-111637043D01*
X157477768Y-111586250D01*
X157545589Y-111569455D01*
X157611724Y-111591992D01*
X157650763Y-111637045D01*
X157737481Y-111807236D01*
X157763457Y-111842988D01*
X157763457Y-111842989D01*
X158327037Y-111279409D01*
X158344075Y-111342993D01*
X158409901Y-111457007D01*
X158502993Y-111550099D01*
X158617007Y-111615925D01*
X158680590Y-111632962D01*
X158117009Y-112196541D01*
X158117010Y-112196542D01*
X158152755Y-112222512D01*
X158152768Y-112222520D01*
X158328626Y-112312126D01*
X158516353Y-112373123D01*
X158711303Y-112404000D01*
X158908697Y-112404000D01*
X159103646Y-112373123D01*
X159291373Y-112312126D01*
X159467241Y-112222516D01*
X159502988Y-112196543D01*
X159502988Y-112196541D01*
X158939410Y-111632962D01*
X159002993Y-111615925D01*
X159117007Y-111550099D01*
X159210099Y-111457007D01*
X159275925Y-111342993D01*
X159292962Y-111279409D01*
X159856541Y-111842988D01*
X159856543Y-111842988D01*
X159882516Y-111807241D01*
X159969235Y-111637046D01*
X160017210Y-111586250D01*
X160085031Y-111569455D01*
X160151165Y-111591992D01*
X160190202Y-111637042D01*
X160253415Y-111761103D01*
X160277058Y-111807505D01*
X160393115Y-111967246D01*
X160532753Y-112106884D01*
X160656158Y-112196541D01*
X160692499Y-112222944D01*
X160868439Y-112312591D01*
X160993637Y-112353270D01*
X161056236Y-112373610D01*
X161251264Y-112404500D01*
X161251269Y-112404500D01*
X161448736Y-112404500D01*
X161643763Y-112373610D01*
X161645262Y-112373123D01*
X161831561Y-112312591D01*
X162007501Y-112222944D01*
X162104911Y-112152172D01*
X162167246Y-112106884D01*
X162167248Y-112106881D01*
X162167252Y-112106879D01*
X162306879Y-111967252D01*
X162306881Y-111967248D01*
X162306884Y-111967246D01*
X162422941Y-111807505D01*
X162422943Y-111807502D01*
X162422944Y-111807501D01*
X162509517Y-111637593D01*
X162557490Y-111586800D01*
X162625311Y-111570005D01*
X162691446Y-111592542D01*
X162730482Y-111637593D01*
X162793412Y-111761098D01*
X162817058Y-111807505D01*
X162933115Y-111967246D01*
X163072753Y-112106884D01*
X163196158Y-112196541D01*
X163232499Y-112222944D01*
X163408439Y-112312591D01*
X163533637Y-112353270D01*
X163596236Y-112373610D01*
X163791264Y-112404500D01*
X163791269Y-112404500D01*
X163988736Y-112404500D01*
X164183763Y-112373610D01*
X164185262Y-112373123D01*
X164371561Y-112312591D01*
X164547501Y-112222944D01*
X164644911Y-112152172D01*
X164707246Y-112106884D01*
X164707248Y-112106881D01*
X164707252Y-112106879D01*
X164846879Y-111967252D01*
X164846881Y-111967248D01*
X164846884Y-111967246D01*
X164916326Y-111871666D01*
X164962944Y-111807501D01*
X165052591Y-111631561D01*
X165113610Y-111443763D01*
X165116614Y-111424796D01*
X165144500Y-111248736D01*
X165144500Y-111051271D01*
X165143316Y-111043796D01*
X165131807Y-110971132D01*
X165140761Y-110901843D01*
X165166596Y-110864059D01*
X170593837Y-105436819D01*
X170655160Y-105403334D01*
X170681518Y-105400500D01*
X176576000Y-105400500D01*
X176643039Y-105420185D01*
G37*
%TD.AperFunction*%
%TA.AperFunction,Conductor*%
G36*
X167476521Y-103820185D02*
G01*
X167522276Y-103872989D01*
X167532220Y-103942147D01*
X167503195Y-104005703D01*
X167497163Y-104012181D01*
X161635942Y-109873399D01*
X161574619Y-109906884D01*
X161528863Y-109908191D01*
X161448736Y-109895500D01*
X161448731Y-109895500D01*
X161251269Y-109895500D01*
X161251264Y-109895500D01*
X161056236Y-109926389D01*
X160868441Y-109987408D01*
X160692495Y-110077058D01*
X160532753Y-110193115D01*
X160393115Y-110332753D01*
X160277058Y-110492495D01*
X160277056Y-110492499D01*
X160190203Y-110662954D01*
X160142230Y-110713749D01*
X160074409Y-110730544D01*
X160008274Y-110708006D01*
X159969235Y-110662953D01*
X159882520Y-110492768D01*
X159882512Y-110492755D01*
X159856542Y-110457010D01*
X159856541Y-110457009D01*
X159292962Y-111020589D01*
X159275925Y-110957007D01*
X159210099Y-110842993D01*
X159117007Y-110749901D01*
X159002993Y-110684075D01*
X158939409Y-110667037D01*
X159502989Y-110103457D01*
X159467239Y-110077483D01*
X159291373Y-109987873D01*
X159103646Y-109926876D01*
X158908697Y-109896000D01*
X158711303Y-109896000D01*
X158516353Y-109926876D01*
X158328626Y-109987873D01*
X158152762Y-110077482D01*
X158152760Y-110077483D01*
X158117010Y-110103456D01*
X158117010Y-110103457D01*
X158680591Y-110667037D01*
X158617007Y-110684075D01*
X158502993Y-110749901D01*
X158409901Y-110842993D01*
X158344075Y-110957007D01*
X158327037Y-111020590D01*
X157763456Y-110457010D01*
X157737483Y-110492760D01*
X157737479Y-110492767D01*
X157650763Y-110662954D01*
X157602788Y-110713749D01*
X157534967Y-110730544D01*
X157468833Y-110708006D01*
X157429798Y-110662957D01*
X157342944Y-110492499D01*
X157342942Y-110492496D01*
X157342941Y-110492494D01*
X157226884Y-110332753D01*
X157087246Y-110193115D01*
X156927504Y-110077058D01*
X156927503Y-110077057D01*
X156927501Y-110077056D01*
X156751561Y-109987409D01*
X156724853Y-109978731D01*
X156563763Y-109926389D01*
X156368736Y-109895500D01*
X156368731Y-109895500D01*
X156171269Y-109895500D01*
X156171264Y-109895500D01*
X155976236Y-109926389D01*
X155788441Y-109987408D01*
X155612495Y-110077058D01*
X155452753Y-110193115D01*
X155313115Y-110332753D01*
X155197058Y-110492495D01*
X155197056Y-110492499D01*
X155116805Y-110650000D01*
X155110485Y-110662403D01*
X155062510Y-110713199D01*
X154994689Y-110729994D01*
X154928554Y-110707456D01*
X154889515Y-110662403D01*
X154802944Y-110492499D01*
X154777159Y-110457009D01*
X154686884Y-110332753D01*
X154547246Y-110193115D01*
X154387504Y-110077058D01*
X154387503Y-110077057D01*
X154387501Y-110077056D01*
X154211561Y-109987409D01*
X154184853Y-109978731D01*
X154023763Y-109926389D01*
X153828736Y-109895500D01*
X153828731Y-109895500D01*
X153631269Y-109895500D01*
X153631264Y-109895500D01*
X153551134Y-109908191D01*
X153481841Y-109899236D01*
X153444056Y-109873399D01*
X150526546Y-106955888D01*
X150526545Y-106955887D01*
X150411807Y-106879222D01*
X150284332Y-106826421D01*
X150284322Y-106826418D01*
X150148996Y-106799500D01*
X150148994Y-106799500D01*
X150148993Y-106799500D01*
X149921740Y-106799500D01*
X149854701Y-106779815D01*
X149808946Y-106727011D01*
X149798450Y-106662245D01*
X149799999Y-106647828D01*
X149800000Y-106647827D01*
X149800000Y-106250000D01*
X147200000Y-106250000D01*
X147200000Y-106647828D01*
X147201550Y-106662245D01*
X147189144Y-106731004D01*
X147141534Y-106782142D01*
X147078260Y-106799500D01*
X144365749Y-106799500D01*
X144230422Y-106826418D01*
X144230412Y-106826421D01*
X144102937Y-106879222D01*
X143988199Y-106955887D01*
X143988198Y-106955888D01*
X137776907Y-113167181D01*
X137715584Y-113200666D01*
X137689226Y-113203500D01*
X129825519Y-113203500D01*
X129758480Y-113183815D01*
X129737838Y-113167181D01*
X129186838Y-112616181D01*
X129153353Y-112554858D01*
X129158337Y-112485166D01*
X129200209Y-112429233D01*
X129265673Y-112404816D01*
X129274519Y-112404500D01*
X129368736Y-112404500D01*
X129563763Y-112373610D01*
X129565262Y-112373123D01*
X129751561Y-112312591D01*
X129927501Y-112222944D01*
X130024911Y-112152172D01*
X130087246Y-112106884D01*
X130087248Y-112106881D01*
X130087252Y-112106879D01*
X130226879Y-111967252D01*
X130226881Y-111967248D01*
X130226884Y-111967246D01*
X130342943Y-111807502D01*
X130345741Y-111802011D01*
X130429797Y-111637043D01*
X130477768Y-111586250D01*
X130545589Y-111569455D01*
X130611724Y-111591992D01*
X130650763Y-111637045D01*
X130737481Y-111807236D01*
X130763457Y-111842988D01*
X130763457Y-111842989D01*
X131327037Y-111279409D01*
X131344075Y-111342993D01*
X131409901Y-111457007D01*
X131502993Y-111550099D01*
X131617007Y-111615925D01*
X131680590Y-111632962D01*
X131117009Y-112196541D01*
X131117010Y-112196542D01*
X131152755Y-112222512D01*
X131152768Y-112222520D01*
X131328626Y-112312126D01*
X131516353Y-112373123D01*
X131711303Y-112404000D01*
X131908697Y-112404000D01*
X132103646Y-112373123D01*
X132291373Y-112312126D01*
X132467241Y-112222516D01*
X132502988Y-112196543D01*
X132502988Y-112196541D01*
X131939410Y-111632962D01*
X132002993Y-111615925D01*
X132117007Y-111550099D01*
X132210099Y-111457007D01*
X132275925Y-111342993D01*
X132292962Y-111279409D01*
X132856541Y-111842988D01*
X132856543Y-111842988D01*
X132882516Y-111807241D01*
X132969235Y-111637046D01*
X133017210Y-111586250D01*
X133085031Y-111569455D01*
X133151165Y-111591992D01*
X133190202Y-111637042D01*
X133253415Y-111761103D01*
X133277058Y-111807505D01*
X133393115Y-111967246D01*
X133532753Y-112106884D01*
X133656158Y-112196541D01*
X133692499Y-112222944D01*
X133868439Y-112312591D01*
X133993637Y-112353270D01*
X134056236Y-112373610D01*
X134251264Y-112404500D01*
X134251269Y-112404500D01*
X134448736Y-112404500D01*
X134643763Y-112373610D01*
X134645262Y-112373123D01*
X134831561Y-112312591D01*
X135007501Y-112222944D01*
X135104911Y-112152172D01*
X135167246Y-112106884D01*
X135167248Y-112106881D01*
X135167252Y-112106879D01*
X135306879Y-111967252D01*
X135306881Y-111967248D01*
X135306884Y-111967246D01*
X135422941Y-111807505D01*
X135422943Y-111807502D01*
X135422944Y-111807501D01*
X135509517Y-111637593D01*
X135557490Y-111586800D01*
X135625311Y-111570005D01*
X135691446Y-111592542D01*
X135730482Y-111637593D01*
X135793412Y-111761098D01*
X135817058Y-111807505D01*
X135933115Y-111967246D01*
X136072753Y-112106884D01*
X136196158Y-112196541D01*
X136232499Y-112222944D01*
X136408439Y-112312591D01*
X136533637Y-112353270D01*
X136596236Y-112373610D01*
X136791264Y-112404500D01*
X136791269Y-112404500D01*
X136988736Y-112404500D01*
X137183763Y-112373610D01*
X137185262Y-112373123D01*
X137371561Y-112312591D01*
X137547501Y-112222944D01*
X137644911Y-112152172D01*
X137707246Y-112106884D01*
X137707248Y-112106881D01*
X137707252Y-112106879D01*
X137846879Y-111967252D01*
X137846881Y-111967248D01*
X137846884Y-111967246D01*
X137916326Y-111871666D01*
X137962944Y-111807501D01*
X138052591Y-111631561D01*
X138113610Y-111443763D01*
X138116614Y-111424796D01*
X138144500Y-111248736D01*
X138144500Y-111051271D01*
X138143316Y-111043796D01*
X138131807Y-110971132D01*
X138140761Y-110901843D01*
X138166596Y-110864059D01*
X143678502Y-105352155D01*
X147200000Y-105352155D01*
X147200000Y-105750000D01*
X148250000Y-105750000D01*
X148750000Y-105750000D01*
X149800000Y-105750000D01*
X149800000Y-105352172D01*
X149799999Y-105352155D01*
X149793598Y-105292627D01*
X149793596Y-105292620D01*
X149743354Y-105157913D01*
X149743350Y-105157906D01*
X149657190Y-105042812D01*
X149657187Y-105042809D01*
X149542093Y-104956649D01*
X149542086Y-104956645D01*
X149407379Y-104906403D01*
X149407372Y-104906401D01*
X149347844Y-104900000D01*
X148750000Y-104900000D01*
X148750000Y-105750000D01*
X148250000Y-105750000D01*
X148250000Y-104900000D01*
X147652155Y-104900000D01*
X147592627Y-104906401D01*
X147592620Y-104906403D01*
X147457913Y-104956645D01*
X147457906Y-104956649D01*
X147342812Y-105042809D01*
X147342809Y-105042812D01*
X147256649Y-105157906D01*
X147256645Y-105157913D01*
X147206403Y-105292620D01*
X147206401Y-105292627D01*
X147200000Y-105352155D01*
X143678502Y-105352155D01*
X145193838Y-103836819D01*
X145255161Y-103803334D01*
X145281519Y-103800500D01*
X167409482Y-103800500D01*
X167476521Y-103820185D01*
G37*
%TD.AperFunction*%
%TA.AperFunction,Conductor*%
G36*
X176593281Y-108204910D02*
G01*
X176608926Y-108204352D01*
X176626119Y-108214553D01*
X176645299Y-108220185D01*
X176655549Y-108232014D01*
X176669015Y-108240004D01*
X176677964Y-108257883D01*
X176691054Y-108272989D01*
X176693700Y-108289318D01*
X176700290Y-108302483D01*
X176701550Y-108337755D01*
X176700000Y-108352171D01*
X176700000Y-108750000D01*
X179307981Y-108750000D01*
X179375020Y-108769685D01*
X179395662Y-108786319D01*
X179993181Y-109383838D01*
X180026666Y-109445161D01*
X180029500Y-109471519D01*
X180029500Y-110045114D01*
X180009815Y-110112153D01*
X179978385Y-110145432D01*
X179912754Y-110193115D01*
X179912749Y-110193119D01*
X179773115Y-110332753D01*
X179657058Y-110492495D01*
X179657056Y-110492499D01*
X179570203Y-110662954D01*
X179522230Y-110713749D01*
X179454409Y-110730544D01*
X179388274Y-110708006D01*
X179349235Y-110662953D01*
X179262520Y-110492768D01*
X179262512Y-110492755D01*
X179236542Y-110457010D01*
X179236541Y-110457009D01*
X178672962Y-111020589D01*
X178655925Y-110957007D01*
X178590099Y-110842993D01*
X178497007Y-110749901D01*
X178382993Y-110684075D01*
X178319409Y-110667037D01*
X178876084Y-110110360D01*
X178876085Y-110110359D01*
X178912392Y-110074053D01*
X178939002Y-110059522D01*
X178973712Y-110040569D01*
X178973714Y-110040569D01*
X178973716Y-110040568D01*
X178973730Y-110040569D01*
X179026479Y-110040579D01*
X179041023Y-110043749D01*
X179042087Y-110043353D01*
X179157190Y-109957186D01*
X179243350Y-109842093D01*
X179243354Y-109842086D01*
X179293596Y-109707379D01*
X179293598Y-109707372D01*
X179299999Y-109647844D01*
X179300000Y-109647827D01*
X179300000Y-109250000D01*
X176700000Y-109250000D01*
X176700000Y-109647844D01*
X176706401Y-109707372D01*
X176706403Y-109707379D01*
X176756645Y-109842086D01*
X176756649Y-109842093D01*
X176842809Y-109957187D01*
X176842812Y-109957190D01*
X176957906Y-110043350D01*
X176957913Y-110043354D01*
X177092620Y-110093596D01*
X177092627Y-110093598D01*
X177152155Y-110099999D01*
X177152172Y-110100000D01*
X177282728Y-110100000D01*
X177282727Y-110099999D01*
X177300458Y-110082269D01*
X177361780Y-110048783D01*
X177431472Y-110053767D01*
X177475821Y-110082268D01*
X178060591Y-110667037D01*
X177997007Y-110684075D01*
X177882993Y-110749901D01*
X177789901Y-110842993D01*
X177724075Y-110957007D01*
X177707037Y-111020591D01*
X177143457Y-110457010D01*
X177143456Y-110457010D01*
X177117483Y-110492760D01*
X177117479Y-110492767D01*
X177030763Y-110662954D01*
X176982788Y-110713749D01*
X176914967Y-110730544D01*
X176848833Y-110708006D01*
X176809798Y-110662957D01*
X176722944Y-110492499D01*
X176722942Y-110492496D01*
X176722941Y-110492494D01*
X176606884Y-110332753D01*
X176467246Y-110193115D01*
X176307504Y-110077058D01*
X176307503Y-110077057D01*
X176307501Y-110077056D01*
X176131561Y-109987409D01*
X176104853Y-109978731D01*
X175943763Y-109926389D01*
X175748736Y-109895500D01*
X175748731Y-109895500D01*
X175551269Y-109895500D01*
X175551264Y-109895500D01*
X175471134Y-109908191D01*
X175401841Y-109899236D01*
X175364056Y-109873399D01*
X174776977Y-109286319D01*
X174742545Y-109251887D01*
X174627807Y-109175222D01*
X174500332Y-109122421D01*
X174500322Y-109122418D01*
X174364996Y-109095500D01*
X174364994Y-109095500D01*
X174364993Y-109095500D01*
X172694518Y-109095500D01*
X172627479Y-109075815D01*
X172581724Y-109023011D01*
X172571780Y-108953853D01*
X172600805Y-108890297D01*
X172606837Y-108883819D01*
X172834267Y-108656390D01*
X173253838Y-108236819D01*
X173315161Y-108203334D01*
X173341519Y-108200500D01*
X176578260Y-108200500D01*
X176593281Y-108204910D01*
G37*
%TD.AperFunction*%
%TA.AperFunction,Conductor*%
G36*
X222003736Y-100500726D02*
G01*
X222293796Y-100518271D01*
X222308659Y-100520076D01*
X222590797Y-100571780D01*
X222605334Y-100575363D01*
X222879182Y-100660698D01*
X222893163Y-100666000D01*
X223154734Y-100783724D01*
X223167987Y-100790680D01*
X223413458Y-100939071D01*
X223425776Y-100947573D01*
X223578388Y-101067137D01*
X223651573Y-101124474D01*
X223662781Y-101134404D01*
X223865595Y-101337218D01*
X223875525Y-101348426D01*
X224052422Y-101574217D01*
X224060928Y-101586541D01*
X224209319Y-101832012D01*
X224216277Y-101845269D01*
X224306988Y-102046820D01*
X224333994Y-102106823D01*
X224339304Y-102120825D01*
X224424635Y-102394664D01*
X224428219Y-102409202D01*
X224479923Y-102691340D01*
X224481728Y-102706205D01*
X224499274Y-102996263D01*
X224499500Y-103003750D01*
X224499500Y-131996249D01*
X224499274Y-132003736D01*
X224481728Y-132293794D01*
X224479923Y-132308659D01*
X224428219Y-132590797D01*
X224424635Y-132605335D01*
X224339304Y-132879174D01*
X224333994Y-132893176D01*
X224216277Y-133154730D01*
X224209319Y-133167987D01*
X224060928Y-133413458D01*
X224052422Y-133425782D01*
X223875525Y-133651573D01*
X223865595Y-133662781D01*
X223662781Y-133865595D01*
X223651573Y-133875525D01*
X223425782Y-134052422D01*
X223413458Y-134060928D01*
X223167987Y-134209319D01*
X223154730Y-134216277D01*
X222893176Y-134333994D01*
X222879174Y-134339304D01*
X222605335Y-134424635D01*
X222590797Y-134428219D01*
X222308659Y-134479923D01*
X222293794Y-134481728D01*
X222003736Y-134499274D01*
X221996249Y-134499500D01*
X103003751Y-134499500D01*
X102996264Y-134499274D01*
X102706205Y-134481728D01*
X102691340Y-134479923D01*
X102409202Y-134428219D01*
X102394664Y-134424635D01*
X102120825Y-134339304D01*
X102106827Y-134333995D01*
X101954096Y-134265256D01*
X101845269Y-134216277D01*
X101832012Y-134209319D01*
X101586541Y-134060928D01*
X101574217Y-134052422D01*
X101348426Y-133875525D01*
X101337218Y-133865595D01*
X101134404Y-133662781D01*
X101124474Y-133651573D01*
X101099969Y-133620295D01*
X100947573Y-133425776D01*
X100939071Y-133413458D01*
X100790680Y-133167987D01*
X100783722Y-133154730D01*
X100666000Y-132893163D01*
X100660698Y-132879182D01*
X100575363Y-132605334D01*
X100571780Y-132590797D01*
X100520076Y-132308659D01*
X100518271Y-132293794D01*
X100500726Y-132003736D01*
X100500500Y-131996249D01*
X100500500Y-131859041D01*
X100849500Y-131859041D01*
X100849500Y-132140958D01*
X100886295Y-132420439D01*
X100959259Y-132692743D01*
X101067135Y-132953179D01*
X101067140Y-132953190D01*
X101173715Y-133137782D01*
X101208088Y-133197317D01*
X101378866Y-133419878D01*
X101379704Y-133420970D01*
X101579029Y-133620295D01*
X101579033Y-133620298D01*
X101579035Y-133620300D01*
X101802683Y-133791912D01*
X101802690Y-133791916D01*
X102046809Y-133932859D01*
X102046814Y-133932861D01*
X102046817Y-133932863D01*
X102307261Y-134040742D01*
X102579558Y-134113704D01*
X102859049Y-134150500D01*
X102859056Y-134150500D01*
X103140944Y-134150500D01*
X103140951Y-134150500D01*
X103420442Y-134113704D01*
X103692739Y-134040742D01*
X103953183Y-133932863D01*
X104197317Y-133791912D01*
X104420965Y-133620300D01*
X104620300Y-133420965D01*
X104791912Y-133197317D01*
X104932863Y-132953183D01*
X105040742Y-132692739D01*
X105113704Y-132420442D01*
X105150500Y-132140951D01*
X105150500Y-131859049D01*
X105113704Y-131579558D01*
X105040742Y-131307261D01*
X104932863Y-131046817D01*
X104932861Y-131046814D01*
X104932859Y-131046809D01*
X104791916Y-130802690D01*
X104791912Y-130802683D01*
X104620300Y-130579035D01*
X104620298Y-130579033D01*
X104620295Y-130579029D01*
X104420970Y-130379704D01*
X104420965Y-130379700D01*
X104197317Y-130208088D01*
X104197311Y-130208084D01*
X104197309Y-130208083D01*
X103953190Y-130067140D01*
X103953179Y-130067135D01*
X103692743Y-129959259D01*
X103420439Y-129886295D01*
X103140958Y-129849500D01*
X103140951Y-129849500D01*
X102859049Y-129849500D01*
X102859041Y-129849500D01*
X102579560Y-129886295D01*
X102307256Y-129959259D01*
X102046820Y-130067135D01*
X102046809Y-130067140D01*
X101802690Y-130208083D01*
X101802682Y-130208089D01*
X101579029Y-130379704D01*
X101379704Y-130579029D01*
X101208089Y-130802682D01*
X101208083Y-130802690D01*
X101067140Y-131046809D01*
X101067135Y-131046820D01*
X100959259Y-131307256D01*
X100886295Y-131579560D01*
X100849500Y-131859041D01*
X100500500Y-131859041D01*
X100500500Y-111327135D01*
X103259500Y-111327135D01*
X103259500Y-114422870D01*
X103259501Y-114422876D01*
X103265908Y-114482483D01*
X103316202Y-114617328D01*
X103316206Y-114617335D01*
X103402452Y-114732544D01*
X103402455Y-114732547D01*
X103517664Y-114818793D01*
X103517671Y-114818797D01*
X103562618Y-114835561D01*
X103652517Y-114869091D01*
X103712127Y-114875500D01*
X103935716Y-114875499D01*
X104002756Y-114895183D01*
X104023398Y-114911818D01*
X106325681Y-117214101D01*
X106359166Y-117275424D01*
X106362000Y-117301782D01*
X106362000Y-118715902D01*
X106402640Y-118972493D01*
X106482922Y-119219576D01*
X106600868Y-119451054D01*
X106753327Y-119660896D01*
X106753569Y-119661229D01*
X106937271Y-119844931D01*
X107147449Y-119997634D01*
X107262501Y-120056256D01*
X107378923Y-120115577D01*
X107378925Y-120115577D01*
X107378928Y-120115579D01*
X107626007Y-120195860D01*
X107758206Y-120216797D01*
X107882598Y-120236500D01*
X107882603Y-120236500D01*
X108142402Y-120236500D01*
X108255798Y-120218539D01*
X108398993Y-120195860D01*
X108646072Y-120115579D01*
X108877551Y-119997634D01*
X108907344Y-119975988D01*
X108926048Y-119962399D01*
X108991854Y-119938918D01*
X109059908Y-119954743D01*
X109086615Y-119975035D01*
X113596235Y-124484655D01*
X113596264Y-124484686D01*
X113738714Y-124627136D01*
X113738718Y-124627139D01*
X113902579Y-124736628D01*
X113902583Y-124736630D01*
X113902586Y-124736632D01*
X114027054Y-124788188D01*
X114084664Y-124812051D01*
X114181312Y-124831275D01*
X114231772Y-124841312D01*
X114277958Y-124850500D01*
X114277959Y-124850500D01*
X114277960Y-124850500D01*
X114475040Y-124850500D01*
X117375500Y-124850500D01*
X117442539Y-124870185D01*
X117488294Y-124922989D01*
X117499500Y-124974500D01*
X117499500Y-125358561D01*
X117479815Y-125425600D01*
X117474767Y-125432872D01*
X117456204Y-125457668D01*
X117456202Y-125457671D01*
X117405908Y-125592517D01*
X117399501Y-125652116D01*
X117399501Y-125652123D01*
X117399500Y-125652135D01*
X117399500Y-127347870D01*
X117399501Y-127347876D01*
X117405908Y-127407483D01*
X117456203Y-127542329D01*
X117474766Y-127567126D01*
X117482504Y-127587874D01*
X117494477Y-127606503D01*
X117497628Y-127628418D01*
X117499184Y-127632590D01*
X117499500Y-127641438D01*
X117499500Y-127858561D01*
X117479815Y-127925600D01*
X117474767Y-127932872D01*
X117456204Y-127957668D01*
X117456202Y-127957671D01*
X117405908Y-128092517D01*
X117401960Y-128129242D01*
X117399501Y-128152123D01*
X117399500Y-128152135D01*
X117399500Y-129847870D01*
X117399501Y-129847876D01*
X117405908Y-129907483D01*
X117456202Y-130042328D01*
X117456206Y-130042335D01*
X117542452Y-130157544D01*
X117542455Y-130157547D01*
X117657664Y-130243793D01*
X117657671Y-130243797D01*
X117687837Y-130255048D01*
X117792517Y-130294091D01*
X117852127Y-130300500D01*
X118334217Y-130300499D01*
X118401256Y-130320183D01*
X118421897Y-130336817D01*
X121222860Y-133137781D01*
X121222861Y-133137782D01*
X121362218Y-133277139D01*
X121526086Y-133386632D01*
X121606350Y-133419878D01*
X121708164Y-133462051D01*
X121891213Y-133498462D01*
X121901454Y-133500499D01*
X121901457Y-133500500D01*
X121901459Y-133500500D01*
X143251042Y-133500500D01*
X143282066Y-133494328D01*
X143347688Y-133481275D01*
X143444336Y-133462051D01*
X143497665Y-133439961D01*
X143626414Y-133386632D01*
X143790282Y-133277139D01*
X143929639Y-133137782D01*
X143929639Y-133137780D01*
X143939847Y-133127573D01*
X143939848Y-133127570D01*
X145412322Y-131655097D01*
X145473641Y-131621615D01*
X145543333Y-131626599D01*
X145587679Y-131655099D01*
X147070360Y-133137781D01*
X147070361Y-133137782D01*
X147209718Y-133277139D01*
X147373586Y-133386632D01*
X147453850Y-133419878D01*
X147555664Y-133462051D01*
X147738713Y-133498462D01*
X147748954Y-133500499D01*
X147748957Y-133500500D01*
X147748959Y-133500500D01*
X169098542Y-133500500D01*
X169129566Y-133494328D01*
X169195188Y-133481275D01*
X169291836Y-133462051D01*
X169345165Y-133439961D01*
X169473914Y-133386632D01*
X169637782Y-133277139D01*
X169777139Y-133137782D01*
X169777139Y-133137780D01*
X169787347Y-133127573D01*
X169787348Y-133127570D01*
X171055878Y-131859041D01*
X219849500Y-131859041D01*
X219849500Y-132140958D01*
X219886295Y-132420439D01*
X219959259Y-132692743D01*
X220067135Y-132953179D01*
X220067140Y-132953190D01*
X220173715Y-133137782D01*
X220208088Y-133197317D01*
X220378866Y-133419878D01*
X220379704Y-133420970D01*
X220579029Y-133620295D01*
X220579033Y-133620298D01*
X220579035Y-133620300D01*
X220802683Y-133791912D01*
X220802690Y-133791916D01*
X221046809Y-133932859D01*
X221046814Y-133932861D01*
X221046817Y-133932863D01*
X221307261Y-134040742D01*
X221579558Y-134113704D01*
X221859049Y-134150500D01*
X221859056Y-134150500D01*
X222140944Y-134150500D01*
X222140951Y-134150500D01*
X222420442Y-134113704D01*
X222692739Y-134040742D01*
X222953183Y-133932863D01*
X223197317Y-133791912D01*
X223420965Y-133620300D01*
X223620300Y-133420965D01*
X223791912Y-133197317D01*
X223932863Y-132953183D01*
X224040742Y-132692739D01*
X224113704Y-132420442D01*
X224150500Y-132140951D01*
X224150500Y-131859049D01*
X224113704Y-131579558D01*
X224040742Y-131307261D01*
X223932863Y-131046817D01*
X223932861Y-131046814D01*
X223932859Y-131046809D01*
X223791916Y-130802690D01*
X223791912Y-130802683D01*
X223620300Y-130579035D01*
X223620298Y-130579033D01*
X223620295Y-130579029D01*
X223420970Y-130379704D01*
X223420965Y-130379700D01*
X223197317Y-130208088D01*
X223197311Y-130208084D01*
X223197309Y-130208083D01*
X222953190Y-130067140D01*
X222953179Y-130067135D01*
X222692743Y-129959259D01*
X222420439Y-129886295D01*
X222140958Y-129849500D01*
X222140951Y-129849500D01*
X221859049Y-129849500D01*
X221859041Y-129849500D01*
X221579560Y-129886295D01*
X221307256Y-129959259D01*
X221046820Y-130067135D01*
X221046809Y-130067140D01*
X220802690Y-130208083D01*
X220802682Y-130208089D01*
X220579029Y-130379704D01*
X220379704Y-130579029D01*
X220208089Y-130802682D01*
X220208083Y-130802690D01*
X220067140Y-131046809D01*
X220067135Y-131046820D01*
X219959259Y-131307256D01*
X219886295Y-131579560D01*
X219849500Y-131859041D01*
X171055878Y-131859041D01*
X172578102Y-130336818D01*
X172639425Y-130303333D01*
X172665783Y-130300499D01*
X173147871Y-130300499D01*
X173147872Y-130300499D01*
X173207483Y-130294091D01*
X173342331Y-130243796D01*
X173457546Y-130157546D01*
X173543796Y-130042331D01*
X173594091Y-129907483D01*
X173600500Y-129847873D01*
X173600500Y-129847844D01*
X174400000Y-129847844D01*
X174406401Y-129907372D01*
X174406403Y-129907379D01*
X174456645Y-130042086D01*
X174456649Y-130042093D01*
X174542809Y-130157187D01*
X174542812Y-130157190D01*
X174657906Y-130243350D01*
X174657913Y-130243354D01*
X174792620Y-130293596D01*
X174792627Y-130293598D01*
X174852155Y-130299999D01*
X174852172Y-130300000D01*
X175250000Y-130300000D01*
X175750000Y-130300000D01*
X176147828Y-130300000D01*
X176147844Y-130299999D01*
X176207372Y-130293598D01*
X176207379Y-130293596D01*
X176342086Y-130243354D01*
X176342093Y-130243350D01*
X176457187Y-130157190D01*
X176457190Y-130157187D01*
X176543350Y-130042093D01*
X176543354Y-130042086D01*
X176593596Y-129907379D01*
X176593598Y-129907372D01*
X176599999Y-129847844D01*
X176600000Y-129847827D01*
X176600000Y-129250000D01*
X175750000Y-129250000D01*
X175750000Y-130300000D01*
X175250000Y-130300000D01*
X175250000Y-129250000D01*
X174400000Y-129250000D01*
X174400000Y-129847844D01*
X173600500Y-129847844D01*
X173600499Y-128993713D01*
X173600499Y-128152129D01*
X173600498Y-128152123D01*
X173600497Y-128152116D01*
X173594091Y-128092517D01*
X173562444Y-128007668D01*
X173543797Y-127957671D01*
X173543795Y-127957668D01*
X173525233Y-127932872D01*
X173517494Y-127912123D01*
X173505523Y-127893496D01*
X173502371Y-127871579D01*
X173500816Y-127867408D01*
X173500500Y-127858561D01*
X173500500Y-127641438D01*
X173520185Y-127574399D01*
X173525234Y-127567126D01*
X173543796Y-127542331D01*
X173543888Y-127542086D01*
X173594091Y-127407482D01*
X173594103Y-127407372D01*
X173600500Y-127347873D01*
X173600500Y-127347844D01*
X174400000Y-127347844D01*
X174406401Y-127407372D01*
X174406403Y-127407379D01*
X174456645Y-127542086D01*
X174456649Y-127542093D01*
X174542809Y-127657187D01*
X174547941Y-127662319D01*
X174581426Y-127723642D01*
X174576442Y-127793334D01*
X174547941Y-127837681D01*
X174542809Y-127842812D01*
X174456649Y-127957906D01*
X174456645Y-127957913D01*
X174406403Y-128092620D01*
X174406401Y-128092627D01*
X174400000Y-128152155D01*
X174400000Y-128750000D01*
X175250000Y-128750000D01*
X175750000Y-128750000D01*
X176600000Y-128750000D01*
X176600000Y-128152172D01*
X176599999Y-128152155D01*
X176593598Y-128092627D01*
X176593596Y-128092620D01*
X176543354Y-127957913D01*
X176543350Y-127957906D01*
X176457190Y-127842812D01*
X176452059Y-127837681D01*
X176418574Y-127776358D01*
X176423558Y-127706666D01*
X176452059Y-127662319D01*
X176457190Y-127657187D01*
X176543350Y-127542093D01*
X176543354Y-127542086D01*
X176593596Y-127407379D01*
X176593598Y-127407372D01*
X176599999Y-127347844D01*
X176600000Y-127347827D01*
X176600000Y-126750000D01*
X175750000Y-126750000D01*
X175750000Y-128750000D01*
X175250000Y-128750000D01*
X175250000Y-126750000D01*
X174400000Y-126750000D01*
X174400000Y-127347844D01*
X173600500Y-127347844D01*
X173600499Y-126250000D01*
X173600499Y-125652129D01*
X173600498Y-125652123D01*
X173600497Y-125652116D01*
X173594091Y-125592517D01*
X173543884Y-125457906D01*
X173543797Y-125457671D01*
X173543795Y-125457668D01*
X173540503Y-125453271D01*
X173525233Y-125432872D01*
X173517494Y-125412123D01*
X173505523Y-125393496D01*
X173502371Y-125371579D01*
X173500816Y-125367408D01*
X173500500Y-125358561D01*
X173500500Y-125132270D01*
X173520185Y-125065231D01*
X173572989Y-125019476D01*
X173586183Y-125014339D01*
X173591555Y-125012593D01*
X173591555Y-125012592D01*
X173591561Y-125012591D01*
X173767501Y-124922944D01*
X173861615Y-124854567D01*
X173927246Y-124806884D01*
X173927248Y-124806881D01*
X173927252Y-124806879D01*
X174066879Y-124667252D01*
X174066881Y-124667248D01*
X174066884Y-124667246D01*
X174182943Y-124507502D01*
X174183079Y-124507236D01*
X174269797Y-124337043D01*
X174317768Y-124286250D01*
X174385589Y-124269455D01*
X174451724Y-124291992D01*
X174490763Y-124337045D01*
X174577481Y-124507236D01*
X174603457Y-124542988D01*
X174603457Y-124542989D01*
X175167037Y-123979409D01*
X175184075Y-124042993D01*
X175249901Y-124157007D01*
X175342993Y-124250099D01*
X175457007Y-124315925D01*
X175520590Y-124332962D01*
X174957009Y-124896541D01*
X174957010Y-124896542D01*
X174992755Y-124922512D01*
X174992768Y-124922520D01*
X175077149Y-124965515D01*
X175127945Y-125013490D01*
X175144740Y-125081311D01*
X175122202Y-125147446D01*
X175067487Y-125190897D01*
X175020854Y-125200000D01*
X174852155Y-125200000D01*
X174792627Y-125206401D01*
X174792620Y-125206403D01*
X174657913Y-125256645D01*
X174657906Y-125256649D01*
X174542812Y-125342809D01*
X174542809Y-125342812D01*
X174456649Y-125457906D01*
X174456645Y-125457913D01*
X174406403Y-125592620D01*
X174406401Y-125592627D01*
X174400000Y-125652155D01*
X174400000Y-126250000D01*
X176600000Y-126250000D01*
X176600000Y-125652172D01*
X176599999Y-125652155D01*
X176593598Y-125592627D01*
X176593596Y-125592620D01*
X176543354Y-125457913D01*
X176543350Y-125457906D01*
X176457190Y-125342812D01*
X176457187Y-125342809D01*
X176342093Y-125256649D01*
X176342088Y-125256646D01*
X176207681Y-125206515D01*
X176151748Y-125164643D01*
X176127331Y-125099179D01*
X176142183Y-125030906D01*
X176191588Y-124981501D01*
X176194721Y-124979848D01*
X176307237Y-124922518D01*
X176307240Y-124922516D01*
X176342988Y-124896543D01*
X176342988Y-124896541D01*
X175779410Y-124332962D01*
X175842993Y-124315925D01*
X175957007Y-124250099D01*
X176050099Y-124157007D01*
X176115925Y-124042993D01*
X176132962Y-123979409D01*
X176696541Y-124542988D01*
X176696543Y-124542988D01*
X176722516Y-124507241D01*
X176809235Y-124337046D01*
X176857210Y-124286250D01*
X176925031Y-124269455D01*
X176991165Y-124291992D01*
X177030202Y-124337042D01*
X177117056Y-124507501D01*
X177165818Y-124574617D01*
X177189298Y-124640421D01*
X177189500Y-124647501D01*
X177189500Y-128290574D01*
X177169815Y-128357613D01*
X177165820Y-128363457D01*
X177144948Y-128392185D01*
X177048444Y-128581585D01*
X176982753Y-128783760D01*
X176949500Y-128993713D01*
X176949500Y-129206286D01*
X176982753Y-129416239D01*
X177048444Y-129618414D01*
X177144951Y-129807820D01*
X177269890Y-129979786D01*
X177420213Y-130130109D01*
X177592179Y-130255048D01*
X177592181Y-130255049D01*
X177592184Y-130255051D01*
X177781588Y-130351557D01*
X177983757Y-130417246D01*
X178193713Y-130450500D01*
X178193714Y-130450500D01*
X178406286Y-130450500D01*
X178406287Y-130450500D01*
X178616243Y-130417246D01*
X178818412Y-130351557D01*
X179007816Y-130255051D01*
X179072454Y-130208089D01*
X179179786Y-130130109D01*
X179179788Y-130130106D01*
X179179792Y-130130104D01*
X179330104Y-129979792D01*
X179330106Y-129979788D01*
X179330109Y-129979786D01*
X179455048Y-129807820D01*
X179455047Y-129807820D01*
X179455051Y-129807816D01*
X179459514Y-129799054D01*
X179507488Y-129748259D01*
X179575308Y-129731463D01*
X179641444Y-129753999D01*
X179680486Y-129799056D01*
X179684951Y-129807820D01*
X179809890Y-129979786D01*
X179960213Y-130130109D01*
X180132179Y-130255048D01*
X180132181Y-130255049D01*
X180132184Y-130255051D01*
X180321588Y-130351557D01*
X180523757Y-130417246D01*
X180733713Y-130450500D01*
X180733714Y-130450500D01*
X180946286Y-130450500D01*
X180946287Y-130450500D01*
X181156243Y-130417246D01*
X181358412Y-130351557D01*
X181547816Y-130255051D01*
X181612454Y-130208089D01*
X181719786Y-130130109D01*
X181719788Y-130130106D01*
X181719792Y-130130104D01*
X181870104Y-129979792D01*
X181870106Y-129979788D01*
X181870109Y-129979786D01*
X181995048Y-129807820D01*
X181995047Y-129807820D01*
X181995051Y-129807816D01*
X181999514Y-129799054D01*
X182047488Y-129748259D01*
X182115308Y-129731463D01*
X182181444Y-129753999D01*
X182220486Y-129799056D01*
X182224951Y-129807820D01*
X182349890Y-129979786D01*
X182500213Y-130130109D01*
X182672179Y-130255048D01*
X182672181Y-130255049D01*
X182672184Y-130255051D01*
X182861588Y-130351557D01*
X183063757Y-130417246D01*
X183273713Y-130450500D01*
X183273714Y-130450500D01*
X183486286Y-130450500D01*
X183486287Y-130450500D01*
X183696243Y-130417246D01*
X183898412Y-130351557D01*
X184087816Y-130255051D01*
X184259792Y-130130104D01*
X184373329Y-130016566D01*
X184434648Y-129983084D01*
X184504340Y-129988068D01*
X184560274Y-130029939D01*
X184577189Y-130060917D01*
X184626202Y-130192328D01*
X184626206Y-130192335D01*
X184712452Y-130307544D01*
X184712455Y-130307547D01*
X184827664Y-130393793D01*
X184827671Y-130393797D01*
X184962517Y-130444091D01*
X184962516Y-130444091D01*
X184969444Y-130444835D01*
X185022127Y-130450500D01*
X186817872Y-130450499D01*
X186877483Y-130444091D01*
X187012331Y-130393796D01*
X187127546Y-130307546D01*
X187213796Y-130192331D01*
X187264091Y-130057483D01*
X187270500Y-129997873D01*
X187270499Y-128202128D01*
X187264091Y-128142517D01*
X187262810Y-128139083D01*
X187213797Y-128007671D01*
X187213796Y-128007670D01*
X187213796Y-128007669D01*
X187203745Y-127994243D01*
X187179329Y-127928780D01*
X187194180Y-127860507D01*
X187243586Y-127811101D01*
X187311858Y-127796249D01*
X187316219Y-127796639D01*
X187352127Y-127800500D01*
X188647872Y-127800499D01*
X188707483Y-127794091D01*
X188842331Y-127743796D01*
X188957546Y-127657546D01*
X189043796Y-127542331D01*
X189094091Y-127407483D01*
X189100500Y-127347873D01*
X189100500Y-127347844D01*
X189900000Y-127347844D01*
X189906401Y-127407372D01*
X189906403Y-127407379D01*
X189956645Y-127542086D01*
X189956649Y-127542093D01*
X190042809Y-127657187D01*
X190042812Y-127657190D01*
X190157906Y-127743350D01*
X190157913Y-127743354D01*
X190292620Y-127793596D01*
X190292627Y-127793598D01*
X190352155Y-127799999D01*
X190352172Y-127800000D01*
X190750000Y-127800000D01*
X191250000Y-127800000D01*
X191647828Y-127800000D01*
X191647844Y-127799999D01*
X191707372Y-127793598D01*
X191707379Y-127793596D01*
X191842086Y-127743354D01*
X191842093Y-127743350D01*
X191957187Y-127657190D01*
X191957190Y-127657187D01*
X192043350Y-127542093D01*
X192043354Y-127542086D01*
X192093596Y-127407379D01*
X192093598Y-127407372D01*
X192099999Y-127347844D01*
X192100000Y-127347827D01*
X192100000Y-126750000D01*
X191250000Y-126750000D01*
X191250000Y-127800000D01*
X190750000Y-127800000D01*
X190750000Y-126750000D01*
X189900000Y-126750000D01*
X189900000Y-127347844D01*
X189100500Y-127347844D01*
X189100499Y-126250000D01*
X189100499Y-125652129D01*
X189100498Y-125652123D01*
X189100497Y-125652116D01*
X189094091Y-125592517D01*
X189058318Y-125496604D01*
X189050500Y-125453271D01*
X189050500Y-124954885D01*
X189070185Y-124887846D01*
X189101615Y-124854567D01*
X189167248Y-124806882D01*
X189167248Y-124806881D01*
X189167252Y-124806879D01*
X189306879Y-124667252D01*
X189411683Y-124523000D01*
X189467011Y-124480336D01*
X189536624Y-124474357D01*
X189598420Y-124506962D01*
X189632777Y-124567800D01*
X189636000Y-124595887D01*
X189636000Y-124651844D01*
X189642401Y-124711372D01*
X189642403Y-124711379D01*
X189692645Y-124846086D01*
X189692649Y-124846093D01*
X189778809Y-124961187D01*
X189778812Y-124961190D01*
X189893906Y-125047350D01*
X189893913Y-125047354D01*
X190028621Y-125097597D01*
X190030250Y-125097982D01*
X190031383Y-125098627D01*
X190035892Y-125100309D01*
X190035619Y-125101039D01*
X190090968Y-125132553D01*
X190123356Y-125194462D01*
X190117132Y-125264054D01*
X190076053Y-125317925D01*
X190042811Y-125342810D01*
X190042809Y-125342812D01*
X189956649Y-125457906D01*
X189956645Y-125457913D01*
X189906403Y-125592620D01*
X189906401Y-125592627D01*
X189900000Y-125652155D01*
X189900000Y-126250000D01*
X190750000Y-126250000D01*
X190750000Y-125234000D01*
X190744180Y-125228180D01*
X190696961Y-125214315D01*
X190651206Y-125161511D01*
X190640000Y-125110000D01*
X190640000Y-124283012D01*
X190697007Y-124315925D01*
X190824174Y-124350000D01*
X190955826Y-124350000D01*
X191082993Y-124315925D01*
X191140000Y-124283012D01*
X191140000Y-125070000D01*
X191145819Y-125075819D01*
X191193039Y-125089685D01*
X191238794Y-125142489D01*
X191250000Y-125194000D01*
X191250000Y-126250000D01*
X192100000Y-126250000D01*
X192100000Y-125652172D01*
X192099999Y-125652155D01*
X192093598Y-125592627D01*
X192093596Y-125592620D01*
X192043354Y-125457913D01*
X192043350Y-125457906D01*
X191957190Y-125342812D01*
X191957187Y-125342809D01*
X191851907Y-125263996D01*
X191810036Y-125208062D01*
X191805052Y-125138371D01*
X191838538Y-125077048D01*
X191882889Y-125048547D01*
X191886085Y-125047354D01*
X191886093Y-125047350D01*
X192001187Y-124961190D01*
X192001190Y-124961187D01*
X192087350Y-124846093D01*
X192087354Y-124846086D01*
X192137596Y-124711379D01*
X192137598Y-124711372D01*
X192143999Y-124651844D01*
X192144000Y-124651827D01*
X192144000Y-124100000D01*
X191323012Y-124100000D01*
X191355925Y-124042993D01*
X191390000Y-123915826D01*
X191390000Y-123784174D01*
X191355925Y-123657007D01*
X191323012Y-123600000D01*
X192144000Y-123600000D01*
X192144000Y-123320500D01*
X192163685Y-123253461D01*
X192216489Y-123207706D01*
X192268000Y-123196500D01*
X196959635Y-123196500D01*
X197026674Y-123216185D01*
X197047316Y-123232819D01*
X200832607Y-127018111D01*
X200832608Y-127018112D01*
X200947346Y-127094777D01*
X201074821Y-127147578D01*
X201074826Y-127147580D01*
X201074830Y-127147580D01*
X201074831Y-127147581D01*
X201210157Y-127174500D01*
X201210160Y-127174500D01*
X222789842Y-127174500D01*
X222880886Y-127156389D01*
X222925174Y-127147580D01*
X222988915Y-127121177D01*
X223052653Y-127094777D01*
X223052654Y-127094776D01*
X223052657Y-127094775D01*
X223167389Y-127018114D01*
X224058114Y-126127389D01*
X224134775Y-126012657D01*
X224187580Y-125885175D01*
X224193935Y-125853225D01*
X224214500Y-125749839D01*
X224214500Y-121575687D01*
X224214500Y-121575684D01*
X224187581Y-121440357D01*
X224187580Y-121440356D01*
X224187580Y-121440352D01*
X224161336Y-121376992D01*
X224134778Y-121312875D01*
X224134774Y-121312868D01*
X224092439Y-121249509D01*
X224058114Y-121198137D01*
X224058112Y-121198135D01*
X224058110Y-121198132D01*
X220236819Y-117376841D01*
X220203334Y-117315518D01*
X220200500Y-117289160D01*
X220200500Y-117024499D01*
X220220185Y-116957460D01*
X220272989Y-116911705D01*
X220324500Y-116900499D01*
X220347871Y-116900499D01*
X220347872Y-116900499D01*
X220407483Y-116894091D01*
X220542331Y-116843796D01*
X220657546Y-116757546D01*
X220743796Y-116642331D01*
X220794091Y-116507483D01*
X220800500Y-116447873D01*
X220800499Y-115541517D01*
X220820183Y-115474479D01*
X220836813Y-115453842D01*
X224058114Y-112232543D01*
X224134775Y-112117811D01*
X224187580Y-111990329D01*
X224200149Y-111927139D01*
X224209242Y-111881426D01*
X224214500Y-111854995D01*
X224214500Y-108457004D01*
X224187581Y-108321677D01*
X224187580Y-108321676D01*
X224187580Y-108321672D01*
X224138563Y-108203334D01*
X224134778Y-108194195D01*
X224134771Y-108194182D01*
X224058114Y-108079458D01*
X224058111Y-108079454D01*
X223960545Y-107981888D01*
X223960541Y-107981885D01*
X223845817Y-107905228D01*
X223845804Y-107905221D01*
X223718332Y-107852421D01*
X223718322Y-107852418D01*
X223582995Y-107825500D01*
X223582993Y-107825500D01*
X218365007Y-107825500D01*
X218365003Y-107825500D01*
X218256590Y-107847065D01*
X218256589Y-107847065D01*
X218229681Y-107852418D01*
X218229671Y-107852420D01*
X218102190Y-107905224D01*
X217987454Y-107981887D01*
X217365942Y-108603399D01*
X217304619Y-108636884D01*
X217258863Y-108638191D01*
X217178736Y-108625500D01*
X217178731Y-108625500D01*
X216981269Y-108625500D01*
X216981264Y-108625500D01*
X216786236Y-108656389D01*
X216598441Y-108717408D01*
X216422495Y-108807058D01*
X216262753Y-108923115D01*
X216123115Y-109062753D01*
X216007058Y-109222495D01*
X215917408Y-109398441D01*
X215907931Y-109427610D01*
X215868493Y-109485286D01*
X215804135Y-109512484D01*
X215735288Y-109500569D01*
X215683813Y-109453325D01*
X215672069Y-109427610D01*
X215662591Y-109398439D01*
X215572944Y-109222499D01*
X215538596Y-109175222D01*
X215456884Y-109062753D01*
X215317246Y-108923115D01*
X215157504Y-108807058D01*
X215157503Y-108807057D01*
X215157501Y-108807056D01*
X214981561Y-108717409D01*
X214981558Y-108717408D01*
X214793763Y-108656389D01*
X214598736Y-108625500D01*
X214598731Y-108625500D01*
X214401269Y-108625500D01*
X214401264Y-108625500D01*
X214321134Y-108638191D01*
X214251841Y-108629236D01*
X214214056Y-108603399D01*
X208553329Y-102942671D01*
X208469699Y-102859041D01*
X219849500Y-102859041D01*
X219849500Y-103140958D01*
X219886295Y-103420439D01*
X219959259Y-103692743D01*
X220067135Y-103953179D01*
X220067140Y-103953190D01*
X220208083Y-104197309D01*
X220208088Y-104197317D01*
X220379700Y-104420965D01*
X220379704Y-104420970D01*
X220579029Y-104620295D01*
X220579033Y-104620298D01*
X220579035Y-104620300D01*
X220802683Y-104791912D01*
X220802690Y-104791916D01*
X221046809Y-104932859D01*
X221046814Y-104932861D01*
X221046817Y-104932863D01*
X221307261Y-105040742D01*
X221579558Y-105113704D01*
X221859049Y-105150500D01*
X221859056Y-105150500D01*
X222140944Y-105150500D01*
X222140951Y-105150500D01*
X222420442Y-105113704D01*
X222692739Y-105040742D01*
X222953183Y-104932863D01*
X223197317Y-104791912D01*
X223420965Y-104620300D01*
X223620300Y-104420965D01*
X223791912Y-104197317D01*
X223932863Y-103953183D01*
X224040742Y-103692739D01*
X224113704Y-103420442D01*
X224150500Y-103140951D01*
X224150500Y-102859049D01*
X224113704Y-102579558D01*
X224040742Y-102307261D01*
X223932863Y-102046817D01*
X223932861Y-102046814D01*
X223932859Y-102046809D01*
X223791916Y-101802690D01*
X223791912Y-101802683D01*
X223620300Y-101579035D01*
X223620298Y-101579033D01*
X223620295Y-101579029D01*
X223420970Y-101379704D01*
X223380208Y-101348426D01*
X223197317Y-101208088D01*
X223197311Y-101208084D01*
X223197309Y-101208083D01*
X222953190Y-101067140D01*
X222953179Y-101067135D01*
X222692743Y-100959259D01*
X222420439Y-100886295D01*
X222140958Y-100849500D01*
X222140951Y-100849500D01*
X221859049Y-100849500D01*
X221859041Y-100849500D01*
X221579560Y-100886295D01*
X221307256Y-100959259D01*
X221046820Y-101067135D01*
X221046809Y-101067140D01*
X220802690Y-101208083D01*
X220802682Y-101208089D01*
X220579029Y-101379704D01*
X220379704Y-101579029D01*
X220208089Y-101802682D01*
X220208083Y-101802690D01*
X220067140Y-102046809D01*
X220067135Y-102046820D01*
X219959259Y-102307256D01*
X219886295Y-102579560D01*
X219849500Y-102859041D01*
X208469699Y-102859041D01*
X207366545Y-101755887D01*
X207251807Y-101679222D01*
X207124332Y-101626421D01*
X207124322Y-101626418D01*
X206988996Y-101599500D01*
X206988994Y-101599500D01*
X206988993Y-101599500D01*
X143268994Y-101599500D01*
X143131006Y-101599500D01*
X143131004Y-101599500D01*
X142995677Y-101626418D01*
X142995667Y-101626421D01*
X142868192Y-101679222D01*
X142753454Y-101755887D01*
X134635942Y-109873399D01*
X134574619Y-109906884D01*
X134528863Y-109908191D01*
X134448736Y-109895500D01*
X134448731Y-109895500D01*
X134251269Y-109895500D01*
X134251264Y-109895500D01*
X134056236Y-109926389D01*
X133868441Y-109987408D01*
X133692495Y-110077058D01*
X133532753Y-110193115D01*
X133393115Y-110332753D01*
X133277058Y-110492495D01*
X133277056Y-110492499D01*
X133190203Y-110662954D01*
X133142230Y-110713749D01*
X133074409Y-110730544D01*
X133008274Y-110708006D01*
X132969235Y-110662953D01*
X132882520Y-110492768D01*
X132882512Y-110492755D01*
X132856542Y-110457010D01*
X132856541Y-110457009D01*
X132292962Y-111020589D01*
X132275925Y-110957007D01*
X132210099Y-110842993D01*
X132117007Y-110749901D01*
X132002993Y-110684075D01*
X131939409Y-110667037D01*
X132502989Y-110103457D01*
X132467239Y-110077483D01*
X132291373Y-109987873D01*
X132103646Y-109926876D01*
X131908697Y-109896000D01*
X131711303Y-109896000D01*
X131516353Y-109926876D01*
X131328626Y-109987873D01*
X131152762Y-110077482D01*
X131152760Y-110077483D01*
X131117010Y-110103456D01*
X131117010Y-110103457D01*
X131680591Y-110667037D01*
X131617007Y-110684075D01*
X131502993Y-110749901D01*
X131409901Y-110842993D01*
X131344075Y-110957007D01*
X131327037Y-111020590D01*
X130763456Y-110457010D01*
X130737483Y-110492760D01*
X130737479Y-110492767D01*
X130650763Y-110662954D01*
X130602788Y-110713749D01*
X130534967Y-110730544D01*
X130468833Y-110708006D01*
X130429798Y-110662957D01*
X130342944Y-110492499D01*
X130342942Y-110492496D01*
X130342941Y-110492494D01*
X130226884Y-110332753D01*
X130087246Y-110193115D01*
X129927504Y-110077058D01*
X129927503Y-110077057D01*
X129927501Y-110077056D01*
X129751561Y-109987409D01*
X129724853Y-109978731D01*
X129563763Y-109926389D01*
X129368736Y-109895500D01*
X129368731Y-109895500D01*
X129171269Y-109895500D01*
X129171264Y-109895500D01*
X128976236Y-109926389D01*
X128788441Y-109987408D01*
X128612495Y-110077058D01*
X128452753Y-110193115D01*
X128313115Y-110332753D01*
X128197058Y-110492495D01*
X128197056Y-110492499D01*
X128116805Y-110650000D01*
X128110485Y-110662403D01*
X128062510Y-110713199D01*
X127994689Y-110729994D01*
X127928554Y-110707456D01*
X127889515Y-110662403D01*
X127802944Y-110492499D01*
X127777159Y-110457009D01*
X127686884Y-110332753D01*
X127547246Y-110193115D01*
X127387504Y-110077058D01*
X127387503Y-110077057D01*
X127387501Y-110077056D01*
X127211561Y-109987409D01*
X127184853Y-109978731D01*
X127023763Y-109926389D01*
X126828736Y-109895500D01*
X126828731Y-109895500D01*
X126631269Y-109895500D01*
X126631264Y-109895500D01*
X126436236Y-109926389D01*
X126248441Y-109987408D01*
X126072495Y-110077058D01*
X125912753Y-110193115D01*
X125773115Y-110332753D01*
X125657058Y-110492495D01*
X125657056Y-110492499D01*
X125570203Y-110662954D01*
X125522230Y-110713749D01*
X125454409Y-110730544D01*
X125388274Y-110708006D01*
X125349235Y-110662953D01*
X125262520Y-110492768D01*
X125262512Y-110492755D01*
X125236542Y-110457010D01*
X125236541Y-110457009D01*
X124672962Y-111020589D01*
X124655925Y-110957007D01*
X124590099Y-110842993D01*
X124497007Y-110749901D01*
X124382993Y-110684075D01*
X124319409Y-110667037D01*
X124882989Y-110103457D01*
X124847239Y-110077483D01*
X124671373Y-109987873D01*
X124483646Y-109926876D01*
X124288697Y-109896000D01*
X124091303Y-109896000D01*
X123896353Y-109926876D01*
X123708626Y-109987873D01*
X123532762Y-110077482D01*
X123532760Y-110077483D01*
X123497010Y-110103456D01*
X123497010Y-110103457D01*
X124060591Y-110667037D01*
X123997007Y-110684075D01*
X123882993Y-110749901D01*
X123789901Y-110842993D01*
X123724075Y-110957007D01*
X123707037Y-111020590D01*
X123143457Y-110457010D01*
X123143456Y-110457010D01*
X123117483Y-110492760D01*
X123117476Y-110492772D01*
X123030484Y-110663502D01*
X122982510Y-110714298D01*
X122914689Y-110731093D01*
X122848554Y-110708555D01*
X122809516Y-110663502D01*
X122722526Y-110492778D01*
X122722512Y-110492755D01*
X122696542Y-110457010D01*
X122696541Y-110457009D01*
X122132962Y-111020589D01*
X122115925Y-110957007D01*
X122050099Y-110842993D01*
X121957007Y-110749901D01*
X121842993Y-110684075D01*
X121779409Y-110667037D01*
X122342989Y-110103457D01*
X122307239Y-110077483D01*
X122131373Y-109987873D01*
X121943646Y-109926876D01*
X121748697Y-109896000D01*
X121551303Y-109896000D01*
X121356353Y-109926876D01*
X121168626Y-109987873D01*
X120992762Y-110077482D01*
X120992760Y-110077483D01*
X120957010Y-110103456D01*
X120957010Y-110103457D01*
X121520591Y-110667037D01*
X121457007Y-110684075D01*
X121342993Y-110749901D01*
X121249901Y-110842993D01*
X121184075Y-110957007D01*
X121167037Y-111020591D01*
X120603456Y-110457010D01*
X120577483Y-110492760D01*
X120577479Y-110492767D01*
X120490763Y-110662954D01*
X120442788Y-110713749D01*
X120374967Y-110730544D01*
X120308833Y-110708006D01*
X120269798Y-110662957D01*
X120182944Y-110492499D01*
X120182942Y-110492496D01*
X120182941Y-110492494D01*
X120066884Y-110332753D01*
X119927246Y-110193115D01*
X119767504Y-110077058D01*
X119767503Y-110077057D01*
X119767501Y-110077056D01*
X119591561Y-109987409D01*
X119564853Y-109978731D01*
X119403763Y-109926389D01*
X119208736Y-109895500D01*
X119208731Y-109895500D01*
X119011269Y-109895500D01*
X119011264Y-109895500D01*
X118816236Y-109926389D01*
X118628441Y-109987408D01*
X118452495Y-110077058D01*
X118292753Y-110193115D01*
X118153115Y-110332753D01*
X118037058Y-110492495D01*
X117947408Y-110668441D01*
X117886389Y-110856236D01*
X117855500Y-111051263D01*
X117855500Y-111248736D01*
X117886389Y-111443763D01*
X117947408Y-111631558D01*
X117947409Y-111631561D01*
X118013415Y-111761103D01*
X118037058Y-111807504D01*
X118153115Y-111967246D01*
X118292753Y-112106884D01*
X118416158Y-112196541D01*
X118452499Y-112222944D01*
X118622404Y-112309516D01*
X118673199Y-112357490D01*
X118689994Y-112425311D01*
X118667456Y-112491446D01*
X118622404Y-112530483D01*
X118465321Y-112610522D01*
X118452495Y-112617058D01*
X118292753Y-112733115D01*
X118153115Y-112872753D01*
X118037058Y-113032495D01*
X117947408Y-113208441D01*
X117886389Y-113396236D01*
X117855500Y-113591263D01*
X117855500Y-113788736D01*
X117886389Y-113983763D01*
X117922388Y-114094554D01*
X117947409Y-114171561D01*
X117985951Y-114247203D01*
X118037058Y-114347504D01*
X118153115Y-114507246D01*
X118292753Y-114646884D01*
X118441603Y-114755028D01*
X118452499Y-114762944D01*
X118622404Y-114849516D01*
X118673199Y-114897490D01*
X118689994Y-114965311D01*
X118667456Y-115031446D01*
X118622404Y-115070483D01*
X118478258Y-115143931D01*
X118452495Y-115157058D01*
X118292753Y-115273115D01*
X118153115Y-115412753D01*
X118037058Y-115572495D01*
X117947408Y-115748441D01*
X117886389Y-115936236D01*
X117855500Y-116131263D01*
X117855500Y-116328736D01*
X117886389Y-116523763D01*
X117919510Y-116625697D01*
X117947409Y-116711561D01*
X118037056Y-116887501D01*
X118037058Y-116887504D01*
X118153115Y-117047246D01*
X118292753Y-117186884D01*
X118422524Y-117281166D01*
X118452499Y-117302944D01*
X118628439Y-117392591D01*
X118753637Y-117433270D01*
X118816236Y-117453610D01*
X119011264Y-117484500D01*
X119011269Y-117484500D01*
X119208728Y-117484500D01*
X119208731Y-117484500D01*
X119288865Y-117471807D01*
X119358155Y-117480761D01*
X119395942Y-117506599D01*
X120933453Y-119044111D01*
X120933454Y-119044112D01*
X121048192Y-119120777D01*
X121175667Y-119173578D01*
X121175672Y-119173580D01*
X121175676Y-119173580D01*
X121175677Y-119173581D01*
X121311003Y-119200500D01*
X121311006Y-119200500D01*
X121311007Y-119200500D01*
X194878481Y-119200500D01*
X194945520Y-119220185D01*
X194966162Y-119236819D01*
X197313162Y-121583819D01*
X197346647Y-121645142D01*
X197341663Y-121714834D01*
X197299791Y-121770767D01*
X197234327Y-121795184D01*
X197225481Y-121795500D01*
X189635003Y-121795500D01*
X189526590Y-121817065D01*
X189526589Y-121817065D01*
X189499671Y-121822420D01*
X189372190Y-121875224D01*
X189257454Y-121951887D01*
X188635942Y-122573399D01*
X188574619Y-122606884D01*
X188528863Y-122608191D01*
X188448736Y-122595500D01*
X188448731Y-122595500D01*
X188251269Y-122595500D01*
X188251263Y-122595500D01*
X188171133Y-122608191D01*
X188101840Y-122599236D01*
X188064055Y-122573399D01*
X185446546Y-119955888D01*
X185446545Y-119955887D01*
X185331807Y-119879222D01*
X185204332Y-119826421D01*
X185204322Y-119826418D01*
X185068996Y-119799500D01*
X185068994Y-119799500D01*
X185068993Y-119799500D01*
X164631007Y-119799500D01*
X164631005Y-119799500D01*
X164568370Y-119811959D01*
X164537052Y-119818189D01*
X164513334Y-119822906D01*
X164495668Y-119826420D01*
X164495660Y-119826423D01*
X164442865Y-119848292D01*
X164368191Y-119879223D01*
X164268747Y-119945669D01*
X164268748Y-119945670D01*
X164253453Y-119955889D01*
X164253451Y-119955891D01*
X161635942Y-122573399D01*
X161574619Y-122606884D01*
X161528863Y-122608191D01*
X161448736Y-122595500D01*
X161448731Y-122595500D01*
X161251269Y-122595500D01*
X161251263Y-122595500D01*
X161171133Y-122608191D01*
X161101840Y-122599236D01*
X161064055Y-122573399D01*
X158446546Y-119955888D01*
X158446545Y-119955887D01*
X158331807Y-119879222D01*
X158204332Y-119826421D01*
X158204322Y-119826418D01*
X158068996Y-119799500D01*
X158068994Y-119799500D01*
X158068993Y-119799500D01*
X137631007Y-119799500D01*
X137631005Y-119799500D01*
X137568370Y-119811959D01*
X137537052Y-119818189D01*
X137513334Y-119822906D01*
X137495668Y-119826420D01*
X137495660Y-119826423D01*
X137442865Y-119848292D01*
X137368191Y-119879223D01*
X137268747Y-119945669D01*
X137268748Y-119945670D01*
X137253453Y-119955889D01*
X137253451Y-119955891D01*
X134635942Y-122573399D01*
X134574619Y-122606884D01*
X134528863Y-122608191D01*
X134448736Y-122595500D01*
X134448731Y-122595500D01*
X134251269Y-122595500D01*
X134251264Y-122595500D01*
X134056236Y-122626389D01*
X133868441Y-122687408D01*
X133692495Y-122777058D01*
X133532753Y-122893115D01*
X133393115Y-123032753D01*
X133277058Y-123192495D01*
X133277056Y-123192499D01*
X133196805Y-123350000D01*
X133190485Y-123362403D01*
X133142510Y-123413199D01*
X133074689Y-123429994D01*
X133008554Y-123407456D01*
X132969515Y-123362403D01*
X132882944Y-123192499D01*
X132857159Y-123157009D01*
X132766884Y-123032753D01*
X132627246Y-122893115D01*
X132467504Y-122777058D01*
X132467503Y-122777057D01*
X132467501Y-122777056D01*
X132291561Y-122687409D01*
X132291558Y-122687408D01*
X132103763Y-122626389D01*
X131908736Y-122595500D01*
X131908731Y-122595500D01*
X131711269Y-122595500D01*
X131711264Y-122595500D01*
X131516236Y-122626389D01*
X131328441Y-122687408D01*
X131152495Y-122777058D01*
X130992753Y-122893115D01*
X130853115Y-123032753D01*
X130737058Y-123192495D01*
X130737056Y-123192499D01*
X130656805Y-123350000D01*
X130650485Y-123362403D01*
X130602510Y-123413199D01*
X130534689Y-123429994D01*
X130468554Y-123407456D01*
X130429515Y-123362403D01*
X130342944Y-123192499D01*
X130317159Y-123157009D01*
X130226884Y-123032753D01*
X130087246Y-122893115D01*
X129927504Y-122777058D01*
X129927503Y-122777057D01*
X129927501Y-122777056D01*
X129751561Y-122687409D01*
X129751558Y-122687408D01*
X129563763Y-122626389D01*
X129368736Y-122595500D01*
X129368731Y-122595500D01*
X129171269Y-122595500D01*
X129171264Y-122595500D01*
X128976236Y-122626389D01*
X128788441Y-122687408D01*
X128612495Y-122777058D01*
X128452753Y-122893115D01*
X128313115Y-123032753D01*
X128197058Y-123192495D01*
X128197056Y-123192499D01*
X128116805Y-123350000D01*
X128110485Y-123362403D01*
X128062510Y-123413199D01*
X127994689Y-123429994D01*
X127928554Y-123407456D01*
X127889515Y-123362403D01*
X127802944Y-123192499D01*
X127777159Y-123157009D01*
X127686884Y-123032753D01*
X127547246Y-122893115D01*
X127387504Y-122777058D01*
X127387503Y-122777057D01*
X127387501Y-122777056D01*
X127211561Y-122687409D01*
X127211558Y-122687408D01*
X127023763Y-122626389D01*
X126828736Y-122595500D01*
X126828731Y-122595500D01*
X126631269Y-122595500D01*
X126631264Y-122595500D01*
X126436236Y-122626389D01*
X126248441Y-122687408D01*
X126072495Y-122777058D01*
X125912753Y-122893115D01*
X125773115Y-123032753D01*
X125657058Y-123192495D01*
X125657056Y-123192499D01*
X125576805Y-123350000D01*
X125570485Y-123362403D01*
X125522510Y-123413199D01*
X125454689Y-123429994D01*
X125388554Y-123407456D01*
X125349515Y-123362403D01*
X125262944Y-123192499D01*
X125237159Y-123157009D01*
X125146884Y-123032753D01*
X125007246Y-122893115D01*
X124847504Y-122777058D01*
X124847503Y-122777057D01*
X124847501Y-122777056D01*
X124671561Y-122687409D01*
X124671558Y-122687408D01*
X124483763Y-122626389D01*
X124288736Y-122595500D01*
X124288731Y-122595500D01*
X124091269Y-122595500D01*
X124091264Y-122595500D01*
X123896236Y-122626389D01*
X123708441Y-122687408D01*
X123532495Y-122777058D01*
X123372753Y-122893115D01*
X123233115Y-123032753D01*
X123117058Y-123192495D01*
X123117056Y-123192499D01*
X123030203Y-123362954D01*
X122982230Y-123413749D01*
X122914409Y-123430544D01*
X122848274Y-123408006D01*
X122809235Y-123362953D01*
X122722520Y-123192768D01*
X122722512Y-123192755D01*
X122696542Y-123157010D01*
X122696541Y-123157009D01*
X122132962Y-123720589D01*
X122115925Y-123657007D01*
X122050099Y-123542993D01*
X121957007Y-123449901D01*
X121842993Y-123384075D01*
X121779409Y-123367037D01*
X122342989Y-122803457D01*
X122307239Y-122777483D01*
X122131373Y-122687873D01*
X121943646Y-122626876D01*
X121748697Y-122596000D01*
X121551303Y-122596000D01*
X121356353Y-122626876D01*
X121168626Y-122687873D01*
X120992762Y-122777482D01*
X120992760Y-122777483D01*
X120957010Y-122803456D01*
X120957010Y-122803457D01*
X121520591Y-123367037D01*
X121457007Y-123384075D01*
X121342993Y-123449901D01*
X121249901Y-123542993D01*
X121184075Y-123657007D01*
X121167037Y-123720590D01*
X120603456Y-123157010D01*
X120577483Y-123192760D01*
X120577479Y-123192767D01*
X120490763Y-123362954D01*
X120442788Y-123413749D01*
X120374967Y-123430544D01*
X120308833Y-123408006D01*
X120269798Y-123362957D01*
X120182944Y-123192499D01*
X120182942Y-123192496D01*
X120182941Y-123192494D01*
X120066884Y-123032753D01*
X119927246Y-122893115D01*
X119767504Y-122777058D01*
X119767503Y-122777057D01*
X119767501Y-122777056D01*
X119591561Y-122687409D01*
X119591558Y-122687408D01*
X119403763Y-122626389D01*
X119208736Y-122595500D01*
X119208731Y-122595500D01*
X119011269Y-122595500D01*
X119011264Y-122595500D01*
X118816236Y-122626389D01*
X118628441Y-122687408D01*
X118452495Y-122777058D01*
X118385383Y-122825818D01*
X118319577Y-122849298D01*
X118312498Y-122849500D01*
X114842282Y-122849500D01*
X114775243Y-122829815D01*
X114754601Y-122813181D01*
X109699319Y-117757899D01*
X109665834Y-117696576D01*
X109663000Y-117670218D01*
X109663000Y-116256142D01*
X112362500Y-116256142D01*
X112362500Y-117236000D01*
X113612500Y-117236000D01*
X113612500Y-117736000D01*
X112362500Y-117736000D01*
X112362500Y-118715857D01*
X112403129Y-118972377D01*
X112483383Y-119219377D01*
X112601296Y-119450791D01*
X112753945Y-119660896D01*
X112753949Y-119660901D01*
X112937598Y-119844550D01*
X112937603Y-119844554D01*
X113147708Y-119997203D01*
X113379122Y-120115116D01*
X113626122Y-120195370D01*
X113762500Y-120216971D01*
X113762500Y-118901686D01*
X113766894Y-118906080D01*
X113858106Y-118958741D01*
X113959839Y-118986000D01*
X114065161Y-118986000D01*
X114166894Y-118958741D01*
X114258106Y-118906080D01*
X114262500Y-118901686D01*
X114262500Y-120216970D01*
X114398877Y-120195370D01*
X114645877Y-120115116D01*
X114877291Y-119997203D01*
X115087396Y-119844554D01*
X115087401Y-119844550D01*
X115271050Y-119660901D01*
X115271054Y-119660896D01*
X115423703Y-119450791D01*
X115541616Y-119219377D01*
X115621870Y-118972377D01*
X115662500Y-118715857D01*
X115662500Y-117736000D01*
X114412500Y-117736000D01*
X114412500Y-117236000D01*
X115662500Y-117236000D01*
X115662500Y-116256142D01*
X115621870Y-115999622D01*
X115541616Y-115752622D01*
X115423703Y-115521208D01*
X115271054Y-115311103D01*
X115271050Y-115311098D01*
X115087401Y-115127449D01*
X115087396Y-115127445D01*
X114877291Y-114974796D01*
X114645875Y-114856882D01*
X114398874Y-114776628D01*
X114262500Y-114755028D01*
X114262500Y-116070314D01*
X114258106Y-116065920D01*
X114166894Y-116013259D01*
X114065161Y-115986000D01*
X113959839Y-115986000D01*
X113858106Y-116013259D01*
X113766894Y-116065920D01*
X113762500Y-116070314D01*
X113762500Y-114755028D01*
X113762499Y-114755028D01*
X113626125Y-114776628D01*
X113379124Y-114856882D01*
X113147708Y-114974796D01*
X112937603Y-115127445D01*
X112937598Y-115127449D01*
X112753949Y-115311098D01*
X112753945Y-115311103D01*
X112601296Y-115521208D01*
X112483383Y-115752622D01*
X112403129Y-115999622D01*
X112362500Y-116256142D01*
X109663000Y-116256142D01*
X109663000Y-116256097D01*
X109633991Y-116072944D01*
X109622360Y-115999507D01*
X109542079Y-115752428D01*
X109542077Y-115752425D01*
X109542077Y-115752423D01*
X109450400Y-115572499D01*
X109424134Y-115520949D01*
X109271431Y-115310771D01*
X109087729Y-115127069D01*
X109077226Y-115119438D01*
X108877554Y-114974368D01*
X108877553Y-114974367D01*
X108877551Y-114974366D01*
X108805264Y-114937534D01*
X108646076Y-114856422D01*
X108398993Y-114776140D01*
X108142402Y-114735500D01*
X108142397Y-114735500D01*
X107882603Y-114735500D01*
X107882598Y-114735500D01*
X107626006Y-114776140D01*
X107378923Y-114856422D01*
X107147446Y-114974367D01*
X107098949Y-115009602D01*
X107033143Y-115033081D01*
X106965089Y-115017255D01*
X106938384Y-114996964D01*
X106028601Y-114087181D01*
X106020728Y-114072764D01*
X106008849Y-114061420D01*
X106004330Y-114042732D01*
X105995116Y-114025858D01*
X105996287Y-114009473D01*
X105992427Y-113993507D01*
X105998728Y-113975343D01*
X106000100Y-113956166D01*
X106009944Y-113943015D01*
X106015328Y-113927498D01*
X106030450Y-113915624D01*
X106041972Y-113900233D01*
X106057870Y-113894093D01*
X106070282Y-113884348D01*
X106095834Y-113879433D01*
X106104587Y-113876053D01*
X106110424Y-113875500D01*
X106223540Y-113875500D01*
X106223541Y-113875500D01*
X106320188Y-113856275D01*
X106416836Y-113837051D01*
X106470165Y-113814961D01*
X106598914Y-113761632D01*
X106762782Y-113652139D01*
X106902139Y-113512782D01*
X106902140Y-113512779D01*
X106909206Y-113505714D01*
X106909209Y-113505710D01*
X107828919Y-112586000D01*
X109031529Y-112586000D01*
X110346814Y-112586000D01*
X110342420Y-112590394D01*
X110289759Y-112681606D01*
X110262500Y-112783339D01*
X110262500Y-112888661D01*
X110289759Y-112990394D01*
X110342420Y-113081606D01*
X110346814Y-113086000D01*
X109031529Y-113086000D01*
X109053129Y-113222377D01*
X109133383Y-113469377D01*
X109251296Y-113700791D01*
X109403945Y-113910896D01*
X109403949Y-113910901D01*
X109587598Y-114094550D01*
X109587603Y-114094554D01*
X109797708Y-114247203D01*
X110029122Y-114365116D01*
X110276122Y-114445370D01*
X110532643Y-114486000D01*
X111262500Y-114486000D01*
X111262500Y-113236000D01*
X111762500Y-113236000D01*
X111762500Y-114486000D01*
X112492357Y-114486000D01*
X112748877Y-114445370D01*
X112995877Y-114365116D01*
X113227291Y-114247203D01*
X113437396Y-114094554D01*
X113437401Y-114094550D01*
X113621050Y-113910901D01*
X113621054Y-113910896D01*
X113773703Y-113700791D01*
X113891616Y-113469377D01*
X113971870Y-113222377D01*
X113993471Y-113086000D01*
X112678186Y-113086000D01*
X112682580Y-113081606D01*
X112735241Y-112990394D01*
X112762500Y-112888661D01*
X112762500Y-112783339D01*
X112735241Y-112681606D01*
X112682580Y-112590394D01*
X112678186Y-112586000D01*
X113993471Y-112586000D01*
X113971870Y-112449622D01*
X113891616Y-112202622D01*
X113773703Y-111971208D01*
X113621054Y-111761103D01*
X113621050Y-111761098D01*
X113437401Y-111577449D01*
X113437396Y-111577445D01*
X113227291Y-111424796D01*
X112995877Y-111306883D01*
X112748877Y-111226629D01*
X112492357Y-111186000D01*
X111762500Y-111186000D01*
X111762500Y-112436000D01*
X111262500Y-112436000D01*
X111262500Y-111186000D01*
X110532643Y-111186000D01*
X110276120Y-111226629D01*
X110141466Y-111270380D01*
X109987517Y-111328082D01*
X109797708Y-111424796D01*
X109587603Y-111577445D01*
X109587598Y-111577449D01*
X109403949Y-111761098D01*
X109403945Y-111761103D01*
X109251296Y-111971208D01*
X109133383Y-112202622D01*
X109053129Y-112449622D01*
X109031529Y-112586000D01*
X107828919Y-112586000D01*
X109278101Y-111136818D01*
X109339424Y-111103333D01*
X109365782Y-111100499D01*
X109847871Y-111100499D01*
X109847872Y-111100499D01*
X109907483Y-111094091D01*
X110042331Y-111043796D01*
X110157546Y-110957546D01*
X110243796Y-110842331D01*
X110294091Y-110707483D01*
X110300500Y-110647873D01*
X110300499Y-109352128D01*
X110294091Y-109292517D01*
X110291779Y-109286319D01*
X110243797Y-109157671D01*
X110243793Y-109157664D01*
X110157547Y-109042455D01*
X110157544Y-109042452D01*
X110042335Y-108956206D01*
X110042328Y-108956202D01*
X109907482Y-108905908D01*
X109907483Y-108905908D01*
X109847883Y-108899501D01*
X109847881Y-108899500D01*
X109847873Y-108899500D01*
X109847864Y-108899500D01*
X108152129Y-108899500D01*
X108152123Y-108899501D01*
X108092516Y-108905908D01*
X107957671Y-108956202D01*
X107957664Y-108956206D01*
X107842455Y-109042452D01*
X107842452Y-109042455D01*
X107756206Y-109157664D01*
X107756202Y-109157671D01*
X107705908Y-109292517D01*
X107701246Y-109335886D01*
X107699501Y-109352123D01*
X107699500Y-109352135D01*
X107699500Y-109834217D01*
X107679815Y-109901256D01*
X107663181Y-109921898D01*
X105746899Y-111838181D01*
X105685576Y-111871666D01*
X105659218Y-111874500D01*
X105384499Y-111874500D01*
X105317460Y-111854815D01*
X105271705Y-111802011D01*
X105260499Y-111750500D01*
X105260499Y-111327129D01*
X105260498Y-111327123D01*
X105260497Y-111327116D01*
X105254091Y-111267517D01*
X105247086Y-111248736D01*
X105203797Y-111132671D01*
X105203793Y-111132664D01*
X105117547Y-111017455D01*
X105117544Y-111017452D01*
X105002335Y-110931206D01*
X105002328Y-110931202D01*
X104867482Y-110880908D01*
X104867483Y-110880908D01*
X104807883Y-110874501D01*
X104807881Y-110874500D01*
X104807873Y-110874500D01*
X104807864Y-110874500D01*
X103712129Y-110874500D01*
X103712123Y-110874501D01*
X103652516Y-110880908D01*
X103517671Y-110931202D01*
X103517664Y-110931206D01*
X103402455Y-111017452D01*
X103402452Y-111017455D01*
X103316206Y-111132664D01*
X103316202Y-111132671D01*
X103265908Y-111267517D01*
X103259501Y-111327116D01*
X103259501Y-111327123D01*
X103259500Y-111327135D01*
X100500500Y-111327135D01*
X100500500Y-109222844D01*
X103260000Y-109222844D01*
X103266401Y-109282372D01*
X103266403Y-109282379D01*
X103316645Y-109417086D01*
X103316649Y-109417093D01*
X103402809Y-109532187D01*
X103402812Y-109532190D01*
X103517906Y-109618350D01*
X103517913Y-109618354D01*
X103652620Y-109668596D01*
X103652627Y-109668598D01*
X103712155Y-109674999D01*
X103712172Y-109675000D01*
X104010000Y-109675000D01*
X104510000Y-109675000D01*
X104807828Y-109675000D01*
X104807844Y-109674999D01*
X104867372Y-109668598D01*
X104867379Y-109668596D01*
X105002086Y-109618354D01*
X105002093Y-109618350D01*
X105117187Y-109532190D01*
X105117190Y-109532187D01*
X105203350Y-109417093D01*
X105203354Y-109417086D01*
X105253596Y-109282379D01*
X105253598Y-109282372D01*
X105259999Y-109222844D01*
X105260000Y-109222827D01*
X105260000Y-107925000D01*
X104510000Y-107925000D01*
X104510000Y-109675000D01*
X104010000Y-109675000D01*
X104010000Y-107925000D01*
X103260000Y-107925000D01*
X103260000Y-109222844D01*
X100500500Y-109222844D01*
X100500500Y-107647844D01*
X107700000Y-107647844D01*
X107706401Y-107707372D01*
X107706403Y-107707379D01*
X107756645Y-107842086D01*
X107756649Y-107842093D01*
X107842809Y-107957187D01*
X107842812Y-107957190D01*
X107957906Y-108043350D01*
X107957913Y-108043354D01*
X108092620Y-108093596D01*
X108092627Y-108093598D01*
X108152155Y-108099999D01*
X108152172Y-108100000D01*
X108750000Y-108100000D01*
X109250000Y-108100000D01*
X109847828Y-108100000D01*
X109847844Y-108099999D01*
X109907372Y-108093598D01*
X109907379Y-108093596D01*
X110042086Y-108043354D01*
X110042093Y-108043350D01*
X110157187Y-107957190D01*
X110157190Y-107957187D01*
X110243350Y-107842093D01*
X110243354Y-107842086D01*
X110293596Y-107707379D01*
X110293598Y-107707372D01*
X110299999Y-107647844D01*
X110300000Y-107647827D01*
X110300000Y-107250000D01*
X109250000Y-107250000D01*
X109250000Y-108100000D01*
X108750000Y-108100000D01*
X108750000Y-107250000D01*
X107700000Y-107250000D01*
X107700000Y-107647844D01*
X100500500Y-107647844D01*
X100500500Y-106127155D01*
X103260000Y-106127155D01*
X103260000Y-107425000D01*
X104010000Y-107425000D01*
X104510000Y-107425000D01*
X105260000Y-107425000D01*
X105260000Y-106352155D01*
X107700000Y-106352155D01*
X107700000Y-106750000D01*
X108750000Y-106750000D01*
X109250000Y-106750000D01*
X110300000Y-106750000D01*
X110300000Y-106352172D01*
X110299999Y-106352155D01*
X110293598Y-106292627D01*
X110293596Y-106292620D01*
X110243354Y-106157913D01*
X110243350Y-106157906D01*
X110157190Y-106042812D01*
X110157187Y-106042809D01*
X110042093Y-105956649D01*
X110042086Y-105956645D01*
X109907379Y-105906403D01*
X109907372Y-105906401D01*
X109847844Y-105900000D01*
X109250000Y-105900000D01*
X109250000Y-106750000D01*
X108750000Y-106750000D01*
X108750000Y-105900000D01*
X108152155Y-105900000D01*
X108092627Y-105906401D01*
X108092620Y-105906403D01*
X107957913Y-105956645D01*
X107957906Y-105956649D01*
X107842812Y-106042809D01*
X107842809Y-106042812D01*
X107756649Y-106157906D01*
X107756645Y-106157913D01*
X107706403Y-106292620D01*
X107706401Y-106292627D01*
X107700000Y-106352155D01*
X105260000Y-106352155D01*
X105260000Y-106127172D01*
X105259999Y-106127155D01*
X105253598Y-106067627D01*
X105253596Y-106067620D01*
X105203354Y-105932913D01*
X105203350Y-105932906D01*
X105117190Y-105817812D01*
X105117187Y-105817809D01*
X105002093Y-105731649D01*
X105002086Y-105731645D01*
X104867379Y-105681403D01*
X104867372Y-105681401D01*
X104807844Y-105675000D01*
X104510000Y-105675000D01*
X104510000Y-107425000D01*
X104010000Y-107425000D01*
X104010000Y-105675000D01*
X103712155Y-105675000D01*
X103652627Y-105681401D01*
X103652620Y-105681403D01*
X103517913Y-105731645D01*
X103517906Y-105731649D01*
X103402812Y-105817809D01*
X103402809Y-105817812D01*
X103316649Y-105932906D01*
X103316645Y-105932913D01*
X103266403Y-106067620D01*
X103266401Y-106067627D01*
X103260000Y-106127155D01*
X100500500Y-106127155D01*
X100500500Y-103003750D01*
X100500726Y-102996263D01*
X100504486Y-102934108D01*
X100509026Y-102859041D01*
X100849500Y-102859041D01*
X100849500Y-103140958D01*
X100886295Y-103420439D01*
X100959259Y-103692743D01*
X101067135Y-103953179D01*
X101067140Y-103953190D01*
X101208083Y-104197309D01*
X101208088Y-104197317D01*
X101379700Y-104420965D01*
X101379704Y-104420970D01*
X101579029Y-104620295D01*
X101579033Y-104620298D01*
X101579035Y-104620300D01*
X101802683Y-104791912D01*
X101802690Y-104791916D01*
X102046809Y-104932859D01*
X102046814Y-104932861D01*
X102046817Y-104932863D01*
X102307261Y-105040742D01*
X102579558Y-105113704D01*
X102859049Y-105150500D01*
X102859056Y-105150500D01*
X103140944Y-105150500D01*
X103140951Y-105150500D01*
X103420442Y-105113704D01*
X103692739Y-105040742D01*
X103953183Y-104932863D01*
X104197317Y-104791912D01*
X104420965Y-104620300D01*
X104620300Y-104420965D01*
X104791912Y-104197317D01*
X104932863Y-103953183D01*
X105040742Y-103692739D01*
X105113704Y-103420442D01*
X105150500Y-103140951D01*
X105150500Y-102859049D01*
X105113704Y-102579558D01*
X105040742Y-102307261D01*
X104932863Y-102046817D01*
X104932861Y-102046814D01*
X104932859Y-102046809D01*
X104791916Y-101802690D01*
X104791912Y-101802683D01*
X104620300Y-101579035D01*
X104620298Y-101579033D01*
X104620295Y-101579029D01*
X104420970Y-101379704D01*
X104380208Y-101348426D01*
X104197317Y-101208088D01*
X104197311Y-101208084D01*
X104197309Y-101208083D01*
X103953190Y-101067140D01*
X103953179Y-101067135D01*
X103692743Y-100959259D01*
X103420439Y-100886295D01*
X103140958Y-100849500D01*
X103140951Y-100849500D01*
X102859049Y-100849500D01*
X102859041Y-100849500D01*
X102579560Y-100886295D01*
X102307256Y-100959259D01*
X102046820Y-101067135D01*
X102046809Y-101067140D01*
X101802690Y-101208083D01*
X101802682Y-101208089D01*
X101579029Y-101379704D01*
X101379704Y-101579029D01*
X101208089Y-101802682D01*
X101208083Y-101802690D01*
X101067140Y-102046809D01*
X101067135Y-102046820D01*
X100959259Y-102307256D01*
X100886295Y-102579560D01*
X100849500Y-102859041D01*
X100509026Y-102859041D01*
X100518271Y-102706201D01*
X100520076Y-102691340D01*
X100571780Y-102409202D01*
X100575364Y-102394664D01*
X100602600Y-102307261D01*
X100660699Y-102120812D01*
X100665997Y-102106842D01*
X100783727Y-101845258D01*
X100790680Y-101832012D01*
X100914965Y-101626418D01*
X100939075Y-101586534D01*
X100947567Y-101574230D01*
X101124481Y-101348417D01*
X101134396Y-101337226D01*
X101337226Y-101134396D01*
X101348417Y-101124481D01*
X101574230Y-100947567D01*
X101586534Y-100939075D01*
X101832012Y-100790680D01*
X101845258Y-100783727D01*
X102106842Y-100665997D01*
X102120812Y-100660699D01*
X102394668Y-100575362D01*
X102409198Y-100571780D01*
X102691344Y-100520075D01*
X102706201Y-100518271D01*
X102996264Y-100500726D01*
X103003751Y-100500500D01*
X103065892Y-100500500D01*
X221934108Y-100500500D01*
X221996249Y-100500500D01*
X222003736Y-100500726D01*
G37*
%TD.AperFunction*%
D26*
X100000000Y-103000000D02*
G75*
G02*
X103000000Y-100000000I3000000J0D01*
G01*
X100000000Y-132000000D02*
X100000000Y-103000000D01*
X103000000Y-100000000D02*
X222000000Y-100000000D01*
X103000000Y-135000000D02*
G75*
G02*
X100000000Y-132000000I0J3000000D01*
G01*
X222000000Y-100000000D02*
G75*
G02*
X225000000Y-103000000I0J-3000000D01*
G01*
X222000000Y-135000000D02*
X103000000Y-135000000D01*
X225000000Y-103000000D02*
X225000000Y-132000000D01*
X225000000Y-132000000D02*
G75*
G02*
X222000000Y-135000000I-3000000J0D01*
G01*
M02*
